<?xml version="1.0" standalone="no"?>
<!DOCTYPE svg PUBLIC "-//W3C//DTD SVG 1.1//EN" "http://www.w3.org/Graphics/SVG/1.1/DTD/svg11.dtd" >
<svg xmlns="http://www.w3.org/2000/svg">
<metadata>Generated by IcoMoon</metadata>
<defs>
<font id="icomoon" horiz-adv-x="1024">
<font-face units-per-em="1024" ascent="960" descent="-64" />
<missing-glyph horiz-adv-x="1024" />
<glyph unicode="&#x20;" horiz-adv-x="512" d="" />
<glyph unicode="&#xe900;" glyph-name="add" d="M511.939-48.426c274.213 0 496.486 222.287 496.486 496.486 0 131.674-52.303 257.959-145.427 351.068-93.091 93.11-219.392 145.417-351.060 145.417-274.212 0-496.485-222.284-496.485-496.485 0-274.199 222.273-496.486 496.485-496.486zM558.485 494.606h188.97c25.726 0 46.545-20.843 46.545-46.545 0-25.707-20.82-46.545-46.545-46.545h-188.97v-188.979c0-25.702-20.848-46.545-46.545-46.545s-46.545 20.843-46.545 46.545v188.979h-188.97c-25.697 0-46.545 20.838-46.545 46.545 0 25.702 20.849 46.545 46.545 46.545h188.97v188.974c0 25.705 20.848 46.545 46.545 46.545s46.545-20.841 46.545-46.545v-188.974z" />
<glyph unicode="&#xe901;" glyph-name="arr-d" horiz-adv-x="1638" d="M1568.266 888.142c20.398-19.579 21.074-51.99 1.495-72.393l-750.939-782.527-753.307 782.468c-19.612 20.371-18.996 52.783 1.375 72.395s52.783 18.996 72.394-1.375l679.419-705.719 677.166 705.659c19.579 20.402 51.999 21.070 72.397 1.491z" />
<glyph unicode="&#xe902;" glyph-name="bin" horiz-adv-x="910" d="M613.16 831.783h-60.050v58.784h-195.949v-58.784h-60.050v58.784c-0.043 33.712 26.379 61.524 60.050 63.21h195.949c33.67-1.686 60.095-29.498 60.050-63.21v-58.784zM297.111 606.123h63.21v-474.073h-63.21v474.073zM613.16 606.123h-63.209v-474.073h63.209v474.073zM859.045 732.543h-814.773c-17.456 0-31.605 14.151-31.605 31.605s14.149 31.605 31.605 31.605h814.773c17.459 0 31.607-14.152 31.607-31.605s-14.148-31.605-31.607-31.605zM166.266-57.583h577.738c24.565 0.58 47.889 10.9 64.842 28.683s26.14 41.574 25.549 66.133v624.831h-63.209v-624.831c0.609-7.799-1.917-15.519-7.020-21.453s-12.356-9.586-20.161-10.149h-577.738c-7.803 0.563-15.060 4.215-20.162 10.149-5.101 5.934-7.628 13.653-7.018 21.453v624.831h-63.21v-624.831c-0.594-24.559 8.598-48.35 25.549-66.133 16.955-17.783 40.278-28.103 64.84-28.683z" />
<glyph unicode="&#xe903;" glyph-name="check" horiz-adv-x="1229" d="M14.179 445.852c-9.452 9.348-14.179 23.371-14.179 32.719s4.726 23.37 14.179 32.718l66.166 65.438c18.905 18.696 47.261 18.696 66.166 0l264.664-280.445c9.453-9.348 23.631-9.348 33.083 0l638.028 649.697c18.903 18.696 47.268 18.696 66.171 0l66.161-65.437c18.913-18.696 18.913-46.74 0-65.437l-756.181-775.897c-9.452-9.348-18.904-14.022-33.082-14.022s-23.631 4.674-33.083 14.022l-378.092 406.645z" />
<glyph unicode="&#xe904;" glyph-name="close" d="M581.74 449.001l393.011 391.955c16.105 18.759 15.024 46.723-2.486 64.187-17.516 17.464-45.551 18.544-64.358 2.479l-393.009-391.956-393.007 392.429c-18.59 18.54-48.729 18.54-67.318 0s-18.589-48.599 0-67.139l393.481-391.955-393.481-391.953c-13.529-11.56-19.422-29.702-15.256-46.973s17.687-30.754 35.005-34.913c17.318-4.153 35.509 1.724 47.095 15.218l393.481 391.953 393.009-391.953c18.807-16.065 46.842-14.985 64.358 2.48 17.51 17.465 18.591 45.426 2.486 64.188l-393.011 391.953z" />
<glyph unicode="&#xe905;" glyph-name="date" horiz-adv-x="1126" d="M290.076 686.934c18.85 0 34.133 15.282 34.133 34.133v204.8c0 18.851-15.283 34.133-34.133 34.133s-34.134-15.282-34.134-34.133v-204.8c0-18.851 15.283-34.133 34.134-34.133zM870.344 721.066c0-18.851-15.283-34.133-34.135-34.133s-34.135 15.282-34.135 34.133v204.8c0 18.851 15.283 34.133 34.135 34.133s34.135-15.282 34.135-34.133v-204.8zM733.809 823.466h-341.333v-68.266h341.333v68.266zM904.474 140.8v68.265h-68.265v-68.265h68.265zM631.409 209.065h68.265v-68.265h-68.265v68.265zM494.876 209.065h-68.267v-68.265h68.267v68.265zM221.809 209.065h68.267v-68.265h-68.267v68.265zM904.474 311.465v68.27h-68.265v-68.27h68.265zM631.409 379.735h68.265v-68.27h-68.265v68.27zM494.876 379.735h-68.267v-68.27h68.267v68.27zM221.809 379.735h68.267v-68.27h-68.267v68.27zM904.474 482.134v68.266h-68.265v-68.266h68.265zM631.409 550.4h68.265v-68.266h-68.265v68.266zM494.876 550.4h-68.267v-68.266h68.267v68.266zM221.809 550.4h68.267v-68.266h-68.267v68.266zM938.609 823.466h110.935c16.113-0.27 31.462-6.93 42.665-18.516 11.203-11.588 17.341-27.15 17.065-43.265v-763.902c0.276-16.118-5.862-31.677-17.065-43.264s-26.552-18.248-42.665-18.519h-972.802c-16.113 0.271-31.462 6.932-42.662 18.519-11.204 11.587-17.346 27.146-17.071 43.264v763.902c-0.275 16.115 5.867 31.677 17.071 43.265 11.2 11.587 26.55 18.247 42.662 18.516h110.934v-68.266h-102.4v-750.935h955.733v750.935h-102.4v68.266z" />
<glyph unicode="&#xe906;" glyph-name="f-doc" horiz-adv-x="803" d="M124.235 56.43v242.668h64.167c28.333 0 50.889-9.001 67.666-26.999 16.89-18 25.5-42.667 25.833-74.001v-39.334c0-31.889-8.443-56.944-25.333-75.166-16.778-18.111-39.944-27.168-69.5-27.168h-62.833zM173.235 258.265v-161.168h14.667c16.334 0 27.833 4.279 34.501 12.834 6.666 8.666 10.166 23.556 10.499 44.666v42.167c0 22.667-3.166 38.444-9.499 47.333-6.335 9.001-17.111 13.724-32.334 14.167h-17.833zM488.069 155.931c0-32.555-7.722-57.834-23.166-75.832-15.334-18-36.667-27.001-64-27.001-27.222 0-48.612 8.889-64.167 26.668-15.555 17.888-23.444 42.888-23.666 74.999v41.5c0 33.334 7.722 59.334 23.166 78.001 15.444 18.777 36.888 28.166 64.333 28.166 26.999 0 48.279-9.222 63.833-27.666 15.555-18.334 23.444-44.112 23.666-77.334v-41.5zM438.902 196.598c0 21.89-3.112 38.167-9.334 48.833-6.222 10.668-15.888 16.001-28.999 16.001-13.001 0-22.61-5.166-28.833-15.501-6.222-10.222-9.445-25.833-9.668-46.833v-43.167c0-21.223 3.166-36.888 9.501-47 6.333-10.001 16.111-15.001 29.333-15.001 12.778 0 22.277 4.889 28.499 14.667 6.222 9.889 9.389 25.166 9.501 45.833v42.167zM687.734 137.264c-1.221-27.666-8.999-48.61-23.333-62.833-14.332-14.222-34.555-21.333-60.667-21.333-27.443 0-48.499 9.001-63.165 27.001-14.557 18.111-21.835 43.887-21.835 77.332v40.834c0 33.334 7.558 59 22.669 77.001 15.111 18.111 36.111 27.166 63 27.166 26.443 0 46.5-7.389 60.165-22.167 13.778-14.778 21.612-36.001 23.5-63.667h-49.166c-0.444 17.111-3.11 28.889-7.999 35.334-4.779 6.556-13.611 9.832-26.5 9.832-13.111 0-22.389-4.61-27.835-13.834-5.443-9.11-8.333-24.166-8.666-45.166v-45.833c0-24.11 2.666-40.667 7.999-49.666 5.445-9.001 14.724-13.501 27.833-13.501 12.89 0 21.779 3.112 26.668 9.334 4.889 6.333 7.666 17.721 8.333 34.165h48.999zM797.232 661.147c3.787-3.957 5.907-9.234 5.907-14.726v-710.425l-803.139 0.004 0.001 1024c30.118 0 0 0 84.698-0.005l427.301-0.005 285.232-298.844zM507.245 902.664v-239.983h229.85l-229.85 239.983zM760.866-21.53v641.739h-295.892v299.634h-424.817v-943.686l720.709 2.313z" />
<glyph unicode="&#xe907;" glyph-name="f-docx" horiz-adv-x="803" d="M94.51 56.471v199.843h52.843c23.333 0 41.909-7.411 55.726-22.235 13.908-14.824 21-35.137 21.273-60.942v-32.391c0-26.263-6.953-46.895-20.861-61.902-13.818-14.916-32.896-22.373-57.236-22.373h-51.745zM134.863 222.686v-132.724h12.078c13.451 0 22.922 3.522 28.412 10.567 5.49 7.138 8.373 19.4 8.647 36.786v34.726c0 18.665-2.608 31.66-7.824 38.98-5.216 7.411-14.091 11.3-26.627 11.666h-14.686zM394.138 138.413c0-26.811-6.359-47.628-19.079-62.452-12.627-14.824-30.196-22.235-52.706-22.235-22.418 0-40.032 7.321-52.842 21.96-12.812 14.734-19.307 35.32-19.492 61.765v34.178c0 27.449 6.361 48.861 19.079 64.235 12.72 15.464 30.381 23.195 52.981 23.195 22.235 0 39.759-7.594 52.569-22.783 12.81-15.099 19.307-36.328 19.49-63.687v-34.175zM353.647 171.901c0 18.026-2.562 31.433-7.686 40.217s-13.085 13.175-23.883 13.175c-10.706 0-18.621-4.255-23.745-12.764-5.124-8.419-7.778-21.275-7.961-38.569v-35.549c0-17.478 2.608-30.381 7.825-38.707 5.214-8.234 13.268-12.352 24.156-12.352 10.523 0 18.346 4.026 23.47 12.077 5.124 8.144 7.732 20.727 7.825 37.745v34.726zM558.568 123.039c-1.006-22.783-7.411-40.032-19.215-51.744-11.804-11.714-28.457-17.569-49.961-17.569-22.6 0-39.94 7.411-52.019 22.235-11.987 14.914-17.98 36.143-17.98 63.687v33.627c0 27.451 6.222 48.588 18.667 63.412 12.445 14.914 29.738 22.371 51.883 22.371 21.777 0 38.294-6.084 49.548-18.253 11.346-12.172 17.798-29.648 19.354-52.433h-40.49c-0.365 14.093-2.562 23.791-6.588 29.1-3.935 5.397-11.21 8.098-21.823 8.098-10.798 0-18.438-3.799-22.922-11.393-4.484-7.503-6.863-19.902-7.138-37.195v-37.745c0-19.858 2.197-33.491 6.588-40.902 4.484-7.413 12.125-11.119 22.922-11.119 10.615 0 17.936 2.564 21.962 7.688 4.026 5.214 6.313 14.595 6.863 28.136h40.352zM645.999 187.687l26.903 68.626h46.255l-46.941-99.097 48.040-100.746h-46.805l-27.451 69.863-27.313-69.863h-46.805l48.040 100.746-47.078 99.097h46.255l26.901-68.626zM797.232 661.147c3.787-3.957 5.907-9.234 5.907-14.726v-710.425l-803.139 0.004 0.001 1024c30.118 0 0 0 84.698-0.005l427.301-0.005 285.232-298.844zM507.245 902.664v-239.983h229.85l-229.85 239.983zM760.866-21.53v641.739h-295.892v299.634h-424.817v-943.686l720.709 2.313z" />
<glyph unicode="&#xe908;" glyph-name="f-git" horiz-adv-x="803" d="M358.942 83.932c-9.445-10.222-21.056-17.944-34.834-23.166-13.667-5.112-28.666-7.668-45-7.668-27.889 0-49.556 8.612-65 25.835-15.445 17.332-23.389 42.5-23.834 75.499v43.667c0 33.445 7.278 59.167 21.834 77.167 14.665 18.111 35.999 27.166 64 27.166 26.333 0 46.166-6.499 59.498-19.5 13.445-13.001 21.223-33.388 23.335-61.167h-47.668c-1.333 15.444-4.556 25.945-9.666 31.501-5.112 5.666-13.111 8.499-24 8.499-13.224 0-22.833-4.833-28.835-14.501-5.999-9.666-9.11-25.054-9.332-46.166v-44c0-22.11 3.277-38.221 9.832-48.333 6.668-10.001 17.557-15.001 32.668-15.001 9.666 0 17.5 1.946 23.5 5.833l4.333 3.002v44.5h-34.332v36.999h83.5v-100.165zM444.775 56.43h-49.001v242.668h49.001v-242.668zM611.107 155.431h-76.166v-99.001h-49.001v242.668h134.335v-40.834h-85.333v-62.167h76.166v-40.667zM797.232 661.147c3.787-3.957 5.907-9.234 5.907-14.726v-710.425l-803.139 0.004 0.001 1024c30.118 0 0 0 84.698-0.005l427.301-0.005 285.232-298.844zM507.245 902.664v-239.983h229.85l-229.85 239.983zM760.866-21.53v641.739h-295.892v299.634h-424.817v-943.686l720.709 2.313z" />
<glyph unicode="&#xe909;" glyph-name="FileType---ZIP" horiz-adv-x="803" d="M238.098 97.137h100.001v-40.667h-157.334v29.499l99 172.333h-100v40.834h156.501v-28.833l-98.167-173.166zM419.43 56.471h-48.999v242.666h48.999v-242.666zM509.599 141.804v-85.333h-49.001v242.666h82.667c24 0 43.112-7.443 57.334-22.333 14.334-14.888 21.5-34.222 21.5-57.999 0-23.779-7.056-42.556-21.167-56.334s-33.668-20.667-58.667-20.667h-32.666zM509.599 182.637h33.666c9.334 0 16.557 3.056 21.667 9.166 5.112 6.112 7.668 15.001 7.668 26.668 0 12.109-2.612 21.721-7.835 28.833-5.222 7.222-12.222 10.889-21 10.999h-34.165v-75.666zM797.232 661.147c3.787-3.957 5.907-9.234 5.907-14.726v-710.425l-803.139 0.004 0.001 1024c30.118 0 0 0 84.698-0.005l427.301-0.005 285.232-298.844zM507.245 902.664v-239.983h229.85l-229.85 239.983zM760.866-21.53v641.739h-295.892v299.634h-424.817v-943.686l720.709 2.313z" />
<glyph unicode="&#xe90a;" glyph-name="f-jpg" horiz-adv-x="803" d="M220.216 299.098h48.999v-168c0-23.556-6.556-42.444-19.667-56.667-13.111-14.222-29.999-21.333-50.667-21.333-22.222 0-39.5 6.612-51.833 19.833-12.333 13.224-18.5 31.611-18.5 55.167h49.167c0-22.889 7.056-34.334 21.167-34.334 14.222 0 21.334 13.224 21.334 39.667v165.667zM356.715 141.764v-85.333h-48.999v242.668h82.667c24 0 43.11-7.445 57.332-22.333 14.334-14.89 21.5-34.222 21.5-58.001 0-23.777-7.056-42.556-21.167-56.334s-33.666-20.667-58.665-20.667h-32.668zM356.715 182.597h33.668c9.332 0 16.555 3.056 21.667 9.168 5.11 6.11 7.666 15.001 7.666 26.666 0 12.111-2.61 21.723-7.833 28.833-5.222 7.222-12.224 10.891-21 11.001h-34.167v-75.668zM667.050 83.932c-9.445-10.222-21.056-17.944-34.834-23.166-13.667-5.112-28.666-7.668-45-7.668-27.889 0-49.556 8.612-65 25.835-15.444 17.332-23.389 42.5-23.833 75.499v43.667c0 33.445 7.276 59.167 21.833 77.167 14.665 18.111 35.999 27.166 64 27.166 26.333 0 46.166-6.499 59.5-19.5 13.445-13.001 21.221-33.388 23.333-61.167h-47.668c-1.333 15.444-4.554 25.945-9.666 31.501-5.112 5.666-13.111 8.499-24 8.499-13.222 0-22.833-4.833-28.833-14.501-6.001-9.666-9.112-25.054-9.334-46.166v-44c0-22.11 3.279-38.221 9.834-48.333 6.666-10.001 17.555-15.001 32.666-15.001 9.668 0 17.5 1.946 23.5 5.833l4.333 3.002v44.5h-34.332v36.999h83.5v-100.165zM797.232 661.147c3.787-3.957 5.907-9.234 5.907-14.726v-710.425l-803.139 0.004 0.001 1024c30.118 0 0 0 84.698-0.005l427.301-0.005 285.232-298.844zM507.245 902.664v-239.983h229.85l-229.85 239.983zM760.866-21.53v641.739h-295.892v299.634h-424.817v-943.686l720.709 2.313z" />
<glyph unicode="&#xe90b;" glyph-name="f-mp3" horiz-adv-x="803" d="M172.078 299.098l45.833-175.5 45.666 175.5h64v-242.668h-49.166v65.669l4.5 101.165-48.499-166.834h-33.334l-48.499 166.834 4.5-101.165v-65.669h-49v242.668h64zM416.079 141.764v-85.333h-49.001v242.668h82.667c24 0 43.11-7.445 57.334-22.333 14.334-14.89 21.5-34.222 21.5-58.001 0-23.777-7.056-42.556-21.167-56.334s-33.668-20.667-58.667-20.667h-32.666zM416.079 182.597h33.666c9.334 0 16.557 3.056 21.667 9.168 5.112 6.11 7.668 15.001 7.668 26.666 0 12.111-2.612 21.723-7.835 28.833-5.222 7.222-12.222 10.891-21 11.001h-34.165v-75.668zM599.745 199.264h22.833c8.668 0 15.001 3 19 9.001 4.112 6.11 6.166 14.222 6.166 24.333 0 9.666-2.11 17.167-6.333 22.5-4.11 5.443-9.666 8.166-16.667 8.166-6.556 0-11.945-2.556-16.165-7.666-4.112-5.112-6.168-11.555-6.168-19.334h-47.166c0 12.665 2.889 24 8.666 33.999 5.889 10.111 14.057 18 24.502 23.668 10.555 5.666 22.221 8.499 34.999 8.499 22.333 0 39.834-6.166 52.501-18.5 12.665-12.332 19-29.222 19-50.666 0-11.001-2.889-21.223-8.668-30.668-5.666-9.332-13.165-16.498-22.5-21.5 11.445-4.889 19.944-12.222 25.5-22 5.668-9.778 8.501-21.333 8.501-34.665 0-21.556-6.889-38.834-20.667-51.834-13.667-12.999-31.668-19.5-54.001-19.5-20.777 0-37.667 6.389-50.666 19.167-12.888 12.888-19.334 29.778-19.334 50.668h47.166c0-8.668 2.279-15.944 6.835-21.833 4.554-5.889 10.332-8.835 17.332-8.835 8.112 0 14.501 3 19.167 9.001 4.779 5.999 7.168 13.999 7.168 24 0 23.887-9.278 35.888-27.835 35.999h-23.166v38zM797.232 661.147c3.787-3.957 5.907-9.234 5.907-14.726v-710.425l-803.139 0.004 0.001 1024c30.118 0 0 0 84.698-0.005l427.301-0.005 285.232-298.844zM507.245 902.664v-239.983h229.85l-229.85 239.983zM760.866-21.53v641.739h-295.892v299.634h-424.817v-943.686l720.709 2.313z" />
<glyph unicode="&#xe90c;" glyph-name="f-mp4" horiz-adv-x="803" d="M172.078 299.137l45.833-175.5 45.666 175.5h64v-242.666h-49.166v65.667l4.5 101.167-48.499-166.834h-33.334l-48.499 166.834 4.5-101.167v-65.667h-49v242.666h64zM416.079 141.804v-85.333h-49.001v242.666h82.667c24 0 43.11-7.443 57.334-22.333 14.334-14.888 21.5-34.222 21.5-57.999 0-23.779-7.056-42.556-21.167-56.334s-33.668-20.667-58.667-20.667h-32.666zM416.079 182.637h33.666c9.334 0 16.557 3.056 21.667 9.166 5.112 6.112 7.668 15.001 7.668 26.668 0 12.109-2.612 21.721-7.835 28.833-5.222 7.222-12.222 10.889-21 10.999h-34.165v-75.666zM682.078 148.137h20.667v-39.167h-20.667v-52.499h-47.166v52.499h-80.334l-2.166 30.501 82.334 159.666h47.333v-151zM598.245 148.137h36.667v81.167l-1-1.833-35.667-79.334zM797.232 661.147c3.787-3.957 5.907-9.234 5.907-14.726v-710.425l-803.139 0.004 0.001 1024c30.118 0 0 0 84.698-0.005l427.301-0.005 285.232-298.844zM507.245 902.664v-239.983h229.85l-229.85 239.983zM760.866-21.53v641.739h-295.892v299.634h-424.817v-943.686l720.709 2.313z" />
<glyph unicode="&#xe90d;" glyph-name="f-other" horiz-adv-x="803" d="M797.232 661.147c3.787-3.957 5.907-9.234 5.907-14.726v-710.425l-803.139 0.004 0.001 1024c30.118 0 0 0 84.698-0.005l427.301-0.005 285.232-298.844zM507.245 902.664v-239.983h229.85l-229.85 239.983zM760.866-21.53v641.739h-295.892v299.634h-424.817v-943.686l720.709 2.313z" />
<glyph unicode="&#xe90e;" horiz-adv-x="803" d="M195.196 141.804v-85.333h-49v242.666h82.666c24.002 0 43.112-7.443 57.334-22.333 14.334-14.888 21.5-34.222 21.5-57.999 0-23.779-7.056-42.556-21.167-56.334s-33.666-20.667-58.667-20.667h-32.666zM195.196 182.637h33.666c9.334 0 16.557 3.056 21.667 9.166 5.112 6.112 7.668 15.001 7.668 26.668 0 12.109-2.612 21.721-7.835 28.833-5.222 7.222-12.222 10.889-21 10.999h-34.166v-75.666z" />
<glyph unicode="&#xe90f;" horiz-adv-x="803" d="M340.53 56.471v242.666h64.167c28.333 0 50.889-8.999 67.666-26.999 16.888-18 25.5-42.667 25.833-73.999v-39.334c0-31.889-8.445-56.944-25.333-75.168-16.778-18.111-39.944-27.166-69.499-27.166h-62.833zM389.53 258.303v-161.166h14.667c16.332 0 27.833 4.277 34.499 12.834 6.668 8.666 10.168 23.554 10.501 44.666v42.167c0 22.667-3.166 38.444-9.501 47.333-6.333 8.999-17.111 13.722-32.332 14.165h-17.834z" />
<glyph unicode="&#xe910;" horiz-adv-x="803" d="M658.697 155.471h-76.168v-99.001h-48.999v242.666h134.333v-40.834h-85.333v-62.165h76.168v-40.667z" />
<glyph unicode="&#xe911;" horiz-adv-x="803" d="M797.232 661.147c3.787-3.957 5.907-9.234 5.907-14.726v-710.425l-803.139 0.004 0.001 1024c30.118 0 0 0 84.698-0.005l427.301-0.005 285.232-298.844zM507.245 902.664v-239.983h229.85l-229.85 239.983zM760.866-21.53v641.739h-295.892v299.634h-424.817v-943.686l720.709 2.313z" />
<glyph unicode="&#xe912;" horiz-adv-x="803" d="M530.205 493.391c-9.146-2.622-22.568-2.919-36.968-0.889-15.446 2.183-31.206 6.774-46.692 13.541 27.62 3.909 49.046 2.709 67.369-3.61 4.347-1.498 11.477-5.497 16.292-9.041zM376.111 518.034c-1.124-0.295-2.227-0.576-3.329-0.873-7.435-1.97-14.665-3.885-21.63-5.596l-9.397-2.319c-18.902-4.654-38.225-9.407-57.308-15.063 7.254 17.016 13.993 34.216 20.59 51.033 4.885 12.449 9.873 25.168 15.033 37.721 2.618-4.204 5.347-8.409 8.192-12.629 12.947-19.183 29.222-36.922 47.849-52.274zM328.035 709.893c1.229-20.994-3.431-41.189-10.264-60.563-8.411 23.96-12.334 50.411-1.813 71.768 2.697 5.475 4.909 8.403 6.341 9.931 2.211-3.331 5.128-10.766 5.736-21.137zM229.368 443.954c-4.73-8.228-9.553-15.93-14.503-23.199-11.937-17.496-31.456-36.23-41.485-36.23-0.985 0-2.181 0.151-3.924 1.946-1.126 1.148-1.305 1.97-1.251 3.088 0.336 6.431 9.099 17.89 21.794 28.511 11.522 9.642 24.547 18.203 39.369 25.883zM562.146 492.486c-1.532 21.428-38.617 35.175-38.984 35.304-14.336 4.941-29.909 7.345-47.606 7.345-18.95 0-39.376-2.668-65.61-8.63-23.343 16.097-43.512 36.246-58.575 58.555-6.652 9.852-12.633 19.693-17.848 29.302 12.728 29.602 24.186 61.428 22.108 97.073-1.681 28.582-14.93 47.781-32.951 47.781-12.358 0-23.006-8.903-31.66-26.489-15.438-31.342-11.38-71.443 12.055-119.292-8.443-19.281-16.284-39.271-23.873-58.629-9.445-24.066-19.177-48.891-30.144-72.507-30.76-11.838-56.026-26.194-77.086-43.819-13.797-11.527-30.425-29.144-31.378-47.536-0.461-8.662 2.588-16.607 8.794-22.97 6.59-6.76 14.876-10.318 23.983-10.326 30.081 0 59.028 40.199 64.515 48.259 11.053 16.203 21.396 34.278 31.535 55.125 25.532 8.973 52.742 15.671 79.111 22.149l9.443 2.335c7.098 1.757 14.477 3.694 22.044 5.71 8.013 2.106 16.251 4.289 24.624 6.363 27.080-16.749 56.198-27.676 84.598-31.682 23.921-3.385 45.168-1.424 59.545 5.869 12.945 6.554 13.663 16.667 13.358 20.711z" />
<glyph unicode="&#xe913;" glyph-name="f-png" horiz-adv-x="803" d="M168.529 141.764v-85.333h-49v242.668h82.667c24 0 43.11-7.445 57.334-22.333 14.332-14.89 21.5-34.222 21.5-58.001 0-23.777-7.056-42.556-21.167-56.334s-33.668-20.667-58.667-20.667h-32.667zM168.529 182.597h33.667c9.334 0 16.557 3.056 21.667 9.168 5.112 6.11 7.666 15.001 7.666 26.666 0 12.111-2.61 21.723-7.833 28.833-5.222 7.222-12.222 10.891-21 11.001h-34.166v-75.668zM483.529 56.43h-48.999l-71.666 159.168v-159.168h-49.001v242.668h49.001l71.833-159.334v159.334h48.833v-242.668zM687.863 83.932c-9.445-10.222-21.056-17.944-34.834-23.166-13.665-5.112-28.666-7.668-45-7.668-27.889 0-49.556 8.612-65 25.835-15.444 17.332-23.389 42.5-23.833 75.499v43.667c0 33.445 7.278 59.167 21.833 77.167 14.667 18.111 36.001 27.166 64 27.166 26.333 0 46.166-6.499 59.5-19.5 13.445-13.001 21.221-33.388 23.333-61.167h-47.666c-1.333 15.444-4.556 25.945-9.668 31.501-5.11 5.666-13.111 8.499-24 8.499-13.222 0-22.833-4.833-28.833-14.501-6.001-9.666-9.112-25.054-9.334-46.166v-44c0-22.11 3.279-38.221 9.834-48.333 6.666-10.001 17.555-15.001 32.666-15.001 9.668 0 17.5 1.946 23.5 5.833l4.335 3.002v44.5h-34.334v36.999h83.5v-100.165zM797.232 661.147c3.787-3.957 5.907-9.234 5.907-14.726v-710.425l-803.139 0.004 0.001 1024c30.118 0 0 0 84.698-0.005l427.301-0.005 285.232-298.844zM507.245 902.664v-239.983h229.85l-229.85 239.983zM760.866-21.53v641.739h-295.892v299.634h-424.817v-943.686l720.709 2.313z" />
<glyph unicode="&#xe914;" glyph-name="f-ppt" horiz-adv-x="803" d="M183.118 141.804v-85.333h-49v242.666h82.667c24 0 43.11-7.443 57.332-22.333 14.334-14.888 21.5-34.222 21.5-57.999 0-23.779-7.056-42.556-21.167-56.334s-33.666-20.667-58.665-20.667h-32.667zM183.118 182.637h33.667c9.332 0 16.555 3.056 21.667 9.166 5.11 6.112 7.666 15.001 7.666 26.668 0 12.109-2.61 21.721-7.833 28.833-5.222 7.222-12.222 10.889-21 10.999h-34.167v-75.666zM377.45 141.804v-85.333h-48.999v242.666h82.667c24 0 43.11-7.443 57.334-22.333 14.332-14.888 21.5-34.222 21.5-57.999 0-23.779-7.056-42.556-21.167-56.334s-33.668-20.667-58.667-20.667h-32.668zM377.45 182.637h33.668c9.332 0 16.555 3.056 21.667 9.166 5.11 6.112 7.666 15.001 7.666 26.668 0 12.109-2.61 21.721-7.833 28.833-5.222 7.222-12.222 10.889-21 10.999h-34.167v-75.666zM679.95 258.303h-59.998v-201.832h-49.168v201.832h-58.998v40.834h168.165v-40.834zM797.232 661.147c3.787-3.957 5.907-9.234 5.907-14.726v-710.425l-803.139 0.004 0.001 1024c30.118 0 0 0 84.698-0.005l427.301-0.005 285.232-298.844zM507.245 902.664v-239.983h229.85l-229.85 239.983zM760.866-21.53v641.739h-295.892v299.634h-424.817v-943.686l720.709 2.313z" />
<glyph unicode="&#xe915;" glyph-name="f-rar" horiz-adv-x="803" d="M203.529 145.137h-24.333v-88.666h-49v242.666h78.166c24.556 0 43.5-6.389 56.834-19.167 13.445-12.665 20.167-30.722 20.167-54.166 0-32.222-11.722-54.778-35.167-67.666l42.5-99.334v-2.333h-52.666l-36.501 88.666zM179.196 185.97h27.833c9.778 0 17.111 3.223 22 9.668 4.889 6.554 7.335 15.278 7.335 26.166 0 24.333-9.501 36.499-28.501 36.499h-28.666v-72.333zM434.863 106.137h-66.833l-13.001-49.666h-51.832l75.832 242.666h44.835l76.332-242.666h-52.332l-13.001 49.666zM378.695 146.97h45.335l-22.669 86.5-22.667-86.5zM596.53 145.137h-24.335v-88.666h-48.999v242.666h78.167c24.556 0 43.5-6.389 56.832-19.167 13.445-12.665 20.167-30.722 20.167-54.166 0-32.222-11.722-54.778-35.165-67.666l42.5-99.334v-2.333h-52.668l-36.499 88.666zM572.195 185.97h27.835c9.778 0 17.111 3.223 22 9.668 4.889 6.554 7.333 15.278 7.333 26.166 0 24.333-9.499 36.499-28.499 36.499h-28.668v-72.333zM797.232 661.147c3.787-3.957 5.907-9.234 5.907-14.726v-710.425l-803.139 0.004 0.001 1024c30.118 0 0 0 84.698-0.005l427.301-0.005 285.232-298.844zM507.245 902.664v-239.983h229.85l-229.85 239.983zM760.866-21.53v641.739h-295.892v299.634h-424.817v-943.686l720.709 2.313z" />
<glyph unicode="&#xe916;" glyph-name="f-small" horiz-adv-x="788" d="M779.002 601.991c5.574-5.785 8.691-13.499 8.691-21.524v-520.421c0-68.395-55.898-124.046-124.604-124.046h-538.484c-68.706 0-124.604 55.682-124.604 124.117v775.549c0 68.557 55.898 124.334 124.604 124.334h298.849c8.45 0 16.542-3.436 22.405-9.514l333.143-348.495zM690.534 604.232l-259.375 271.975v-271.975h259.375zM663.085-1.922c34.417 0 62.418 27.798 62.418 61.968v482.111h-325.441c-17.169 0-31.093 13.896-31.093 31.038v324.729h-244.366c-34.418 0-62.419-27.927-62.419-62.258v-775.549c0-34.209 28.001-62.039 62.419-62.039h538.481z" />
<glyph unicode="&#xe917;" glyph-name="f-txt" horiz-adv-x="803" d="M297.422 258.303h-60v-201.832h-49.166v201.832h-59v40.834h168.167v-40.834zM401.589 215.803l32.666 83.334h56.167l-57.001-120.332 58.334-122.334h-56.834l-33.332 84.833-33.168-84.833h-56.832l58.332 122.334-57.165 120.332h56.165l32.668-83.334zM673.756 258.303h-60v-201.832h-49.168v201.832h-58.998v40.834h168.167v-40.834zM797.232 661.147c3.787-3.957 5.907-9.234 5.907-14.726v-710.425l-803.139 0.004 0.001 1024c30.118 0 0 0 84.698-0.005l427.301-0.005 285.232-298.844zM507.245 902.664v-239.983h229.85l-229.85 239.983zM760.866-21.53v641.739h-295.892v299.634h-424.817v-943.686l720.709 2.313z" />
<glyph unicode="&#xe918;" glyph-name="f-xls" horiz-adv-x="803" d="M227.726 215.765l32.668 83.334h56.165l-57.001-120.334 58.334-122.334h-56.832l-33.334 84.833-33.167-84.833h-56.833l58.333 122.334-57.167 120.334h56.167l32.667-83.334zM391.726 97.097h86v-40.667h-135.001v242.668h49.001v-202.001zM608.559 120.097c0 9.891-2.556 17.334-7.668 22.333-5 5.112-14.165 10.391-27.499 15.834-24.333 9.222-41.833 20-52.499 32.334-10.668 12.445-16.001 27.11-16.001 44 0 20.444 7.222 36.834 21.667 49.166 14.555 12.445 33.001 18.667 55.334 18.667 14.888 0 28.166-3.166 39.832-9.499 11.668-6.222 20.613-15.057 26.835-26.502 6.333-11.445 9.499-24.443 9.499-39h-48.833c0 11.334-2.446 19.946-7.333 25.835-4.779 5.999-11.724 8.999-20.833 8.999-8.557 0-15.223-2.556-20-7.666-4.779-5-7.168-11.778-7.168-20.333 0-6.668 2.666-12.722 8.001-18.167 5.333-5.333 14.778-10.889 28.333-16.667 23.666-8.555 40.834-19.054 51.499-31.499 10.778-12.445 16.167-28.278 16.167-47.502 0-21.11-6.722-37.611-20.167-49.499s-31.722-17.834-54.832-17.834c-15.667 0-29.945 3.223-42.833 9.668-12.89 6.443-23 15.667-30.334 27.666-7.222 12.001-10.832 26.166-10.832 42.5h49.166c0-14.001 2.723-24.166 8.166-30.499 5.445-6.335 14.334-9.501 26.668-9.501 17.111 0 25.666 9.055 25.666 27.166zM797.232 661.147c3.787-3.957 5.907-9.234 5.907-14.726v-710.425l-803.139 0.004 0.001 1024c30.118 0 0 0 84.698-0.005l427.301-0.005 285.232-298.844zM507.245 902.664v-239.983h229.85l-229.85 239.983zM760.866-21.53v641.739h-295.892v299.634h-424.817v-943.686l720.709 2.313z" />
<glyph unicode="&#xe919;" glyph-name="f-xlsx" horiz-adv-x="803" d="M179.765 187.687l26.903 68.626h46.255l-46.941-99.097 48.040-100.746h-46.805l-27.451 69.863-27.314-69.863h-46.804l48.039 100.746-47.079 99.097h46.255l26.902-68.626zM314.824 89.961h70.823v-33.491h-111.176v199.843h40.354v-166.352zM493.391 108.901c0 8.144-2.104 14.276-6.313 18.392-4.118 4.21-11.668 8.557-22.646 13.041-20.040 7.594-34.453 16.47-43.237 26.626-8.784 10.248-13.175 22.327-13.175 36.236 0 16.838 5.947 30.334 17.844 40.49 11.987 10.248 27.176 15.372 45.568 15.372 12.262 0 23.197-2.606 32.804-7.823 9.608-5.124 16.974-12.398 22.098-21.823 5.214-9.425 7.823-20.131 7.823-32.117h-40.215c0 9.332-2.014 16.424-6.040 21.273-3.935 4.941-9.654 7.413-17.157 7.413-7.046 0-12.535-2.104-16.47-6.315-3.935-4.116-5.901-9.698-5.901-16.745 0-5.489 2.195-10.477 6.588-14.96 4.391-4.391 12.17-8.967 23.333-13.726 19.49-7.046 33.627-15.691 42.412-25.941 8.877-10.248 13.314-23.287 13.314-39.117 0-17.386-5.536-30.973-16.609-40.765-11.071-9.79-26.124-14.685-45.156-14.685-12.902 0-24.66 2.652-35.274 7.961-10.615 5.307-18.942 12.9-24.982 22.783-5.947 9.883-8.921 21.55-8.921 35.001h40.49c0-11.529 2.243-19.902 6.726-25.118 4.484-5.214 11.802-7.823 21.96-7.823 14.091 0 21.137 7.457 21.137 22.371zM623.373 187.687l26.901 68.626h46.255l-46.941-99.097 48.040-100.746h-46.803l-27.451 69.863-27.315-69.863h-46.803l48.038 100.746-47.078 99.097h46.255l26.903-68.626zM797.232 661.147c3.787-3.957 5.907-9.234 5.907-14.726v-710.425l-803.139 0.004 0.001 1024c30.118 0 0 0 84.698-0.005l427.301-0.005 285.232-298.844zM507.245 902.664v-239.983h229.85l-229.85 239.983zM760.866-21.53v641.739h-295.892v299.634h-424.817v-943.686l720.709 2.313z" />
<glyph unicode="&#xe91a;" glyph-name="link" horiz-adv-x="967" d="M757.953 442.612c-20.969 0-37.968-17.196-37.968-38.412v-291.367c0-32.375-26.032-58.709-58.032-58.709h-527.988c-31.997 0-58.031 26.334-58.031 58.709v534.172c0 32.372 26.033 58.71 58.031 58.71h287.994c20.968 0 37.968 17.199 37.968 38.412s-17 38.413-37.968 38.413h-287.994c-73.868 0-133.965-60.802-133.965-135.534v-534.172c0-74.735 60.097-135.532 133.965-135.532h527.988c73.87 0 133.968 60.797 133.968 135.532v291.367c0 21.216-16.998 38.412-37.968 38.412zM901.945 928.222h-287.994c-20.969 0-37.968-17.198-37.968-38.412s16.998-38.412 37.968-38.412h250.027v-252.955c0-21.214 16.998-38.413 37.968-38.413s37.968 17.199 37.968 38.413v291.367c0 21.214-16.998 38.412-37.968 38.412zM928.796 916.971c-14.825 14.999-38.866 14.999-53.697 0l-527.986-534.171c-14.828-15.002-14.828-39.322 0-54.323 7.413-7.498 17.132-11.253 26.848-11.253 9.718 0 19.436 3.755 26.848 11.253l527.987 534.171c14.825 15.001 14.825 39.322 0 54.323z" />
<glyph unicode="&#xe91b;" glyph-name="minus" horiz-adv-x="7168" d="M0-64v1024h7168v-1024h-7168z" />
<glyph unicode="&#xe91c;" glyph-name="plus" d="M438.857 960v-438.857h-438.857v-146.286h438.857v-438.857h146.286v438.857h438.857v146.286h-438.857v438.857h-146.286z" />
<glyph unicode="&#xe91d;" glyph-name="s_c" horiz-adv-x="1002" d="M501.322 894.145c35.426 20.681 78.778 18.661 111.84-3.674 5.721-3.865 11.144-8.345 16.173-13.434 4.316-4.363 8.262-9.095 11.783-14.129 1.856-2.654 3.597-5.394 5.216-8.213 5.991-10.435 19.308-14.037 29.744-8.045 10.434 5.992 14.035 19.308 8.044 29.743-2.264 3.942-4.7 7.775-7.297 11.491-4.928 7.044-10.445 13.663-16.495 19.78-7.055 7.14-14.691 13.453-22.774 18.914-46.716 31.558-108.082 34.457-158.201 5.198-58.73-34.285-87.208-104.046-69.758-170.025 5.015-18.96 13.473-36.285 24.593-51.349l-242.292-245.128-46.207 45.121c-8.609 8.408-22.403 8.242-30.81-0.366s-8.243-22.404 0.366-30.809l46.019-44.938-60.433-61.139-50.349 45.758c-8.904 8.094-22.684 7.436-30.777-1.468s-7.435-22.685 1.47-30.777l65.81-59.812c8.642-7.854 21.94-7.497 30.149 0.808l89.599 90.648c0.359 0.322 0.709 0.658 1.051 1.007 0.278 0.285 0.547 0.577 0.807 0.874l256.267 259.268c25.16-18.927 56.231-29.923 89.382-29.938 12.033-0.007 21.792 9.743 21.798 21.776 0.004 12.033-9.745 21.792-21.779 21.798-47.891 0.022-90.053 32.6-102.539 79.809-12.495 47.252 7.981 96.955 49.601 121.252zM628.431 742.512v-224.723c-13.214-11.098-25.258-21.702-35.812-31.304l-277.079-252.392c-8.894-8.105-9.536-21.883-1.434-30.779s21.883-9.538 30.779-1.436l277.077 252.394c2.096 1.906 4.253 3.854 6.469 5.839v-144.972c0-12.033 9.754-21.787 21.787-21.787s21.787 9.754 21.787 21.787v144.859c2.129-1.989 4.205-3.909 6.212-5.734l277.332-252.392c8.898-8.098 22.678-7.449 30.777 1.449 8.1 8.9 7.451 22.678-1.449 30.779l-56.876 51.762v158.82c0 12.031-9.756 21.787-21.787 21.787-12.033 0-21.787-9.756-21.787-21.787v-119.165l-176.884 160.977c-4.756 4.327-9.933 9.227-15.685 14.669l-3.074 2.906c-5.238 4.95-10.854 10.238-16.778 15.658v250.266l-12.399 5.921c-43.407 20.726-64.447 30.748-96.672 44.814-11.029 4.813-23.87-0.225-28.685-11.253-4.813-11.028 0.227-23.87 11.253-28.684 28.313-12.357 47.688-21.469 82.929-38.28zM480.256 223.489c0 12.033-9.754 21.787-21.787 21.787s-21.787-9.754-21.787-21.787v-283.234h427.927v283.234c0 12.033-9.754 21.787-21.787 21.787s-21.787-9.754-21.787-21.787v-239.66h-340.778v239.66z" />
<glyph unicode="&#xe91e;" glyph-name="s_ga" horiz-adv-x="1001" d="M840.474 948.69c9.619 8.525 24.329 7.637 32.854-1.982l126.355-142.58-126.355-142.579c-8.525-9.621-23.235-10.508-32.854-1.983s-10.505 23.233-1.983 32.852l78.427 88.496h-702.387c-5.273 0-11.805-0.006-18.773-0.011h-0.183c-6.724-0.006-13.847-0.012-20.631-0.013 0.012-14.32 0.024-28.955 0.024-40.274v-710.413l86.745 78.673c9.521 8.634 24.239 7.917 32.873-1.603s7.917-24.239-1.603-32.873l-141.284-128.14-141.328 128.137c-9.522 8.632-10.243 23.35-1.609 32.873 8.633 9.521 23.351 10.242 32.873 1.608l86.789-78.687v710.424c0 11.742-0.013 27.042-0.025 41.875l-0.032 45.057 23.374-0.087c10.584-0.039 28.089-0.024 43.622-0.011h0.214c7.001 0.006 13.592 0.011 18.956 0.011h702.283l-78.322 88.378c-8.522 9.62-7.636 24.328 1.983 32.853zM968.564 64.545c12.851 0 23.273-10.419 23.273-23.273 0-4.806 0.044-10.54 0.095-16.81v-0.023c0.116-14.545 0.254-31.953-0.102-47.26l-0.531-22.73h-85.571c-12.854 0-23.273 10.419-23.273 23.273s10.419 23.273 23.273 23.273h39.787c-0.005 7.529-0.065 15.011-0.121 22.067-0.054 6.54-0.102 12.712-0.102 18.211 0 12.854 10.419 23.273 23.273 23.273zM717.182 0.91c-12.854 0-23.273-10.422-23.273-23.273 0-12.854 10.419-23.273 23.273-23.273h62.836c12.854 0 23.273 10.419 23.273 23.273 0 12.851-10.419 23.273-23.273 23.273h-62.836zM505.363-22.363c0 12.851 10.422 23.273 23.273 23.273h62.836c12.854 0 23.273-10.422 23.273-23.273 0-12.854-10.419-23.273-23.273-23.273h-62.836c-12.851 0-23.273 10.419-23.273 23.273zM340.182 0.91c-12.854 0-23.273-10.422-23.273-23.273 0-12.854 10.419-23.273 23.273-23.273h62.836c12.854 0 23.273 10.419 23.273 23.273 0 12.851-10.419 23.273-23.273 23.273h-62.836zM968.637 255.274c12.854 0 23.273-10.422 23.273-23.273v-63.553c0-12.851-10.419-23.273-23.273-23.273s-23.273 10.422-23.273 23.273v63.553c0 12.851 10.419 23.273 23.273 23.273zM991.909 422.728c0 12.851-10.419 23.273-23.273 23.273s-23.273-10.422-23.273-23.273v-63.553c0-12.854 10.419-23.273 23.273-23.273s23.273 10.419 23.273 23.273v63.553zM968.637 636.728c12.854 0 23.273-10.419 23.273-23.273v-63.555c0-12.851-10.419-23.273-23.273-23.273s-23.273 10.422-23.273 23.273v63.555c0 12.854 10.419 23.273 23.273 23.273zM664.667 576.286c54.070-76.984 119.222-179.277 145.18-235.148 0.1-0.212 0.195-0.424 0.286-0.64 12.863-30.017 9.972-62.641-3.43-87.969s-38.765-45.503-71.419-45.503h-66.283v-97.708c0-12.854-10.419-23.273-23.273-23.273s-23.273 10.419-23.273 23.273v97.708h-66.495c-32.656 0-58.028 20.189-71.433 45.517-13.407 25.33-16.305 57.963-3.407 87.978 0.088 0.207 0.182 0.412 0.277 0.617 25.954 55.859 88.946 155.162 145.187 235.155 4.359 6.202 11.464 9.891 19.044 9.889s14.683-3.693 19.039-9.896zM555.96 253.573h66.495v29.089h-59.958l0.021 23.294c0.014 13.845-0.035 34.63-0.063 45.254-0.035 12.854 10.356 23.301 23.208 23.336 12.854 0.037 23.303-10.354 23.338-23.208 0.014-5.453 0.035-13.603 0.049-22.13h13.405v52.247c0 12.854 10.419 23.273 23.273 23.273s23.273-10.419 23.273-23.273v-127.881h66.283c11.778 0 23.089 7.14 30.278 20.727 7.147 13.505 8.79 31.262 1.918 47.567-21.39 45.894-73.014 128.677-121.872 200.187-50.125-73.223-100.385-154.138-121.847-200.199-6.884-16.272-5.248-34.022 1.906-47.537 7.198-13.598 18.518-20.745 30.294-20.745z" />
<glyph unicode="&#xe91f;" glyph-name="s_h" horiz-adv-x="984" d="M496.945 945.511c-7.162 5.41-17.045 5.41-24.205 0l-464.764-351.085c-8.848-6.684-10.603-19.275-3.919-28.124s19.275-10.603 28.123-3.919l452.66 341.944 452.66-341.944c8.849-6.684 21.44-4.929 28.124 3.919s4.929 21.44-3.917 28.124l-464.763 351.085zM236.956 566.587c-80.094 0-144.014-66.713-144.014-147.745s63.92-147.747 144.014-147.747c80.095 0 144.017 66.715 144.017 147.747s-63.922 147.745-144.017 147.745zM133.098 418.842c0 59.986 47.056 107.588 103.857 107.588 56.804 0 103.86-47.602 103.86-107.588s-47.056-107.59-103.86-107.59c-56.801 0-103.857 47.604-103.857 107.59zM117.785 208.362c54.639 39.812 124.777 49.877 188.018 26.845 10.421-3.795 15.792-15.318 11.997-25.737-3.795-10.421-15.318-15.792-25.739-11.997-50.576 18.42-106.709 10.435-150.628-21.566-43.971-32.037-70.312-84.259-70.295-140.166 0.003-11.089-8.983-20.082-20.073-20.084-11.089-0.004-20.081 8.983-20.084 20.072-0.020 68.445 32.216 132.859 86.804 172.632zM851.898 208.362c-54.639 39.812-124.775 49.877-188.018 26.845-10.419-3.795-15.79-15.318-11.995-25.737 3.795-10.421 15.318-15.792 25.737-11.997 50.578 18.42 106.711 10.435 150.63-21.566 43.97-32.037 70.311-84.259 70.295-140.166-0.004-11.089 8.983-20.082 20.072-20.084 11.089-0.004 20.080 8.983 20.084 20.072 0.020 68.445-32.216 132.859-86.805 172.632zM588.627 418.842c0 81.033 63.922 147.745 144.015 147.745 79.302 0 142.746-65.395 143.996-145.338 0.096-0.789 0.145-1.594 0.147-2.409h-0.126c-0.002-81.033-63.922-147.745-144.017-147.745-80.093 0-144.015 66.715-144.015 147.747zM732.642 526.43c-56.802 0-103.858-47.602-103.858-107.588s47.056-107.59 103.858-107.59c56.804 0 103.86 47.604 103.86 107.59s-47.056 107.588-103.86 107.588zM371.843 195.385c0 63.406 50.050 115.83 113.032 115.83s113.030-52.425 113.030-115.83c0-51.447-32.951-95.664-79.025-110.514 60.29-10.346 113.548-47.869 144.504-103.071 5.425-9.672 1.982-21.91-7.69-27.333-9.672-5.425-21.91-1.982-27.335 7.69-29.762 53.069-84.526 85.45-143.46 85.45s-113.698-32.38-143.46-85.45c-5.425-9.672-17.663-13.115-27.335-7.69-9.672 5.423-13.115 17.661-7.69 27.333 30.953 55.192 84.197 92.71 144.472 103.067-46.084 14.842-79.043 59.065-79.043 110.518zM484.874 271.059c-39.689 0-72.875-33.314-72.875-75.674 0-42.357 33.186-75.672 72.875-75.672s72.873 33.314 72.873 75.672c0 42.359-33.184 75.674-72.873 75.674z" />
<glyph unicode="&#xe920;" glyph-name="s_l" horiz-adv-x="1045" d="M227.537 845.127l14.016 13.746c0.665 0.754 1.383 1.46 2.15 2.111l92.442 90.67c8.24 8.082 21.471 7.954 29.554-0.286 8.081-8.24 7.954-21.471-0.286-29.553l-57.162-56.066 643.434-2.48-56.744 56.523c-8.177 8.145-8.202 21.377-0.059 29.554 8.146 8.177 21.377 8.203 29.554 0.058l92.219-91.855c0.401-0.37 0.788-0.756 1.16-1.156l14.405-14.349-108.607-106.526c-8.24-8.081-21.473-7.954-29.554 0.286s-7.954 21.47 0.286 29.552l57.214 56.118-643.54 2.481 56.799-56.575c8.177-8.145 8.202-21.376 0.059-29.553-8.146-8.177-21.379-8.205-29.554-0.059l-92.522 92.157c-0.219 0.209-0.433 0.423-0.644 0.642l-14.62 14.562zM137.189 739.771l-14.413 14.582-14.413-14.582c-0.304-0.29-0.6-0.589-0.887-0.897l-91.644-92.718c-8.114-8.209-8.036-21.441 0.172-29.554 8.208-8.115 21.44-8.037 29.554 0.171l56.321 56.98v-643.488l-56.321 56.98c-8.113 8.209-21.345 8.286-29.554 0.173-8.209-8.115-8.286-21.345-0.172-29.554l91.352-92.423c0.473-0.529 0.972-1.034 1.496-1.513l14.096-14.261 14.096 14.261c0.524 0.479 1.023 0.984 1.496 1.513l91.353 92.423c8.113 8.209 8.035 21.439-0.173 29.554-8.209 8.113-21.44 8.035-29.553-0.173l-56.321-56.98v643.488l56.321-56.98c8.113-8.209 21.344-8.286 29.553-0.171 8.209 8.113 8.286 21.345 0.173 29.554l-91.645 92.718c-0.287 0.307-0.582 0.606-0.887 0.897zM774.069-40.431c-2.109-0.715-4.37-1.103-6.721-1.103-2.353 0-4.614 0.389-6.723 1.103h-232.112c-2.109-0.715-4.368-1.103-6.717-1.103-2.351 0-4.61 0.389-6.719 1.103h-199.732v662.701h662.704v-662.701h-203.981zM715.755 580.474h-80.98v-342.484h-174.368c-11.54 0-20.898 9.356-20.898 20.898s9.358 20.898 20.898 20.898h132.572v300.688h-235.838v-145.469h133.96c11.542 0 20.898-9.356 20.898-20.898s-9.356-20.898-20.898-20.898h-133.96v-268.735h185.553v-123.11h203.755v257.477c0 11.542 9.356 20.898 20.898 20.898 11.54 0 20.898-9.356 20.898-20.898v-72.163h148.008v237.631h-220.499v156.164zM788.246 144.883v-143.519h148.008v143.519h-148.008zM757.551 580.474v-114.368h178.703v114.368h-178.703zM500.899 1.365v81.314h-143.757v-81.314h143.757z" />
<glyph unicode="&#xe921;" glyph-name="s_nl" d="M947.926 936.799l-4.613 16.712-28.294-0.009c-4.333 0.001-8.538 0.002-12.716-0.002h-780.618c-3.364 0.001-6.745-0.002-10.219-0.005-4.864-0.004-9.917-0.009-15.363-0.004l-18.471 0.016-3.814-18.073c-1.189-5.635-2.431-11.061-3.605-16.19-0.707-3.087-1.389-6.071-2.021-8.924l-58.948-268.479v-2.469c0-65.957 52.92-119.881 118.756-119.881 39.554 0 74.446 19.465 96 49.307 21.555-29.842 56.446-49.307 96-49.307s74.445 19.465 95.999 49.307c21.556-29.842 56.447-49.307 96.001-49.307s74.445 19.465 96.001 49.307c21.554-29.842 56.445-49.307 95.999-49.307s74.445 19.465 95.999 49.307c21.556-29.842 56.447-49.307 96.001-49.307 65.836 0 118.757 53.924 118.757 119.881v2.469l-58.98 268.432c-1.058 4.822-2.76 10.277-4.164 14.682l-0.951 2.972c-1.129 3.521-2.059 6.417-2.735 8.872zM246.757 639.372h-45.512c0-41.324-33.042-74.37-73.244-74.37-39.45 0-72.005 31.821-73.21 72.058l57.843 263.448c0.469 2.12 1.052 4.676 1.693 7.478l794.913 0.006c0.96-3.103 1.673-5.604 2.082-7.47l57.888-263.465c-1.206-40.236-33.76-72.055-73.209-72.055-40.202 0-73.246 33.046-73.246 74.37h-45.511c0-41.324-33.041-74.37-73.243-74.37s-73.243 33.046-73.243 74.37h-45.511c0-41.324-33.043-74.37-73.246-74.37s-73.246 33.046-73.246 74.37h-45.511c0-41.324-33.041-74.37-73.243-74.37s-73.243 33.046-73.243 74.37zM106.933 494.667c-12.568 0-22.756-10.188-22.756-22.756v-495.944c0-12.568 10.188-22.756 22.756-22.756h160.001c12.568 0 22.756 10.188 22.756 22.756s-10.188 22.756-22.756 22.756h-137.245v473.188c0 12.568-10.188 22.756-22.756 22.756zM950.754 471.912c0 12.568-10.188 22.756-22.756 22.756-12.566 0-22.756-10.188-22.756-22.756v-473.188h-137.243c-12.568 0-22.756-10.188-22.756-22.756s10.188-22.756 22.756-22.756h159.999c12.568 0 22.756 10.188 22.756 22.756v495.944zM493.252 419.642c7.473 0.093 14.516-3.491 18.842-9.587 25.488-35.929 51.471-78.263 63.188-101.87 26.558-4.069 91.379-20.478 116.54-28.986 6.681-2.262 11.938-7.493 14.229-14.163 2.291-6.672 1.361-14.029-2.521-19.918-6.833-10.365-22.191-29.584-37.305-47.598-14.802-17.645-30.834-35.87-40.525-45.511 3.939-23.975 5.8-63.429 7.928-108.496l0.503-10.636c0.371-7.776-3.261-15.201-9.623-19.684-6.365-4.483-14.579-5.402-21.777-2.437-8.322 3.429-19.736 7.851-32.408 12.761-7.455 2.888-15.344 5.944-23.295 9.064-20.1 7.892-41.156 16.418-53.471 22.801-23.841-12.404-82.027-35.223-110.371-45.079-6.959-2.419-14.657-1.322-20.66 2.947-6.005 4.269-9.571 11.18-9.571 18.546 0 29.557 4.128 93.914 8.422 120.247-18.98 18.883-59.014 67.145-77.216 92.237-4.201 5.791-5.434 13.223-3.327 20.061 2.107 6.84 7.309 12.288 14.040 14.711 37.217 13.394 91.202 25.272 116.959 29.138 11.787 23.709 38.143 64.721 62.824 101.401 4.173 6.201 11.123 9.958 18.598 10.049zM452.28 286.324l-0.075-0.155c-6.353-12.725-18.514-21.638-32.686-23.704-16.885-2.467-49.355-9.264-78.987-17.585 18.785-23.47 42.066-50.683 53.617-62.018l0.023-0.020c10.131-9.965 14.691-24.26 12.322-38.207-2.644-15.549-5.48-51.009-6.947-80.659 27.691 10.645 59.747 23.873 73.748 31.287l0.050 0.025c12.704 6.686 27.86 6.686 40.562 0l0.052-0.025c9.421-4.988 28.433-12.789 49.771-21.167 7.38-2.897 14.989-5.844 22.339-8.693l0.988-0.382c-1.745 35.18-3.457 62.71-6.337 79.601l-0.011 0.077c-2.328 13.947 2.26 28.219 12.397 38.166 7.862 7.712 23.126 24.942 38.327 43.058 5.325 6.349 10.458 12.586 15.103 18.348-11.546 3.118-24.319 6.369-36.441 9.275-12.497 2.997-44.118 10.22-53.168 11.951-4.517 1.932-8.661 4.613-12.263 7.91-3.928 3.595-7.214 7.923-9.639 12.814l-0.048 0.096c-3.104 6.331-7.641 14.632-13.171 24.125-1.88 3.227-3.873 6.59-5.964 10.060-4.271 7.088-8.95 14.625-13.888 22.351-2.624 4.105-5.323 8.265-8.071 12.438-1.165-1.782-2.319-3.554-3.461-5.318-16.757-25.841-31.159-49.4-38.141-63.647z" />
<glyph unicode="&#xe922;" glyph-name="s_p" horiz-adv-x="1045" d="M668.917 829.917c-11.782 0-21.333-9.551-21.333-21.333v-295.869c0-11.782 9.551-21.333 21.333-21.333s21.333 9.551 21.333 21.333v105.468h62.221c58.163 0 104.89 47.633 104.89 105.867s-46.726 105.868-104.89 105.868h-83.554zM752.471 660.849h-62.221v126.401h62.221c34.131 0 62.223-28.061 62.223-63.201s-28.092-63.2-62.223-63.2zM438.667 660.681c0 163.28 130.897 296.069 292.89 296.069 161.99 0 292.887-132.789 292.887-296.069s-130.897-296.068-292.887-296.068c-161.993 0-292.89 132.789-292.89 296.068zM731.556 914.083c-137.961 0-250.223-113.217-250.223-253.403 0-140.183 112.262-253.402 250.223-253.402s250.221 113.218 250.221 253.402c0 140.186-112.26 253.403-250.221 253.403zM223.573 534.084h171.774c11.782 0 21.333-9.553 21.333-21.333 0-11.782-9.551-21.333-21.333-21.333h-171.465l-66.671-168.668h604.17l83.738-84.719c7.866-7.977 12.239-18.731 12.241-29.892v-139.191c0-23.072-18.436-42.223-41.777-42.464v-42.050c0-23.219-18.671-42.466-42.223-42.466h-83.556c-23.552 0-42.221 19.247-42.221 42.466v42.048h-416.917v-42.048c0-23.219-18.67-42.466-42.222-42.466h-83.555c-23.552 0-42.222 19.247-42.222 42.466v42.050c-23.329 0.256-41.75 19.401-41.75 42.464v139.187c0.002 11.162 4.377 21.92 12.242 29.897l74.467 75.339 76.671 193.965c6.362 16.060 21.855 26.771 39.277 26.75zM223.883 491.418l0.081 0.205-0.023-0.038c-0.019-0.021-0.043-0.045-0.075-0.068-0.034-0.023-0.081-0.047-0.145-0.068-0.053-0.017-0.111-0.026-0.164-0.030h0.326zM230.251 110.999h-166.667v-41.852h19.519c0.298 0.013 0.597 0.019 0.898 0.019s0.6-0.006 0.898-0.019h123.537c0.298 0.013 0.597 0.019 0.898 0.019l0.441-0.004 0.457-0.015h457.788c0.297 0.013 0.597 0.019 0.898 0.019s0.599-0.006 0.898-0.019h123.537c0.297 0.013 0.597 0.019 0.898 0.019s0.599-0.006 0.898-0.019h19.546v41.852h-166.694c-11.782 0-21.333 9.551-21.333 21.333s9.551 21.333 21.333 21.333h166.694v54.453l-71.132 71.964h-608.848l-71.132-71.964v-54.453h166.667c11.782 0 21.333-9.551 21.333-21.333s-9.551-21.333-21.333-21.333zM105.333-15.366h82.667v41.847h-82.667v-41.847zM772.917 26.481h-82.667v-41.847h82.667v41.847z" />
</font>
</defs>
</svg>
