<svg width="122" height="621" fill="none" xmlns="http://www.w3.org/2000/svg"><path d="M25.247 5.463V0h13.486v13.657h-5.292V5.463h-8.194zM.152 13.828V.17H13.64v5.292H5.444v8.365H.152zm25.095 17.583h8.194v-8.365h5.292v13.657H25.247v-5.292zm-11.437 0v5.292H.322V23.046h5.292v8.365h8.194zM.152 172.931v-13.487l13.487-.17v5.292H5.444v8.365H.152zm33.289-8.195h-8.194v-5.292h13.486v13.658h-5.292v-8.366zm-8.194 25.778h8.194v-8.365h5.292v13.657H25.247v-5.292zm-11.437 0v5.292H.322v-13.657h5.292v8.365h8.194zM.152 279.113v-13.657H13.64v5.292H5.444v8.365H.152zm33.289-8.365h-8.194v-5.292h13.486v13.657h-5.292v-8.365zm-8.194 25.948h8.194v-8.364h5.292v13.656H25.247v-5.292zm-11.608 5.292H.152v-13.486h5.292v8.194h8.195v5.292zM78.74 5.463V0h13.485v13.657h-5.292V5.463H78.74zM53.645.17v13.658h5.292V5.463h8.194V.17H53.645zm33.288 31.241H78.74v5.292h13.486V23.046h-5.292v8.365zm-19.631 5.292v-5.292h-8.195v-8.365h-5.292v13.657h13.487zM53.645 53.262v13.657h5.292v-8.365h8.194v-5.292H53.645zm25.095 5.292h8.193v8.365h5.292V53.262H78.74v5.292zm8.193 25.948H78.74v5.292h13.486V76.138h-5.292v8.364zm-33.288 5.292H67.13v-5.292h-8.194v-8.364h-5.292v13.656zm0 16.56v13.656h5.292v-8.364h8.194v-5.292H53.645zm25.095 5.292h8.193v8.364h5.292v-13.656H78.74v5.292zm8.193 25.777H78.74v5.292h13.486v-13.657h-5.292v8.365zm-33.288 5.292H67.13v-5.292h-8.194v-8.365h-5.292v13.657zm0 16.729v13.487h5.292v-8.365h8.194v-5.292l-13.486.17zm25.095 5.292h8.193v8.366h5.292v-13.658H78.74v5.292zm8.193 25.778H78.74v5.292h13.486v-13.657h-5.292v8.365zm-19.631 5.292v-5.292h-8.195v-8.365h-5.292v13.657h13.487zm-13.657 69.65v13.657h5.292v-8.365h8.194v-5.292H53.645zm25.095 5.292h8.193v8.365h5.292v-13.657H78.74v5.292zm8.193 25.948H78.74v5.292h13.486v-13.656h-5.292v8.364zm-33.288 5.292H67.13v-5.292h-8.194v-8.194h-5.292v13.486zM108.152.17v13.658h5.292V5.463h8.195V.17h-13.487zm13.657 36.533v-5.292h-8.194v-8.365h-5.292v13.657h13.486zm-13.657 16.559v13.657h5.292v-8.365h8.195v-5.292h-13.487zm0 36.532h13.487v-5.292h-8.195v-8.364h-5.292v13.656zm0 16.56v13.656h5.292v-8.364h8.195v-5.292h-13.487zm0 36.361h13.487v-5.292h-8.195v-8.365h-5.292v13.657zm0 16.729v13.487h5.292v-8.365h8.195v-5.292l-13.487.17zm13.657 36.362v-5.292h-8.194v-8.365h-5.292v13.657h13.486zm-13.657 16.559v13.657h5.292v-8.365h8.195v-5.292h-13.487zm13.657 36.532v-5.292h-8.194v-8.365h-5.292v13.657h13.486zm-13.657 16.559v13.657h5.292v-8.365h8.195v-5.292h-13.487zm0 36.532h13.487v-5.292h-8.195v-8.194h-5.292v13.486zm0 16.559v13.657h5.292v-8.365h8.195v-5.292h-13.487zm5.292 22.876h-5.292v13.657h13.487v-5.292h-8.195v-8.365zM.152 544.103v-13.487l13.487-.17v5.292H5.444v8.365H.152zm33.289-8.195h-8.194v-5.292h13.486v13.657h-5.292v-8.365zm-8.194 25.778h8.194v-8.365h5.292v13.657H25.247v-5.292zm-11.437 0v5.292H.322v-13.657h5.292v8.365h8.194zm64.93-185.051v-5.463h13.485v13.657h-5.292v-8.194H78.74zm-25.095-5.292V385h5.292v-8.365h8.194v-5.292H53.645zm33.288 31.24H78.74v5.292h13.486v-13.657h-5.292v8.365zm-19.631 5.292v-5.292h-8.195v-8.365h-5.292v13.657h13.487zm-13.657 69.65v13.657h5.292v-8.365h8.194v-5.292H53.645zm25.095 5.292h8.193v8.365h5.292v-13.657H78.74v5.292zm8.193 25.778H78.74v5.292h13.486v-13.658h-5.292v8.366zm-33.288 5.292H67.13v-5.292h-8.194v-8.366h-5.292v13.658zm0 16.729v13.487h5.292v-8.365h8.194v-5.292l-13.486.17zm25.095 5.292h8.193v8.365h5.292v-13.657H78.74v5.292zm8.193 25.778H78.74v5.292h13.486v-13.657h-5.292v8.365zm-19.631 5.292v-5.292h-8.195v-8.365h-5.292v13.657h13.487zm40.85-195.635V385h5.292v-8.365h8.195v-5.292h-13.487zm13.657 36.532v-5.292h-8.194v-8.365h-5.292v13.657h13.486zm-13.657 16.559v13.657h5.292v-8.365h8.195v-5.292h-13.487zm0 36.532h13.487v-5.292h-8.195v-8.364h-5.292v13.656zm0 16.559v13.657h5.292v-8.365h8.195v-5.292h-13.487zm0 36.362h13.487v-5.292h-8.195v-8.366h-5.292v13.658zm0 16.729v13.487h5.292v-8.365h8.195v-5.292l-13.487.17zm13.657 36.362v-5.292h-8.194v-8.365h-5.292v13.657h13.486zm-13.657 16.559v13.657h5.292v-8.365h8.195v-5.292h-13.487zm13.657 36.532v-5.292h-8.194v-8.365h-5.292v13.657h13.486z" fill="#BF8468" fill-opacity=".46"/></svg>