<svg width="1680" height="250" fill="none" xmlns="http://www.w3.org/2000/svg"><path d="M182.579.57h-13.486v13.657h5.292V5.862h8.194V.57zm19.802 5.292h-8.194V.57h13.486v13.657h-5.292V5.862zm-8.023 25.948h8.194v-8.364h5.292v13.656h-13.486v-5.291zm-25.265 5.292V23.447h5.292v8.364h8.194v5.293h-13.486zm0 30.216V53.662h13.486v5.292h-8.194v8.364h-5.292zm33.288-8.364h-8.194V53.49h13.486v13.657h-5.292v-8.194zm-8.023 25.948h8.194v-8.365h5.292v13.657h-13.486v-5.292zm-25.265 5.292V76.537h5.292v8.365h8.194v5.292h-13.486zm0 30.216v-13.657h13.486v5.292h-8.194v8.365h-5.292zm33.288-8.365h-8.194v-5.292h13.486v13.657h-5.292v-8.365zm-8.023 25.948h8.194v-8.365h5.292v13.657h-13.486v-5.292zm-25.265 5.292v-13.657h5.292v8.365h8.194v5.292h-13.486zm0 30.216v-13.657h13.486v5.292h-8.194v8.365h-5.292zm33.288-8.365h-8.194v-5.292h13.486v13.657h-5.292v-8.365zm-8.023 25.778h8.194v-8.366h5.292v13.658h-13.486v-5.292zm-25.265 5.462v-13.657h5.292v8.365h8.194v5.292h-13.486zM347.827 58.954h-8.194v8.364h-5.292V53.662h13.486v5.292zm19.803 0h-8.194V53.49h13.486v13.657h-5.292v-8.194zm-8.194 25.948h8.194v-8.365h5.292v13.657h-13.486v-5.292zm-25.095-8.365h5.292v8.365h8.194v5.292h-13.486V76.537zm-49.677 43.702h-5.292v-13.657h13.486v5.292h-8.194v8.365zm33.289 0h-5.292v-8.365h-8.194v-5.292h13.486v13.657zm0 9.389v13.657h-13.486v-5.292h8.194v-8.365h5.292zm-38.581 13.657v-13.657h5.292v8.365h8.194v5.292h-13.486zm68.455-31.24h-8.194v8.365h-5.292v-13.657h13.486v5.292zm19.803 0h-8.194v-5.292h13.486v13.657h-5.292v-8.365zm-8.194 25.948h8.194v-8.365h5.292v13.657h-13.486v-5.292zm-25.095-8.365h5.292v8.365h8.194v5.292h-13.486v-13.657zm-49.677 43.702h-5.292v-13.657h13.486v5.292h-8.194v8.365zm33.289-13.657v13.657h-5.292v-8.365h-8.194v-5.292h13.486zm0 22.875v13.658h-13.486v-5.292h8.194v-8.366h5.292zm-38.581 13.828v-13.657h5.292v8.365h8.194v5.292h-13.486zm68.455-31.24h-8.194v8.365h-5.292v-13.657h13.486v5.292zm19.803 0h-8.194v-5.292h13.486v13.657h-5.292v-8.365zm-8.194 25.778h8.194v-8.366h5.292v13.658h-13.486v-5.292zm-25.095-8.195h5.292v8.365h8.194v5.292h-13.486v-13.657zM-51.125 67.318V53.662h13.486v5.292h-8.194v8.364h-5.292zm25.095-13.656h13.486v13.486h-5.292v-8.194h-8.194v-5.292zm13.486 22.875v13.657H-26.03v-5.292h8.194v-8.365h5.292zm-38.581 13.657V76.537h5.292v8.365h8.194v5.292h-13.486zM3.844 67.318V53.662H17.33v5.292H9.136v8.364H3.844zm33.289-8.364h-8.194V53.49h13.486v13.657h-5.292v-8.194zM29.11 84.902h8.194v-8.365h5.291v13.657H29.11v-5.292zm-19.803 0H17.5v5.292H4.015V76.537h5.292v8.365zm-55.14 35.337h-5.292v-13.657h13.486v5.292h-8.194v8.365zm33.289-13.657v13.657h-5.292v-8.365h-8.194v-5.292h13.486zm0 23.046v13.657H-26.03v-5.292h8.194v-8.365h5.292zm-38.581 13.657v-13.657h5.292v8.365h8.194v5.292h-13.486zm60.261-23.046H3.844v-13.657H17.33v5.292H9.136v8.365zm27.997-8.194h-8.194v-5.292h13.486v13.657h-5.292v-8.365zm-8.023 25.948h8.194v-8.365h5.291v13.657H29.11v-5.292zm-19.803 0H17.5v5.292H4.015v-13.657h5.292v8.365zm-55.14 35.337h-5.292v-13.657h13.486v5.292h-8.194v8.365zm33.289-13.657v13.657h-5.292v-8.365h-8.194v-5.292h13.486zm0 22.875v13.658H-26.03v-5.292h8.194v-8.366h5.292zm-38.581 13.828v-13.657h5.292v8.365h8.194v5.292h-13.486zM9.136 173.33H3.844v-13.657H17.33v5.292H9.136v8.365zm27.997-8.194h-8.194v-5.292h13.486v13.657h-5.292v-8.365zm-8.023 25.778h8.194v-8.366h5.291v13.658H29.11v-5.292zm-19.803 0H17.5v5.292H4.015v-13.658h5.292v8.366zM127.61 5.862h-8.194v8.365h-5.292V.57h13.486v5.292zm19.632 0h-8.195V.57h13.487v13.657h-5.292V5.862zm-8.024 25.948h8.194v-8.364h5.292v13.656h-13.486v-5.291zm-25.094-8.364h5.292v8.364h8.194v5.293h-13.486V23.445zm13.486 30.216v5.292h-8.194v8.364h-5.292V53.662h13.486zm19.632 5.292h-8.195V53.49h13.487v13.657h-5.292v-8.194zm-8.024 25.948h8.194v-8.365h5.292v13.657h-13.486v-5.292zm-25.094-8.365h5.292v8.365h8.194v5.292h-13.486V76.537zm-49.848 43.702h-5.292v-13.657H72.47v5.292h-8.194v8.365zm27.996-8.194h-8.194v-5.292h13.486v13.657h-5.291v-8.365zm-8.194 25.948h8.194v-8.365h5.292v13.657H84.078v-5.292zm-25.094 5.292v-13.657h5.292v8.365h8.194v5.292H58.984zm68.626-36.532v5.292h-8.194v8.365h-5.292v-13.657h13.486zm19.632 5.292h-8.195v-5.292h13.487v13.657h-5.292v-8.365zm-8.024 25.948h8.194v-8.365h5.292v13.657h-13.486v-5.292zm-25.094-8.365h5.292v8.365h8.194v5.292h-13.486v-13.657zM64.276 173.33h-5.292v-13.657H72.47v5.292h-8.194v8.365zm27.996-8.194h-8.194v-5.292h13.486v13.657h-5.291v-8.365zm-8.194 25.778h8.194v-8.366h5.292v13.658H84.078v-5.292zm-25.094 5.462v-13.657h5.292v8.365h8.194v5.292H58.984zm68.626-36.532v5.292h-8.194v8.365h-5.292v-13.657h13.486zm19.632 5.292h-8.195v-5.292h13.487v13.657h-5.292v-8.365zm-8.024 25.778h8.194v-8.366h5.292v13.658h-13.486v-5.292zm-25.094-8.195h5.292v8.365h8.194v5.292h-13.486v-13.657zm54.969 43.702v-13.486l13.486-.17v5.292h-8.194v8.364h-5.292zm33.288-8.194h-8.194v-5.292h13.486v13.657h-5.292v-8.365zm-8.023 25.778h8.194v-8.365h5.292v13.657h-13.486v-5.292zm-25.265 5.462v-13.656h5.292v8.364h8.194v5.292h-13.486zm55.139-23.046v-13.486l13.487-.17v5.292h-8.195v8.364h-5.292zm33.289-8.194h-8.194v-5.292h13.486v13.657h-5.292v-8.365zm-8.194 25.778h8.194v-8.365h5.292v13.657h-13.486v-5.292zm-19.803 0h8.195v5.292h-13.487V235.64h5.292v8.365zm49.848-17.584v-13.486l13.486-.17v5.292h-8.194v8.364h-5.292zm25.095-13.486h13.486v13.657h-5.292v-8.365h-8.194v-5.292zm0 31.07h8.194v-8.365h5.292v13.657h-13.486v-5.292zm-25.095 5.462v-13.656h5.292v8.364h8.194v5.292h-13.486zm68.455-31.24h-8.194v8.194h-5.292v-13.486h13.486v5.292zm19.803 0h-8.194v-5.292h13.486v13.657h-5.292v-8.365zm-8.194 25.778h8.194v-8.365h5.292v13.657h-13.486v-5.292zm-25.095-8.194h5.292v8.364h8.194v5.292h-13.486v-13.656zm-385.466-9.39v-13.486l13.486-.17v5.292h-8.194v8.364h-5.292zm25.095-13.486h13.486v13.657h-5.292v-8.365h-8.194v-5.292zm0 31.07h8.194v-8.365h5.292v13.657H-26.03v-5.292zm-25.095 5.462v-13.656h5.292v8.364h8.194v5.292h-13.486zm54.969-23.046v-13.486l13.486-.17v5.292H9.136v8.364H3.844zm33.289-8.194h-8.194v-5.292h13.486v13.657h-5.292v-8.365zm-8.023 25.778h8.194v-8.365h5.291v13.657H29.11v-5.292zm-19.803 0H17.5v5.292H4.015V235.64h5.292v8.365zm49.677-17.584v-13.486l13.486-.17v5.292h-8.194v8.364h-5.292zm33.288-8.194h-8.194v-5.292h13.486v13.657h-5.291v-8.365zm-8.194 25.778h8.194v-8.365h5.292v13.657H84.078v-5.292zm-25.094 5.462v-13.656h5.292v8.364h8.194v5.292H58.984zm68.626-36.532v5.122h-8.194v8.364h-5.292v-13.486h13.486zm19.632 5.292h-8.195v-5.292h13.487v13.657h-5.292v-8.365zm-8.024 25.778h8.194v-8.365h5.292v13.657h-13.486v-5.292zm-25.094-8.194h5.292v8.364h8.194v5.292h-13.486v-13.656zM665.521 67.318V53.662h13.486v5.292h-8.194v8.364h-5.292zm33.289-8.364h-8.194V53.49h13.486v13.657h-5.292v-8.194zm-8.194 25.948h8.194v-8.365h5.292v13.657h-13.486v-5.292zm-25.095-8.365h5.292v8.365h8.194v5.292h-13.486V76.537zm5.292 43.702h-5.292v-13.657h13.486v5.292h-8.194v8.365zm27.997-8.194h-8.194v-5.292h13.486v13.657h-5.292v-8.365zm-8.194 25.948h8.194v-8.365h5.292v13.657h-13.486v-5.292zm-25.095-8.365h5.292v8.365h8.194v5.292h-13.486v-13.657zm5.292 43.702h-5.292v-13.657h13.486v5.292h-8.194v8.365zm27.997-8.194h-8.194v-5.292h13.486v13.657h-5.292v-8.365zm-8.194 25.778h8.194v-8.366h5.292v13.658h-13.486v-5.292zm-25.095-8.195h5.292v8.365h8.194v5.292h-13.486v-13.657zm55.14-115.401V53.662h13.486v5.292h-8.194v8.364h-5.292zm33.289-8.364h-8.195V53.49h13.487v13.657h-5.292v-8.194zm-8.195 25.948h8.195v-8.365h5.292v13.657h-13.487v-5.292zm-11.608 0v5.292h-13.486V76.537h5.292v8.365h8.194zm41.483-17.584V53.662h13.486v5.292h-8.194v8.364h-5.292zm25.094-8.364V53.49h13.487v13.657h-5.292v-8.194h-8.195zm0 25.948h8.195v-8.365h5.292v13.657h-13.487v-5.292zm-11.437 0v5.292h-13.486V76.537h5.292v8.365h8.194zm-68.626 35.508v-13.657h13.486v5.292h-8.194v8.365h-5.292zm33.289-8.365h-8.195v-5.292h13.487v13.657h-5.292v-8.365zm-8.195 25.948h8.195v-8.365h5.292v13.657h-13.487v-5.292zm-11.608 5.292h-13.486v-13.657h5.292v8.365h8.194v5.292zm41.483-22.875v-13.657h13.486v5.292h-8.194v8.365h-5.292zm33.289-8.365h-8.195v-5.292h13.487v13.657h-5.292v-8.365zm-8.195 25.948h8.195v-8.365h5.292v13.657h-13.487v-5.292zm-11.608 5.292H775.63v-13.657h5.292v8.365h8.194v5.292zm-68.455 30.216v-13.657h13.486v5.292h-8.194v8.365h-5.292zm33.289-8.365h-8.195v-5.292h13.487v13.657h-5.292v-8.365zm-8.195 25.778h8.195v-8.366h5.292v13.658h-13.487v-5.292zm-11.608 5.292h-13.486v-13.658h5.292v8.366h8.194v5.292zm41.483-22.705v-13.657h13.486v5.292h-8.194v8.365h-5.292zm33.289-8.365h-8.195v-5.292h13.487v13.657h-5.292v-8.365zm-8.195 25.778h8.195v-8.366h5.292v13.658h-13.487v-5.292zm-11.608 5.292H775.63v-13.658h5.292v8.366h8.194v5.292zM390.164 67.318V53.662h13.486v5.292h-8.194v8.364h-5.292zm25.094-13.656h13.486v13.486h-5.292v-8.194h-8.194v-5.292zm13.486 22.875v13.657h-13.486v-5.292h8.194v-8.365h5.292zm-33.288 8.365h8.194v5.292h-13.486V76.537h5.292v8.365zm0 35.337h-5.292v-13.657h13.486v5.292h-8.194v8.365zm27.996-8.194h-8.194v-5.292h13.486v13.657h-5.292v-8.365zm5.292 31.24h-13.486v-5.292h8.194v-8.365h5.292v13.657zm-33.288-5.292h8.194v5.292h-13.486v-13.657h5.292v8.365zm0 35.337h-5.292v-13.657h13.486v5.292h-8.194v8.365zm27.996-8.194h-8.194v-5.292h13.486v13.657h-5.292v-8.365zm5.292 31.07h-13.486v-5.292h8.194v-8.366h5.292v13.658zm-33.288-5.292h8.194v5.292h-13.486v-13.658h5.292v8.366zm55.14-17.584h-5.293v-13.657h13.487v5.292h-8.194v8.365zm19.631-8.194v-5.292h13.487v13.657h-5.292v-8.365h-8.195zm.171 25.778h8.194v-8.366h5.292v13.658h-13.486v-5.292zm-19.802 0h8.194v5.292h-13.487v-13.658h5.293v8.366zm63.163-78.869h-8.194v8.365h-5.292v-13.657h13.486v5.292zm11.608 0v-5.292h13.486v13.657h-5.292v-8.365h-8.194zm.171 25.948h8.194v-8.365h5.292v13.657h-13.486v-5.292zm-25.265-8.365h5.292v8.365h8.194v5.292h-13.486v-13.657zm60.431-9.389h-5.292v-13.657h13.486v5.292h-8.194v8.365zm19.803-8.194v-5.292h13.486v13.657h-5.292v-8.365h-8.194zm0 25.948h8.194v-8.365h5.292v13.657h-13.486v-5.292zm-25.095 5.292v-13.657h5.292v8.365h8.194v5.292h-13.486zm-41.483 16.559v5.292h-8.364v8.365h-5.292v-13.657h13.656zm11.438 5.292v-5.292h13.486v13.657h-5.292v-8.365h-8.194zm.171 25.778h8.194v-8.366h5.292v13.658h-13.486v-5.292zm-25.265-8.195h5.292v8.365h8.194v5.292h-13.486v-13.657zm60.431-9.389h-5.292v-13.657h13.486v5.292h-8.194v8.365zm19.803-8.194v-5.292h13.486v13.657h-5.292v-8.365h-8.194zm0 25.778h8.194v-8.366h5.292v13.658h-13.486v-5.292zm-25.095 5.462v-13.657h5.292v8.365h8.194v5.292h-13.486zm122.742 21.851h-8.194v8.194h-5.293v-13.486h13.487v5.292zm25.094 8.194h-5.292v-8.364h-8.194v-5.292h13.486v13.656zm-5.292 9.39h5.292v13.656h-13.486v-5.292h8.194v-8.364zm-33.289 13.656v-13.656h5.293v8.364h8.194v5.292h-13.487zm68.626-31.24h-8.194v8.194h-5.292v-13.486h13.486v5.292zm25.095 8.194h-5.292v-8.364h-8.194v-5.292h13.486v13.656zm0 9.219v13.657h-13.486v-5.292h8.194v-8.365h5.292zm-33.289 8.365h8.194v5.292h-13.486V235.64h5.292v8.365zm50.531-17.584v-13.486l13.486-.17v5.292h-8.194v8.364h-5.292zm33.289-8.194h-8.195v-5.292h13.487v13.657h-5.292v-8.365zm-8.195 25.778h8.195v-8.365h5.292v13.657h-13.487v-5.292zm-11.437 0v5.292h-13.486V235.64h5.292v8.365h8.194zm-399.123-17.584v-13.486l13.486-.17v5.292h-8.194v8.364h-5.292zm25.094-13.486h13.486v13.657h-5.292v-8.365h-8.194v-5.292zm0 31.07h8.194v-8.365h5.292v13.657h-13.486v-5.292zm-19.802 0h8.194v5.292h-13.486V235.64h5.292v8.365zm49.847-17.584v-13.486l13.487-.17v5.292h-8.194v8.364h-5.293zm24.924-8.194v-5.292h13.487v13.657h-5.292v-8.365h-8.195zm.171 25.778h8.194v-8.365h5.292v13.657h-13.486v-5.292zm-19.802 0h8.194v5.292h-13.487V235.64h5.293v8.365zm63.333-31.07v5.122h-8.364v8.364h-5.292v-13.486h13.656zm24.241 13.486h-5.292v-8.364h-8.194v-5.292h13.486v13.656zm-5.292 9.39h5.292v13.656h-13.486v-5.292h8.194v-8.364zm-32.605 0h5.292v8.364h8.194v5.292h-13.486v-13.656zm67.772-17.584h-8.194v8.194h-5.292v-13.486h13.486v5.292zm25.094 8.194h-5.292v-8.364h-8.194v-5.292h13.486v13.656zm-5.292 9.39h5.292v13.656h-13.486v-5.292h8.194v-8.364zm-33.288 13.656v-13.656h5.292v8.364h8.194v5.292h-13.486zM1062.58.57h-13.49v13.657h5.29V5.862h8.2V.57zm19.8 5.292h-8.19V.57h13.48v13.657h-5.29V5.862zm-8.02 25.948h8.19v-8.364h5.29v13.656h-13.48v-5.291zm-25.27 5.292V23.447h5.29v8.364h8.2v5.293h-13.49zm0 30.216V53.662h13.49v5.292h-8.2v8.364h-5.29zm33.29-8.364h-8.19V53.49h13.48v13.657h-5.29v-8.194zm-8.02 25.948h8.19v-8.365h5.29v13.657h-13.48v-5.292zm-25.27 5.292V76.537h5.29v8.365h8.2v5.292h-13.49zm0 30.216v-13.657h13.49v5.292h-8.2v8.365h-5.29zm33.29-8.365h-8.19v-5.292h13.48v13.657h-5.29v-8.365zm-8.02 25.948h8.19v-8.365h5.29v13.657h-13.48v-5.292zm-25.27 5.292v-13.657h5.29v8.365h8.2v5.292h-13.49zm0 30.216v-13.657h13.49v5.292h-8.2v8.365h-5.29zm33.29-8.365h-8.19v-5.292h13.48v13.657h-5.29v-8.365zm-8.02 25.778h8.19v-8.366h5.29v13.658h-13.48v-5.292zm-25.27 5.462v-13.657h5.29v8.365h8.2v5.292h-13.49zm178.74-137.422h-8.2v8.364h-5.29V53.662h13.49v5.292zm19.8 0h-8.19V53.49h13.48v13.657h-5.29v-8.194zm-8.19 25.948h8.19v-8.365h5.29v13.657h-13.48v-5.292zm-25.1-8.365h5.29v8.365h8.2v5.292h-13.49V76.537zm-49.68 43.702h-5.29v-13.657h13.49v5.292h-8.2v8.365zm33.29 0h-5.29v-8.365h-8.19v-5.292h13.48v13.657zm0 9.389v13.657h-13.48v-5.292h8.19v-8.365h5.29zm-38.58 13.657v-13.657h5.29v8.365h8.2v5.292h-13.49zm68.46-31.24h-8.2v8.365h-5.29v-13.657h13.49v5.292zm19.8 0h-8.19v-5.292h13.48v13.657h-5.29v-8.365zm-8.19 25.948h8.19v-8.365h5.29v13.657h-13.48v-5.292zm-25.1-8.365h5.29v8.365h8.2v5.292h-13.49v-13.657zm-49.68 43.702h-5.29v-13.657h13.49v5.292h-8.2v8.365zm33.29-13.657v13.657h-5.29v-8.365h-8.19v-5.292h13.48zm0 22.875v13.658h-13.48v-5.292h8.19v-8.366h5.29zm-38.58 13.828v-13.657h5.29v8.365h8.2v5.292h-13.49zm68.46-31.24h-8.2v8.365h-5.29v-13.657h13.49v5.292zm19.8 0h-8.19v-5.292h13.48v13.657h-5.29v-8.365zm-8.19 25.778h8.19v-8.366h5.29v13.658h-13.48v-5.292zm-25.1-8.195h5.29v8.365h8.2v5.292h-13.49v-13.657zM828.875 67.318V53.662h13.486v5.292h-8.194v8.364h-5.292zm25.095-13.656h13.486v13.486h-5.292v-8.194h-8.194v-5.292zm13.486 22.875v13.657H853.97v-5.292h8.194v-8.365h5.292zm-38.581 13.657V76.537h5.292v8.365h8.194v5.292h-13.486zm54.969-22.876V53.662h13.486v5.292h-8.194v8.364h-5.292zm33.289-8.364h-8.194V53.49h13.486v13.657h-5.292v-8.194zm-8.024 25.948h8.194v-8.365h5.293v13.657h-13.487v-5.292zm-19.802 0h8.194v5.292h-13.486V76.537h5.292v8.365zm-55.14 35.337h-5.292v-13.657h13.486v5.292h-8.194v8.365zm33.289-13.657v13.657h-5.292v-8.365h-8.194v-5.292h13.486zm0 23.046v13.657H853.97v-5.292h8.194v-8.365h5.292zm-38.581 13.657v-13.657h5.292v8.365h8.194v5.292h-13.486zm60.261-23.046h-5.292v-13.657h13.486v5.292h-8.194v8.365zm27.997-8.194h-8.194v-5.292h13.486v13.657h-5.292v-8.365zm-8.024 25.948h8.194v-8.365h5.293v13.657h-13.487v-5.292zm-19.802 0h8.194v5.292h-13.486v-13.657h5.292v8.365zm-55.14 35.337h-5.292v-13.657h13.486v5.292h-8.194v8.365zm33.289-13.657v13.657h-5.292v-8.365h-8.194v-5.292h13.486zm0 22.875v13.658H853.97v-5.292h8.194v-8.366h5.292zm-38.581 13.828v-13.657h5.292v8.365h8.194v5.292h-13.486zm60.261-23.046h-5.292v-13.657h13.486v5.292h-8.194v8.365zm27.997-8.194h-8.194v-5.292h13.486v13.657h-5.292v-8.365zm-8.024 25.778h8.194v-8.366h5.293v13.658h-13.487v-5.292zm-19.802 0h8.194v5.292h-13.486v-13.658h5.292v8.366zM1007.61 5.862h-8.194v8.365h-5.292V.57h13.486v5.292zm19.63 0h-8.19V.57h13.48v13.657h-5.29V5.862zm-8.02 25.948h8.19v-8.364h5.29v13.656h-13.48v-5.291zm-25.096-8.364h5.292v8.364h8.194v5.293h-13.486V23.445zm13.486 30.216v5.292h-8.194v8.364h-5.292V53.662h13.486zm19.63 5.292h-8.19V53.49h13.48v13.657h-5.29v-8.194zm-8.02 25.948h8.19v-8.365h5.29v13.657h-13.48v-5.292zm-25.096-8.365h5.292v8.365h8.194v5.292h-13.486V76.537zm-49.848 43.702h-5.292v-13.657h13.486v5.292h-8.194v8.365zm27.996-8.194h-8.194v-5.292h13.487v13.657h-5.293v-8.365zm-8.194 25.948h8.194v-8.365h5.293v13.657h-13.487v-5.292zm-25.094 5.292v-13.657h5.292v8.365h8.194v5.292h-13.486zm68.626-36.532v5.292h-8.194v8.365h-5.292v-13.657h13.486zm19.63 5.292h-8.19v-5.292h13.48v13.657h-5.29v-8.365zm-8.02 25.948h8.19v-8.365h5.29v13.657h-13.48v-5.292zm-25.096-8.365h5.292v8.365h8.194v5.292h-13.486v-13.657zm-49.848 43.702h-5.292v-13.657h13.486v5.292h-8.194v8.365zm27.996-8.194h-8.194v-5.292h13.487v13.657h-5.293v-8.365zm-8.194 25.778h8.194v-8.366h5.293v13.658h-13.487v-5.292zm-25.094 5.462v-13.657h5.292v8.365h8.194v5.292h-13.486zm68.626-36.532v5.292h-8.194v8.365h-5.292v-13.657h13.486zm19.63 5.292h-8.19v-5.292h13.48v13.657h-5.29v-8.365zm-8.02 25.778h8.19v-8.366h5.29v13.658h-13.48v-5.292zm-25.096-8.195h5.292v8.365h8.194v5.292h-13.486v-13.657zm54.966 43.702v-13.486l13.49-.17v5.292h-8.2v8.364h-5.29zm33.29-8.194h-8.19v-5.292h13.48v13.657h-5.29v-8.365zm-8.02 25.778h8.19v-8.365h5.29v13.657h-13.48v-5.292zm-25.27 5.462v-13.656h5.29v8.364h8.2v5.292h-13.49zm55.14-23.046v-13.486l13.49-.17v5.292h-8.2v8.364h-5.29zm33.29-8.194h-8.19v-5.292h13.48v13.657h-5.29v-8.365zm-8.19 25.778h8.19v-8.365h5.29v13.657h-13.48v-5.292zm-19.81 0h8.2v5.292h-13.49V235.64h5.29v8.365zm49.85-17.584v-13.486l13.49-.17v5.292h-8.2v8.364h-5.29zm25.1-13.486h13.48v13.657h-5.29v-8.365h-8.19v-5.292zm0 31.07h8.19v-8.365h5.29v13.657h-13.48v-5.292zm-25.1 5.462v-13.656h5.29v8.364h8.2v5.292h-13.49zm68.46-31.24h-8.2v8.194h-5.29v-13.486h13.49v5.292zm19.8 0h-8.19v-5.292h13.48v13.657h-5.29v-8.365zm-8.19 25.778h8.19v-8.365h5.29v13.657h-13.48v-5.292zm-25.1-8.194h5.29v8.364h8.2v5.292h-13.49v-13.656zm-385.465-9.39v-13.486l13.486-.17v5.292h-8.194v8.364h-5.292zm25.095-13.486h13.486v13.657h-5.292v-8.365h-8.194v-5.292zm0 31.07h8.194v-8.365h5.292v13.657H853.97v-5.292zm-25.095 5.462v-13.656h5.292v8.364h8.194v5.292h-13.486zm54.969-23.046v-13.486l13.486-.17v5.292h-8.194v8.364h-5.292zm33.289-8.194h-8.194v-5.292h13.486v13.657h-5.292v-8.365zm-8.024 25.778h8.194v-8.365h5.293v13.657h-13.487v-5.292zm-19.802 0h8.194v5.292h-13.486V235.64h5.292v8.365zm49.677-17.584v-13.486l13.486-.17v5.292h-8.194v8.364h-5.292zm33.288-8.194h-8.194v-5.292h13.487v13.657h-5.293v-8.365zm-8.194 25.778h8.194v-8.365h5.293v13.657h-13.487v-5.292zm-25.094 5.462v-13.656h5.292v8.364h8.194v5.292h-13.486zm68.626-36.532v5.122h-8.194v8.364h-5.292v-13.486h13.486zm19.63 5.292h-8.19v-5.292h13.48v13.657h-5.29v-8.365zm-8.02 25.778h8.19v-8.365h5.29v13.657h-13.48v-5.292zm-25.096-8.194h5.292v8.364h8.194v5.292h-13.486v-13.656zM1545.52 67.318V53.662h13.49v5.292h-8.2v8.364h-5.29zm33.29-8.364h-8.19V53.49h13.48v13.657h-5.29v-8.194zm-8.19 25.948h8.19v-8.365h5.29v13.657h-13.48v-5.292zm-25.1-8.365h5.29v8.365h8.2v5.292h-13.49V76.537zm5.29 43.702h-5.29v-13.657h13.49v5.292h-8.2v8.365zm28-8.194h-8.19v-5.292h13.48v13.657h-5.29v-8.365zm-8.19 25.948h8.19v-8.365h5.29v13.657h-13.48v-5.292zm-25.1-8.365h5.29v8.365h8.2v5.292h-13.49v-13.657zm5.29 43.702h-5.29v-13.657h13.49v5.292h-8.2v8.365zm28-8.194h-8.19v-5.292h13.48v13.657h-5.29v-8.365zm-8.19 25.778h8.19v-8.366h5.29v13.658h-13.48v-5.292zm-25.1-8.195h5.29v8.365h8.2v5.292h-13.49v-13.657zm55.14-115.401V53.662h13.49v5.292h-8.2v8.364h-5.29zm33.29-8.364h-8.19V53.49h13.48v13.657h-5.29v-8.194zm-8.19 25.948h8.19v-8.365h5.29v13.657h-13.48v-5.292zm-11.61 0v5.292h-13.49V76.537h5.29v8.365h8.2zm41.48-17.584V53.662h13.49v5.292h-8.2v8.364h-5.29zm25.09-8.364V53.49h13.49v13.657h-5.29v-8.194h-8.2zm0 25.948h8.2v-8.365h5.29v13.657h-13.49v-5.292zm-11.43 0v5.292h-13.49V76.537h5.29v8.365h8.2zm-68.63 35.508v-13.657h13.49v5.292h-8.2v8.365h-5.29zm33.29-8.365h-8.19v-5.292h13.48v13.657h-5.29v-8.365zm-8.19 25.948h8.19v-8.365h5.29v13.657h-13.48v-5.292zm-11.61 5.292h-13.49v-13.657h5.29v8.365h8.2v5.292zm41.48-22.875v-13.657h13.49v5.292h-8.2v8.365h-5.29zm33.29-8.365h-8.2v-5.292h13.49v13.657h-5.29v-8.365zm-8.2 25.948h8.2v-8.365h5.29v13.657h-13.49v-5.292zm-11.6 5.292h-13.49v-13.657h5.29v8.365h8.2v5.292zm-68.46 30.216v-13.657h13.49v5.292h-8.2v8.365h-5.29zm33.29-8.365h-8.19v-5.292h13.48v13.657h-5.29v-8.365zm-8.19 25.778h8.19v-8.366h5.29v13.658h-13.48v-5.292zm-11.61 5.292h-13.49v-13.658h5.29v8.366h8.2v5.292zm41.48-22.705v-13.657h13.49v5.292h-8.2v8.365h-5.29zm33.29-8.365h-8.2v-5.292h13.49v13.657h-5.29v-8.365zm-8.2 25.778h8.2v-8.366h5.29v13.658h-13.49v-5.292zm-11.6 5.292h-13.49v-13.658h5.29v8.366h8.2v5.292zM1270.16 67.318V53.662h13.49v5.292h-8.19v8.364h-5.3zm25.1-13.656h13.48v13.486h-5.29v-8.194h-8.19v-5.292zm13.48 22.875v13.657h-13.48v-5.292h8.19v-8.365h5.29zm-33.28 8.365h8.19v5.292h-13.49V76.537h5.3v8.365zm0 35.337h-5.3v-13.657h13.49v5.292h-8.19v8.365zm27.99-8.194h-8.19v-5.292h13.48v13.657h-5.29v-8.365zm5.29 31.24h-13.48v-5.292h8.19v-8.365h5.29v13.657zm-33.28-5.292h8.19v5.292h-13.49v-13.657h5.3v8.365zm0 35.337h-5.3v-13.657h13.49v5.292h-8.19v8.365zm27.99-8.194h-8.19v-5.292h13.48v13.657h-5.29v-8.365zm5.29 31.07h-13.48v-5.292h8.19v-8.366h5.29v13.658zm-33.28-5.292h8.19v5.292h-13.49v-13.658h5.3v8.366zm55.14-17.584h-5.3v-13.657h13.49v5.292h-8.19v8.365zm19.63-8.194v-5.292h13.48v13.657h-5.29v-8.365h-8.19zm.17 25.778h8.19v-8.366h5.29v13.658h-13.48v-5.292zm-19.8 0h8.19v5.292h-13.49v-13.658h5.3v8.366zm63.16-78.869h-8.2v8.365h-5.29v-13.657h13.49v5.292zm11.61 0v-5.292h13.48v13.657h-5.29v-8.365h-8.19zm.17 25.948h8.19v-8.365h5.29v13.657h-13.48v-5.292zm-25.27-8.365h5.29v8.365h8.2v5.292h-13.49v-13.657zm60.43-9.389h-5.29v-13.657h13.49v5.292h-8.2v8.365zm19.81-8.194v-5.292h13.48v13.657h-5.29v-8.365h-8.19zm0 25.948h8.19v-8.365h5.29v13.657h-13.48v-5.292zm-25.1 5.292v-13.657h5.29v8.365h8.2v5.292h-13.49zm-41.48 16.559v5.292h-8.37v8.365h-5.29v-13.657h13.66zm11.44 5.292v-5.292h13.48v13.657h-5.29v-8.365h-8.19zm.17 25.778h8.19v-8.366h5.29v13.658h-13.48v-5.292zm-25.27-8.195h5.29v8.365h8.2v5.292h-13.49v-13.657zm60.43-9.389h-5.29v-13.657h13.49v5.292h-8.2v8.365zm19.81-8.194v-5.292h13.48v13.657h-5.29v-8.365h-8.19zm0 25.778h8.19v-8.366h5.29v13.658h-13.48v-5.292zm-25.1 5.462v-13.657h5.29v8.365h8.2v5.292h-13.49zm122.74 21.851h-8.19v8.194h-5.29v-13.486h13.48v5.292zm25.1 8.194h-5.29v-8.364h-8.2v-5.292h13.49v13.656zm-5.29 9.39h5.29v13.656h-13.49v-5.292h8.2v-8.364zm-33.29 13.656v-13.656h5.29v8.364h8.19v5.292h-13.48zm68.62-31.24h-8.19v8.194h-5.29v-13.486h13.48v5.292zm25.1 8.194h-5.29v-8.364h-8.2v-5.292h13.49v13.656zm0 9.219v13.657h-13.49v-5.292h8.2v-8.365h5.29zm-33.29 8.365h8.19v5.292h-13.48V235.64h5.29v8.365zm50.53-17.584v-13.486l13.49-.17v5.292h-8.2v8.364h-5.29zm33.29-8.194h-8.2v-5.292h13.49v13.657h-5.29v-8.365zm-8.2 25.778h8.2v-8.365h5.29v13.657h-13.49v-5.292zm-11.43 0v5.292h-13.49V235.64h5.29v8.365h8.2zm-399.13-17.584v-13.486l13.49-.17v5.292h-8.19v8.364h-5.3zm25.1-13.486h13.48v13.657h-5.29v-8.365h-8.19v-5.292zm0 31.07h8.19v-8.365h5.29v13.657h-13.48v-5.292zm-19.8 0h8.19v5.292h-13.49V235.64h5.3v8.365zm49.84-17.584v-13.486l13.49-.17v5.292h-8.19v8.364h-5.3zm24.93-8.194v-5.292h13.48v13.657h-5.29v-8.365h-8.19zm.17 25.778h8.19v-8.365h5.29v13.657h-13.48v-5.292zm-19.8 0h8.19v5.292h-13.49V235.64h5.3v8.365zm63.33-31.07v5.122h-8.37v8.364h-5.29v-13.486h13.66zm24.24 13.486h-5.29v-8.364h-8.2v-5.292h13.49v13.656zm-5.29 9.39h5.29v13.656h-13.49v-5.292h8.2v-8.364zm-32.61 0h5.29v8.364h8.2v5.292h-13.49v-13.656zm67.77-17.584h-8.19v8.194h-5.29v-13.486h13.48v5.292zm25.1 8.194h-5.29v-8.364h-8.2v-5.292h13.49v13.656zm-5.29 9.39h5.29v13.656h-13.49v-5.292h8.2v-8.364zm-33.29 13.656v-13.656h5.29v8.364h8.19v5.292h-13.48z" fill="#C6C0B8" fill-opacity=".15"/></svg>