<svg width="1666" height="144" fill="none" xmlns="http://www.w3.org/2000/svg"><path d="M233.704.5h-13.486v13.657h5.292V5.792h8.194V.5zm19.802 5.292h-8.194V.5h13.486v13.657h-5.292V5.792zm-8.023 25.948h8.194v-8.365h5.292v13.657h-13.486V31.74zm-25.265 5.292V23.375h5.292v8.365h8.194v5.292h-13.486zm0 30.216V53.591h13.486v5.292h-8.194v8.365h-5.292zm33.288-8.365h-8.194V53.42h13.486v13.657h-5.292v-8.194zm-8.023 25.948h8.194v-8.364h5.292v13.657h-13.486V84.83zm-25.265 5.293V76.467h5.292v8.364h8.194v5.293h-13.486zm0 30.215v-13.657h13.486v5.292h-8.194v8.365h-5.292zm33.288-8.365h-8.194v-5.292h13.486v13.657h-5.292v-8.365zm-8.023 25.949h8.194v-8.365h5.292v13.657h-13.486v-5.292zm-25.265 5.292v-13.657h5.292v8.365h8.194v5.292h-13.486zm178.734-84.332h-8.194v8.365h-5.292V53.591h13.486v5.292zm19.803 0h-8.194V53.42h13.486v13.657h-5.292v-8.194zm-8.194 25.948h8.194v-8.364h5.292v13.657h-13.486V84.83zm-25.095-8.364h5.292v8.364h8.194v5.293h-13.486V76.467zm-49.677 43.702h-5.292v-13.657h13.486v5.292h-8.194v8.365zm33.289 0h-5.292v-8.365h-8.194v-5.292h13.486v13.657zm0 9.389v13.657h-13.486v-5.292h8.194v-8.365h5.292zm-38.581 13.657v-13.657h5.292v8.365h8.194v5.292h-13.486zm68.455-31.241h-8.194v8.365h-5.292v-13.657h13.486v5.292zm19.803 0h-8.194v-5.292h13.486v13.657h-5.292v-8.365zm-8.194 25.949h8.194v-8.365h5.292v13.657h-13.486v-5.292zm-25.095-8.365h5.292v8.365h8.194v5.292h-13.486v-13.657zM0 67.248V53.591h13.486v5.292H5.292v8.365H0zm25.095-13.657H38.58v13.486h-5.292v-8.194h-8.194v-5.292zM38.58 76.467v13.657H25.096V84.83h8.194v-8.364h5.292zM0 90.124V76.467h5.292v8.364h8.194v5.293H0zm54.969-22.876V53.591h13.486v5.292h-8.194v8.365H54.97zm33.289-8.365h-8.194V53.42H93.55v13.657h-5.292v-8.194zm-8.024 25.948h8.195v-8.364h5.291v13.657H80.234V84.83zm-19.802 0h8.194v5.293H55.14V76.467h5.292v8.364zm-55.14 35.338H0v-13.657h13.486v5.292H5.292v8.365zm33.288-13.657v13.657h-5.29v-8.365h-8.194v-5.292H38.58zm0 23.046v13.657H25.096v-5.292h8.194v-8.365h5.292zM0 143.215v-13.657h5.292v8.365h8.194v5.292H0zm60.261-23.046H54.97v-13.657h13.486v5.292h-8.194v8.365zm27.997-8.195h-8.194v-5.292H93.55v13.657h-5.292v-8.365zm-8.024 25.949h8.195v-8.365h5.291v13.657H80.234v-5.292zm-19.802 0h8.194v5.292H55.14v-13.657h5.292v8.365zM178.735 5.792h-8.194v8.365h-5.292V.5h13.486v5.292zm19.632 0h-8.195V.5h13.487v13.657h-5.292V5.792zm-8.024 25.948h8.194v-8.365h5.292v13.657h-13.486V31.74zm-25.094-8.365h5.292v8.365h8.194v5.292h-13.486V23.375zm13.486 30.216v5.292h-8.194v8.365h-5.292V53.591h13.486zm19.632 5.292h-8.195V53.42h13.487v13.657h-5.292v-8.194zm-8.024 25.948h8.194v-8.364h5.292v13.657h-13.486V84.83zm-25.094-8.364h5.292v8.364h8.194v5.293h-13.486V76.467zm-49.848 43.702h-5.292v-13.657h13.486v5.292h-8.194v8.365zm27.996-8.195h-8.194v-5.292h13.487v13.657h-5.293v-8.365zm-8.194 25.949h8.194v-8.365h5.293v13.657h-13.487v-5.292zm-25.094 5.292v-13.657h5.292v8.365h8.194v5.292h-13.486zm68.626-36.533v5.292h-8.194v8.365h-5.292v-13.657h13.486zm19.632 5.292h-8.195v-5.292h13.487v13.657h-5.292v-8.365zm-8.024 25.949h8.194v-8.365h5.292v13.657h-13.486v-5.292zm-25.094-8.365h5.292v8.365h8.194v5.292h-13.486v-13.657zm551.397-62.31V53.591h13.486v5.292h-8.194v8.365h-5.292zm33.289-8.365h-8.194V53.42h13.486v13.657h-5.292v-8.194zm-8.194 25.948h8.194v-8.364h5.292v13.657h-13.486V84.83zm-25.095-8.364h5.292v8.364h8.194v5.293h-13.486V76.467zm5.292 43.702h-5.292v-13.657h13.486v5.292h-8.194v8.365zm27.997-8.195h-8.194v-5.292h13.486v13.657h-5.292v-8.365zm-8.194 25.949h8.194v-8.365h5.292v13.657h-13.486v-5.292zm-25.095-8.365h5.292v8.365h8.194v5.292h-13.486v-13.657zm55.14-62.31V53.591h13.486v5.292h-8.194v8.365h-5.292zm33.289-8.365h-8.195V53.42h13.487v13.657h-5.292v-8.194zm-8.195 25.948h8.195v-8.364h5.292v13.657H796.88V84.83zm-11.608 0v5.293h-13.486V76.467h5.292v8.364h8.194zm41.483-17.583V53.591h13.486v5.292h-8.194v8.365h-5.292zm25.094-8.365V53.42h13.487v13.657h-5.292v-8.194h-8.195zm0 25.948h8.195v-8.364h5.292v13.657h-13.487V84.83zm-11.437 0v5.293h-13.486V76.467h5.292v8.364h8.194zm-68.626 35.508v-13.657h13.486v5.292h-8.194v8.365h-5.292zm33.289-8.365h-8.195v-5.292h13.487v13.657h-5.292v-8.365zm-8.195 25.949h8.195v-8.365h5.292v13.657H796.88v-5.292zm-11.608 5.292h-13.486v-13.657h5.292v8.365h8.194v5.292zm41.483-22.876v-13.657h13.486v5.292h-8.194v8.365h-5.292zm33.289-8.365h-8.195v-5.292h13.487v13.657h-5.292v-8.365zm-8.195 25.949h8.195v-8.365h5.292v13.657h-13.487v-5.292zm-11.608 5.292h-13.486v-13.657h5.292v8.365h8.194v5.292zM441.289 67.248V53.591h13.486v5.292h-8.194v8.365h-5.292zm25.094-13.657h13.486v13.486h-5.292v-8.194h-8.194v-5.292zm13.486 22.876v13.657h-13.486V84.83h8.194v-8.364h5.292zm-33.288 8.364h8.194v5.293h-13.486V76.467h5.292v8.364zm0 35.338h-5.292v-13.657h13.486v5.292h-8.194v8.365zm27.996-8.195h-8.194v-5.292h13.486v13.657h-5.292v-8.365zm5.292 31.241h-13.486v-5.292h8.194v-8.365h5.292v13.657zm-33.288-5.292h8.194v5.292h-13.486v-13.657h5.292v8.365zm118.303-25.949h-8.194v8.365h-5.292v-13.657h13.486v5.292zm11.608 0v-5.292h13.486v13.657h-5.292v-8.365h-8.194zm.171 25.949h8.194v-8.365h5.292v13.657h-13.486v-5.292zm-25.265-8.365h5.292v8.365h8.194v5.292h-13.486v-13.657zm60.431-9.389h-5.292v-13.657h13.486v5.292h-8.194v8.365zm19.803-8.195v-5.292h13.486v13.657h-5.292v-8.365h-8.194zm0 25.949h8.194v-8.365h5.292v13.657h-13.486v-5.292zm-25.095 5.292v-13.657h5.292v8.365h8.194v5.292h-13.486zM1113.7.5h-13.48v13.657h5.29V5.792h8.19V.5zm19.81 5.292h-8.2V.5h13.49v13.657h-5.29V5.792zm-8.03 25.948h8.2v-8.365h5.29v13.657h-13.49V31.74zm-25.26 5.292V23.375h5.29v8.365h8.19v5.292h-13.48zm0 30.216V53.591h13.48v5.292h-8.19v8.365h-5.29zm33.29-8.365h-8.2V53.42h13.49v13.657h-5.29v-8.194zm-8.03 25.948h8.2v-8.364h5.29v13.657h-13.49V84.83zm-25.26 5.293V76.467h5.29v8.364h8.19v5.293h-13.48zm0 30.215v-13.657h13.48v5.292h-8.19v8.365h-5.29zm33.29-8.365h-8.2v-5.292h13.49v13.657h-5.29v-8.365zm-8.03 25.949h8.2v-8.365h5.29v13.657h-13.49v-5.292zm-25.26 5.292v-13.657h5.29v8.365h8.19v5.292h-13.48zm178.73-84.332h-8.19v8.365h-5.29V53.591h13.48v5.292zm19.8 0h-8.19V53.42h13.49v13.657h-5.3v-8.194zm-8.19 25.948h8.19v-8.364h5.3v13.657h-13.49V84.83zm-25.09-8.364h5.29v8.364h8.19v5.293h-13.48V76.467zm-49.68 43.702h-5.29v-13.657h13.48v5.292h-8.19v8.365zm33.29 0h-5.29v-8.365h-8.2v-5.292h13.49v13.657zm0 9.389v13.657h-13.49v-5.292h8.2v-8.365h5.29zm-38.58 13.657v-13.657h5.29v8.365h8.19v5.292h-13.48zm68.45-31.241h-8.19v8.365h-5.29v-13.657h13.48v5.292zm19.8 0h-8.19v-5.292h13.49v13.657h-5.3v-8.365zm-8.19 25.949h8.19v-8.365h5.3v13.657h-13.49v-5.292zm-25.09-8.365h5.29v8.365h8.19v5.292h-13.48v-13.657zM880 67.248V53.591h13.486v5.292h-8.194v8.365H880zm25.095-13.657h13.486v13.486h-5.292v-8.194h-8.194v-5.292zm13.486 22.876v13.657h-13.486V84.83h8.194v-8.364h5.292zM880 90.124V76.467h5.292v8.364h8.194v5.293H880zm54.969-22.876V53.591h13.486v5.292h-8.194v8.365h-5.292zm33.289-8.365h-8.194V53.42h13.486v13.657h-5.292v-8.194zm-8.024 25.948h8.194v-8.364h5.293v13.657h-13.487V84.83zm-19.802 0h8.194v5.293H935.14V76.467h5.292v8.364zm-55.14 35.338H880v-13.657h13.486v5.292h-8.194v8.365zm33.289-13.657v13.657h-5.292v-8.365h-8.194v-5.292h13.486zm0 23.046v13.657h-13.486v-5.292h8.194v-8.365h5.292zM880 143.215v-13.657h5.292v8.365h8.194v5.292H880zm60.261-23.046h-5.292v-13.657h13.486v5.292h-8.194v8.365zm27.997-8.195h-8.194v-5.292h13.486v13.657h-5.292v-8.365zm-8.024 25.949h8.194v-8.365h5.293v13.657h-13.487v-5.292zm-19.802 0h8.194v5.292H935.14v-13.657h5.292v8.365zM1058.73 5.792h-8.19v8.365h-5.29V.5h13.48v5.292zm19.64 0h-8.2V.5h13.49v13.657h-5.29V5.792zm-8.03 25.948h8.2v-8.365h5.29v13.657h-13.49V31.74zm-25.09-8.365h5.29v8.365h8.19v5.292h-13.48V23.375zm13.48 30.216v5.292h-8.19v8.365h-5.29V53.591h13.48zm19.64 5.292h-8.2V53.42h13.49v13.657h-5.29v-8.194zm-8.03 25.948h8.2v-8.364h5.29v13.657h-13.49V84.83zm-25.09-8.364h5.29v8.364h8.19v5.293h-13.48V76.467zm-49.849 43.702h-5.292v-13.657h13.481v5.292h-8.189v8.365zm27.999-8.195h-8.2v-5.292h13.49v13.657h-5.29v-8.365zm-8.2 25.949h8.2v-8.365h5.29v13.657h-13.49v-5.292zm-25.091 5.292v-13.657h5.292v8.365h8.189v5.292h-13.481zm68.621-36.533v5.292h-8.19v8.365h-5.29v-13.657h13.48zm19.64 5.292h-8.2v-5.292h13.49v13.657h-5.29v-8.365zm-8.03 25.949h8.2v-8.365h5.29v13.657h-13.49v-5.292zm-25.09-8.365h5.29v8.365h8.19v5.292h-13.48v-13.657zm551.4-62.31V53.591h13.48v5.292h-8.19v8.365h-5.29zm33.28-8.365h-8.19V53.42h13.49v13.657h-5.3v-8.194zm-8.19 25.948h8.19v-8.364h5.3v13.657h-13.49V84.83zm-25.09-8.364h5.29v8.364h8.19v5.293h-13.48V76.467zm5.29 43.702h-5.29v-13.657h13.48v5.292h-8.19v8.365zm27.99-8.195h-8.19v-5.292h13.49v13.657h-5.3v-8.365zm-8.19 25.949h8.19v-8.365h5.3v13.657h-13.49v-5.292zm-25.09-8.365h5.29v8.365h8.19v5.292h-13.48v-13.657zm55.14-62.31V53.591h13.48v5.292h-8.19v8.365h-5.29zm13.48 17.583v5.293h-13.48V76.467h5.29v8.364h8.19zm-13.48 35.508v-13.657h13.48v5.292h-8.19v8.365h-5.29zm13.48 22.876h-13.48v-13.657h5.29v8.365h8.19v5.292zm-343.98-75.967V53.591h13.48v5.292h-8.19v8.365h-5.29zm25.09-13.657h13.49v13.486h-5.29v-8.194h-8.2v-5.292zm13.49 22.876v13.657h-13.49V84.83h8.2v-8.364h5.29zm-33.29 8.364h8.19v5.293h-13.48V76.467h5.29v8.364zm0 35.338h-5.29v-13.657h13.48v5.292h-8.19v8.365zm28-8.195h-8.2v-5.292h13.49v13.657h-5.29v-8.365zm5.29 31.241h-13.49v-5.292h8.2v-8.365h5.29v13.657zm-33.29-5.292h8.19v5.292h-13.48v-13.657h5.29v8.365zm118.3-25.949h-8.19v8.365h-5.29v-13.657h13.48v5.292zm11.61 0v-5.292h13.49v13.657h-5.29v-8.365h-8.2zm.17 25.949h8.2v-8.365h5.29v13.657h-13.49v-5.292zm-25.26-8.365h5.29v8.365h8.19v5.292h-13.48v-13.657zm60.43-9.389h-5.29v-13.657h13.48v5.292h-8.19v8.365zm19.8-8.195v-5.292h13.49v13.657h-5.29v-8.365h-8.2zm0 25.949h8.2v-8.365h5.29v13.657h-13.49v-5.292zm-25.09 5.292v-13.657h5.29v8.365h8.19v5.292h-13.48z" fill="#fff" fill-opacity=".71"/></svg>