<svg width="16" height="18" fill="none" xmlns="http://www.w3.org/2000/svg"><path d="M10.778 2.254H9.723V1.22H6.278v1.034H5.223V1.22A1.11 1.11 0 0 1 6.278.11h3.445a1.11 1.11 0 0 1 1.055 1.11v1.034zM5.223 6.22h1.11v8.334h-1.11V6.22zm5.555 0h-1.11v8.334h1.11V6.22zM15.1 3.998H.778a.556.556 0 0 1 0-1.11H15.1a.556.556 0 1 1 0 1.11z" fill="#A61744"/><path d="M2.923 17.887h10.155a1.628 1.628 0 0 0 1.59-1.666V5.237h-1.112v10.984a.517.517 0 0 1-.478.555H2.923a.516.516 0 0 1-.478-.555V5.237H1.334v10.984a1.628 1.628 0 0 0 1.589 1.666z" fill="#A61744"/></svg>