<svg width="64" height="85" fill="none" xmlns="http://www.w3.org/2000/svg"><path d="M62.139 32.042v0C62.136 15.358 48.564 1.785 31.88 1.785S1.624 15.358 1.624 32.042c0 4.347.89 8.507 2.649 12.358h0c7.38 16.148 21.489 33.14 25.615 37.94h.001a2.629 2.629 0 0 0 3.983 0h0c4.126-4.8 18.236-21.79 25.618-37.94h0c1.76-3.851 2.65-8.01 2.65-12.358z" fill="#A61744" stroke="#fff" stroke-width="2"/><circle cx="31.878" cy="31.991" r="22.655" fill="#fff"/><path d="M16.367 44.602h30.667M25.7 44.6V21.292c0-.715.596-1.295 1.333-1.295h9.333c.736 0 1.333.58 1.333 1.295v23.31m8.001 0V32.3a.657.657 0 0 0-.666-.648h-4a.657.657 0 0 0-.667.648v12.302m-17.334 0V32.3a.657.657 0 0 0-.667-.648h-4a.657.657 0 0 0-.667.648v12.302M21.7 31.65v-1.294m20 1.294v-1.294m-8-10.361v-1.942a.657.657 0 0 0-.667-.647h-2.667a.657.657 0 0 0-.667.648v1.941m2.668-2.589v-2.59m-4 9.067h6.667m-6.667 3.883h6.667m-6.667 3.886h6.667m-6.667 3.883h6.667m-6.667 3.887h6.667" stroke="#A61744" stroke-width="1.5" stroke-linecap="round" stroke-linejoin="round"/></svg>