<svg width="104" height="125" fill="none" xmlns="http://www.w3.org/2000/svg"><g filter="url(#filter0_d)"><g filter="url(#filter1_d)"><path d="M22.625 46.042c0-16.132 13.125-29.257 29.256-29.257S81.137 29.91 81.138 46.042c0 4.208-.86 8.226-2.558 11.943-7.317 16.008-21.341 32.906-25.465 37.703a1.629 1.629 0 0 1-2.467 0c-4.125-4.798-18.15-21.697-25.464-37.703-1.698-3.717-2.559-7.735-2.559-11.943z" fill="#A61744"/><path d="M82.138 46.042v0c-.001-16.684-13.574-30.257-30.257-30.257-16.684 0-30.256 13.573-30.256 30.257 0 4.347.89 8.507 2.649 12.358h0c7.38 16.148 21.489 33.14 25.615 37.94h.001a2.629 2.629 0 0 0 3.983 0h0c4.125-4.8 18.235-21.79 25.617-37.94h0c1.76-3.851 2.65-8.01 2.65-12.358z" stroke="#fff" stroke-width="2"/></g><circle cx="51.878" cy="45.992" r="22.655" fill="#fff"/><path d="M36.367 58.602h30.667M45.7 58.6V35.292c0-.715.596-1.295 1.333-1.295h9.333c.736 0 1.333.58 1.333 1.295v23.31m8.001 0V46.3a.657.657 0 0 0-.666-.648h-4a.657.657 0 0 0-.667.648v12.302m-17.334 0V46.3a.657.657 0 0 0-.667-.648h-4a.657.657 0 0 0-.667.648v12.302M41.7 45.65v-1.294m20 1.294v-1.294m-8-10.361v-1.941a.657.657 0 0 0-.667-.648h-2.667a.657.657 0 0 0-.667.648v1.941m2.668-2.589v-2.59m-4 9.067h6.667m-6.667 3.883h6.667m-6.667 3.886h6.667m-6.667 3.883h6.667m-6.667 3.887h6.667" stroke="#A61744" stroke-width="1.5" stroke-linecap="round" stroke-linejoin="round"/></g><defs><filter id="filter0_d" x=".625" y=".785" width="102.514" height="123.468" filterUnits="userSpaceOnUse" color-interpolation-filters="sRGB"><feFlood flood-opacity="0" result="BackgroundImageFix"/><feColorMatrix in="SourceAlpha" values="0 0 0 0 0 0 0 0 0 0 0 0 0 0 0 0 0 0 127 0"/><feOffset dy="6"/><feGaussianBlur stdDeviation="10"/><feColorMatrix values="0 0 0 0 0 0 0 0 0 0 0 0 0 0 0 0 0 0 0.2 0"/><feBlend in2="BackgroundImageFix" result="effect1_dropShadow"/><feBlend in="SourceGraphic" in2="effect1_dropShadow" result="shape"/></filter><filter id="filter1_d" x=".625" y=".785" width="102.514" height="123.468" filterUnits="userSpaceOnUse" color-interpolation-filters="sRGB"><feFlood flood-opacity="0" result="BackgroundImageFix"/><feColorMatrix in="SourceAlpha" values="0 0 0 0 0 0 0 0 0 0 0 0 0 0 0 0 0 0 127 0"/><feOffset dy="6"/><feGaussianBlur stdDeviation="10"/><feColorMatrix values="0 0 0 0 0 0 0 0 0 0 0 0 0 0 0 0 0 0 0.2 0"/><feBlend in2="BackgroundImageFix" result="effect1_dropShadow"/><feBlend in="SourceGraphic" in2="effect1_dropShadow" result="shape"/></filter></defs></svg>