<svg width="44" height="60" fill="none" xmlns="http://www.w3.org/2000/svg"><path fill-rule="evenodd" clip-rule="evenodd" d="M1.926 32.087C.646 29.248 0 26.188 0 23.003 0 10.764 9.846.77 22 .77c12.153 0 21.999 9.994 22 22.234 0 3.185-.645 6.245-1.926 9.083-5.13 11.352-14.885 23.226-17.707 26.547l-.001.002a3.108 3.108 0 0 1-4.732 0l-.002-.002C16.81 55.313 7.054 43.439 1.926 32.088zm28.462-9.083c0-4.714-3.787-8.512-8.389-8.512-4.601 0-8.389 3.798-8.389 8.511 0 4.713 3.788 8.51 8.39 8.51s8.388-3.797 8.388-8.51zm-26.639 8.26C2.59 28.692 2 25.913 2 23.004 2 11.847 10.972 2.77 22 2.77c11.027 0 19.999 9.077 20 20.234 0 2.91-.588 5.689-1.75 8.26-5.001 11.07-14.588 22.758-17.407 26.075a1.108 1.108 0 0 1-1.687 0C18.336 54.021 8.75 42.334 3.75 31.264zm28.639-8.26c0-5.796-4.66-10.512-10.389-10.512-5.728 0-10.389 4.716-10.389 10.511 0 5.796 4.661 10.51 10.39 10.51 5.728 0 10.389-4.714 10.388-10.51z" fill="#fff"/></svg>