<svg width="63" height="85" fill="none" xmlns="http://www.w3.org/2000/svg"><path d="M3.647 44.597c7.378 16.335 21.487 33.526 25.614 38.381v.001a2.62 2.62 0 0 0 1.995.924c.77 0 1.498-.34 1.995-.924h.001c4.125-4.856 18.234-22.045 25.614-38.381 1.759-3.894 2.648-8.1 2.648-12.494-.002-16.863-13.564-30.6-30.258-30.6S1 15.24 1 32.104c0 4.394.89 8.6 2.647 12.493zm41.806-12.494c0 7.936-6.38 14.375-14.197 14.375-7.817 0-14.198-6.439-14.198-14.375 0-7.937 6.381-14.376 14.198-14.376 7.816 0 14.197 6.439 14.197 14.376z" fill="#BF202D"/><path d="M3.647 44.597c7.378 16.335 21.487 33.526 25.614 38.381v.001a2.62 2.62 0 0 0 1.995.924c.77 0 1.498-.34 1.995-.924h.001c4.125-4.856 18.234-22.045 25.614-38.381 1.759-3.894 2.648-8.1 2.648-12.494-.002-16.863-13.564-30.6-30.258-30.6S1 15.24 1 32.104c0 4.394.89 8.6 2.647 12.493zm41.806-12.494c0 7.936-6.38 14.375-14.197 14.375-7.817 0-14.198-6.439-14.198-14.375 0-7.937 6.381-14.376 14.198-14.376 7.816 0 14.197 6.439 14.197 14.376z" fill="url(#paint0_linear)" fill-opacity=".74"/><path d="M3.647 44.597h0c7.378 16.335 21.487 33.526 25.614 38.381v.001a2.62 2.62 0 0 0 1.995.924c.77 0 1.498-.34 1.995-.924h.001c4.125-4.856 18.234-22.045 25.614-38.381h0c1.759-3.894 2.648-8.1 2.648-12.494v0c-.002-16.863-13.564-30.6-30.258-30.6S1 15.24 1 32.104c0 4.394.89 8.6 2.647 12.493zm41.806-12.494v0c0 7.936-6.38 14.375-14.197 14.375-7.817 0-14.198-6.439-14.198-14.375 0-7.937 6.381-14.376 14.198-14.376 7.816 0 14.197 6.439 14.197 14.376z" stroke="#fff" stroke-width="2"/><defs><linearGradient id="paint0_linear" x1="60.759" y1="13.515" x2="2.736" y2="13.428" gradientUnits="userSpaceOnUse"><stop stop-color="#F45C1B"/><stop offset="1" stop-color="#AA4141" stop-opacity="0"/></linearGradient></defs></svg>