<svg width="22" height="20" fill="none" xmlns="http://www.w3.org/2000/svg"><path d="M5.666 5.333a.667.667 0 0 0 .666-.666v-4A.667.667 0 0 0 5 .667v4c0 .368.298.666.667.666zm11.333-.666a.667.667 0 0 1-1.333 0v-4a.667.667 0 0 1 1.333 0v4zm-2.667-2H7.666V4h6.666V2.667zM17.666 16v-1.333h-1.334V16h1.334zm-5.334-1.333h1.333V16h-1.333v-1.333zm-2.666 0H8.332V16h1.334v-1.333zm-5.334 0h1.334V16H4.332v-1.333zm13.334-2v-1.334h-1.334v1.334h1.334zm-5.334-1.334h1.333v1.334h-1.333v-1.334zm-2.666 0H8.332v1.334h1.334v-1.334zm-5.334 0h1.334v1.334H4.332v-1.334zm13.334-2V8h-1.334v1.333h1.334zM12.332 8h1.333v1.333h-1.333V8zM9.666 8H8.332v1.333h1.334V8zM4.332 8h1.334v1.333H4.332V8z" fill="#A61744"/><path d="M18.332 2.667H20.5a1.187 1.187 0 0 1 1.167 1.206v14.92A1.186 1.186 0 0 1 20.498 20h-19a1.187 1.187 0 0 1-1.167-1.207V3.873A1.187 1.187 0 0 1 1.5 2.667h2.167V4h-2v14.667h18.666V4h-2V2.667z" fill="#A61744"/></svg>