<svg width="40" height="51" fill="none" xmlns="http://www.w3.org/2000/svg"><path d="M4.707 45v-9.953h2.632c1.162 0 2.087.369 2.775 1.107.693.739 1.046 1.75 1.06 3.035v1.614c0 1.308-.346 2.335-1.04 3.083C9.448 44.629 8.497 45 7.285 45H4.707zm2.01-8.278v6.61h.601c.67 0 1.142-.175 1.415-.526.274-.356.417-.966.431-1.832v-1.73c0-.93-.13-1.577-.39-1.941-.26-.37-.701-.563-1.326-.581h-.731zm12.913 4.197c0 1.335-.317 2.372-.95 3.11-.63.739-1.504 1.108-2.625 1.108-1.117 0-1.994-.365-2.632-1.094-.638-.734-.962-1.76-.97-3.076v-1.702c0-1.367.316-2.434.95-3.2.633-.77 1.512-1.155 2.638-1.155 1.107 0 1.98.378 2.618 1.135.638.752.962 1.81.97 3.172v1.702zm-2.017-1.668c0-.898-.127-1.566-.383-2.003-.255-.438-.651-.656-1.189-.656-.533 0-.927.212-1.183.636-.255.419-.387 1.06-.396 1.92v1.77c0 .871.13 1.514.39 1.929.26.41.66.615 1.203.615.524 0 .913-.2 1.169-.602.255-.405.385-1.032.39-1.88v-1.729zm10.207 2.434c-.05 1.134-.37 1.993-.958 2.577-.588.583-1.417.875-2.488.875-1.126 0-1.99-.37-2.59-1.108-.598-.743-.896-1.8-.896-3.172v-1.674c0-1.368.31-2.42.93-3.159.62-.742 1.48-1.114 2.583-1.114 1.085 0 1.908.303 2.468.91.565.605.887 1.476.964 2.61h-2.017c-.018-.701-.127-1.184-.328-1.449-.196-.268-.558-.403-1.087-.403-.537 0-.918.19-1.141.567-.224.374-.342.992-.356 1.853v1.88c0 .989.11 1.668.328 2.037.224.37.604.554 1.142.554.529 0 .893-.128 1.094-.383.2-.26.314-.727.342-1.401h2.01zm4.354-3.22l1.34-3.418h2.303l-2.337 4.935L35.872 45h-2.331l-1.367-3.48-1.36 3.48h-2.332l2.393-5.018-2.345-4.935h2.304l1.34 3.418z" fill="#101010"/><path fill-rule="evenodd" clip-rule="evenodd" d="M39.706 14.884L25.5 0H0v51h40V15.618a1.06 1.06 0 0 0-.294-.734zM25.263 2.856l11.448 11.952H25.263V2.856zm12.632 46.029V16.923H23.158V2H2v47l35.895-.115z" fill="#101010"/></svg>