<svg width="40" height="51" fill="none" xmlns="http://www.w3.org/2000/svg"><path d="M6.188 45.002V32.916h3.195c1.411 0 2.535.448 3.37 1.345.842.896 1.27 2.125 1.287 3.685v1.96c0 1.587-.42 2.835-1.262 3.743-.835.902-1.99 1.353-3.461 1.353h-3.13zm2.44-10.052v8.027h.73c.814 0 1.387-.213 1.719-.64.332-.431.506-1.173.523-2.224v-2.1c0-1.13-.158-1.915-.473-2.358-.316-.448-.853-.683-1.61-.705h-.89zm15.68 5.096c0 1.622-.384 2.88-1.154 3.777-.763.897-1.826 1.345-3.187 1.345-1.356 0-2.421-.443-3.196-1.328-.775-.891-1.168-2.136-1.179-3.736v-2.066c0-1.66.385-2.955 1.154-3.885.77-.935 1.837-1.403 3.204-1.403 1.345 0 2.405.46 3.18 1.378.774.913 1.167 2.197 1.178 3.852v2.066zm-2.449-2.025c0-1.09-.155-1.9-.465-2.432-.31-.531-.79-.797-1.444-.797-.647 0-1.126.257-1.436.772-.31.51-.47 1.287-.481 2.333v2.15c0 1.056.157 1.837.473 2.34.315.498.802.747 1.46.747.637 0 1.11-.243 1.42-.73.31-.493.468-1.254.473-2.283v-2.1zm12.393 2.955c-.06 1.378-.448 2.421-1.162 3.13-.714.708-1.72 1.062-3.021 1.062-1.367 0-2.416-.448-3.146-1.345-.725-.902-1.088-2.186-1.088-3.851v-2.034c0-1.66.377-2.939 1.13-3.835.752-.902 1.798-1.353 3.137-1.353 1.317 0 2.316.368 2.997 1.104.686.736 1.076 1.793 1.17 3.17H31.82c-.022-.851-.155-1.438-.398-1.759-.238-.326-.678-.49-1.32-.49-.653 0-1.115.23-1.386.69-.271.453-.415 1.203-.432 2.249v2.283c0 1.2.133 2.025.399 2.473.27.449.733.673 1.386.673.642 0 1.085-.155 1.328-.465.244-.316.382-.883.415-1.702h2.44z" fill="#101010"/><path fill-rule="evenodd" clip-rule="evenodd" d="M39.706 14.884L25.5 0H0v51h40V15.618a1.06 1.06 0 0 0-.294-.734zM25.263 2.856l11.448 11.952H25.263V2.856zm12.632 46.029V16.923H23.158V2H2v47l35.895-.115z" fill="#101010"/></svg>