<svg width="40" height="51" fill="none" xmlns="http://www.w3.org/2000/svg"><path d="M17.877 43.632c-.47.51-1.049.894-1.735 1.154a6.35 6.35 0 0 1-2.241.382c-1.39 0-2.468-.429-3.237-1.287-.77-.863-1.165-2.116-1.187-3.76v-2.175c0-1.665.362-2.947 1.087-3.843.73-.902 1.793-1.353 3.188-1.353 1.311 0 2.299.324 2.963.971.67.648 1.057 1.663 1.162 3.047h-2.374c-.066-.77-.227-1.293-.482-1.57-.254-.282-.653-.423-1.195-.423-.658 0-1.137.241-1.436.723-.299.481-.454 1.247-.465 2.299v2.191c0 1.102.163 1.904.49 2.407.332.499.874.748 1.627.748.481 0 .872-.097 1.17-.29l.216-.15v-2.217h-1.71v-1.842h4.159v4.988zm4.275 1.37h-2.44V32.916h2.44v12.086zm8.284-4.931h-3.793v4.931h-2.44V32.916h6.69v2.034h-4.25v3.096h3.793v2.025z" fill="#101010"/><path fill-rule="evenodd" clip-rule="evenodd" d="M39.706 14.884L25.5 0H0v51h40V15.618a1.06 1.06 0 0 0-.294-.734zM25.263 2.856l11.448 11.952H25.263V2.856zm12.632 46.029V16.923H23.158V2H2v47l35.895-.115z" fill="#101010"/></svg>