<svg width="40" height="51" fill="none" xmlns="http://www.w3.org/2000/svg"><path d="M10.968 32.916h2.44v8.367c0 1.173-.326 2.114-.98 2.822-.652.709-1.493 1.063-2.523 1.063-1.106 0-1.967-.33-2.581-.988-.615-.658-.922-1.574-.922-2.747h2.45c0 1.14.35 1.71 1.053 1.71.709 0 1.063-.659 1.063-1.976v-8.251zm6.798 7.836v4.25h-2.44V32.916h4.117c1.195 0 2.147.37 2.855 1.112.714.742 1.071 1.705 1.071 2.889 0 1.184-.351 2.12-1.054 2.806-.703.686-1.677 1.029-2.922 1.029h-1.627zm0-2.034h1.677c.465 0 .824-.152 1.079-.456.255-.305.382-.747.382-1.328 0-.604-.13-1.082-.39-1.436a1.248 1.248 0 0 0-1.046-.548h-1.702v3.768zm15.456 4.914c-.47.51-1.049.894-1.735 1.154a6.35 6.35 0 0 1-2.24.382c-1.39 0-2.469-.429-3.238-1.287-.77-.863-1.165-2.116-1.187-3.76v-2.175c0-1.665.362-2.947 1.087-3.843.73-.902 1.793-1.353 3.188-1.353 1.311 0 2.299.324 2.963.971.67.648 1.057 1.663 1.162 3.047h-2.374c-.066-.77-.227-1.293-.481-1.57-.255-.282-.653-.423-1.196-.423-.658 0-1.137.241-1.436.723-.299.481-.453 1.247-.465 2.299v2.191c0 1.102.164 1.904.49 2.407.332.499.875.748 1.627.748.482 0 .872-.097 1.17-.29l.216-.15v-2.217h-1.71v-1.842h4.16v4.988z" fill="#101010"/><path fill-rule="evenodd" clip-rule="evenodd" d="M39.706 14.884L25.5 0H0v51h40V15.618a1.06 1.06 0 0 0-.294-.734zM25.263 2.856l11.448 11.952H25.263V2.856zm12.632 46.029V16.923H23.158V2H2v47l35.895-.115z" fill="#101010"/></svg>