<svg width="40" height="51" fill="none" xmlns="http://www.w3.org/2000/svg"><path d="M8.57 32.914l2.283 8.74 2.274-8.74h3.188V45h-2.449v-3.27l.224-5.04L11.675 45h-1.66l-2.416-8.31.224 5.04V45h-2.44V32.914H8.57zm12.153 7.836V45h-2.44V32.914h4.116c1.196 0 2.148.37 2.856 1.112.714.742 1.07 1.705 1.07 2.889 0 1.184-.35 2.12-1.053 2.806-.703.686-1.677 1.029-2.922 1.029h-1.627zm0-2.034h1.676c.465 0 .825-.152 1.08-.456.254-.305.381-.747.381-1.328 0-.604-.13-1.082-.39-1.436a1.248 1.248 0 0 0-1.046-.548h-1.701v3.768zm13.247 1.719H35v1.95h-1.03V45h-2.348v-2.615H27.62l-.108-1.519 4.1-7.952h2.358v7.52zm-4.175 0h1.827v-4.043l-.05.091-1.777 3.952z" fill="#101010"/><path fill-rule="evenodd" clip-rule="evenodd" d="M39.706 14.884L25.5 0H0v51h40V15.618a1.06 1.06 0 0 0-.294-.734zM25.263 2.856l11.448 11.952H25.263V2.856zm12.632 46.029V16.923H23.158V2H2v47l35.895-.115z" fill="#101010"/></svg>