<svg width="40" height="51" fill="none" xmlns="http://www.w3.org/2000/svg"><path d="M8.57 32.916l2.283 8.74 2.274-8.74h3.188v12.086h-2.449v-3.27l.224-5.04-2.415 8.31h-1.66l-2.416-8.31.224 5.04v3.27h-2.44V32.916H8.57zm12.153 7.836v4.25h-2.44V32.916h4.116c1.196 0 2.148.37 2.856 1.112.714.742 1.07 1.705 1.07 2.889 0 1.184-.35 2.12-1.053 2.806-.703.686-1.677 1.029-2.922 1.029h-1.627zm0-2.034h1.676c.465 0 .825-.152 1.08-.456.254-.305.381-.747.381-1.328 0-.604-.13-1.082-.39-1.436a1.248 1.248 0 0 0-1.046-.548h-1.701v3.768zm9.147-.83h1.137c.432 0 .747-.15.947-.448.204-.304.307-.708.307-1.212 0-.481-.105-.855-.316-1.12a.986.986 0 0 0-.83-.407.998.998 0 0 0-.805.382c-.205.254-.307.575-.307.962h-2.35c0-.63.145-1.195.432-1.693.294-.503.7-.896 1.22-1.179a3.626 3.626 0 0 1 1.744-.423c1.112 0 1.984.307 2.615.921.63.615.946 1.456.946 2.524a2.87 2.87 0 0 1-.432 1.527 2.89 2.89 0 0 1-1.12 1.071c.57.243.993.609 1.27 1.096.282.487.423 1.062.423 1.726 0 1.074-.343 1.934-1.03 2.582-.68.647-1.576.971-2.689.971-1.035 0-1.876-.318-2.523-.955-.642-.642-.963-1.483-.963-2.523h2.349c0 .432.114.794.34 1.087.227.294.515.44.864.44.404 0 .722-.15.954-.448.238-.299.357-.697.357-1.195 0-1.19-.462-1.788-1.386-1.793H29.87v-1.893z" fill="#101010"/><path fill-rule="evenodd" clip-rule="evenodd" d="M39.706 14.884L25.5 0H0v51h40V15.618a1.06 1.06 0 0 0-.294-.734zM25.263 2.856l11.448 11.952H25.263V2.856zm12.632 46.029V16.923H23.158V2H2v47l35.895-.115z" fill="#101010"/></svg>