<svg width="40" height="51" fill="none" xmlns="http://www.w3.org/2000/svg"><path d="M9.722 40.75V45h-2.44V32.914h4.116c1.196 0 2.148.37 2.856 1.112.714.742 1.07 1.705 1.07 2.889 0 1.184-.35 2.12-1.053 2.806-.703.686-1.677 1.029-2.922 1.029H9.722zm0-2.034h1.676c.465 0 .825-.152 1.08-.456.254-.305.381-.747.381-1.328 0-.604-.13-1.082-.39-1.436a1.248 1.248 0 0 0-1.046-.548H9.722v3.768z" fill="#101010"/><path d="M16.96 45V32.914h3.196c1.41 0 2.534.448 3.37 1.345.841.896 1.27 2.125 1.287 3.685v1.96c0 1.587-.421 2.835-1.262 3.743-.836.902-1.99 1.353-3.462 1.353H16.96zm2.44-10.052v8.027h.73c.814 0 1.387-.213 1.72-.64.331-.431.505-1.173.522-2.224v-2.1c0-1.13-.158-1.915-.473-2.358-.316-.448-.852-.683-1.61-.705H19.4z" fill="#A61744"/><path d="M32.806 40.07h-3.793V45h-2.44V32.914h6.69v2.034h-4.25v3.096h3.793v2.025z" fill="#101010"/><path fill-rule="evenodd" clip-rule="evenodd" d="M39.706 14.884L25.5 0H0v51h40V15.618a1.06 1.06 0 0 0-.294-.734zM25.263 2.856l11.448 11.952H25.263V2.856zm12.632 46.029V16.923H23.158V2H2v47l35.895-.115z" fill="#101010"/><path d="M26.407 23.24c-.456.13-1.124.145-1.841.044a8.973 8.973 0 0 1-2.326-.675c1.376-.195 2.443-.135 3.355.18.217.075.572.274.812.45zm-7.675-1.228l-.166.043c-.37.099-.73.194-1.077.28l-.468.115c-.941.232-1.904.468-2.854.75a93.21 93.21 0 0 0 1.025-2.542c.244-.62.492-1.253.749-1.879.13.21.266.42.408.63a12.365 12.365 0 0 0 2.383 2.603zm-2.394-9.556c.06 1.046-.171 2.052-.512 3.017-.418-1.194-.614-2.51-.09-3.575.134-.272.245-.418.316-.494.11.166.255.536.286 1.053zm-4.914 13.245c-.236.41-.476.794-.723 1.156-.594.871-1.566 1.804-2.066 1.804-.049 0-.108-.007-.195-.097-.056-.057-.065-.098-.063-.153.017-.32.454-.891 1.086-1.42a10.7 10.7 0 0 1 1.96-1.29zm16.573-2.417c-.076-1.067-1.923-1.752-1.941-1.758-.714-.246-1.49-.366-2.371-.366-.944 0-1.961.133-3.268.43a11.207 11.207 0 0 1-2.917-2.916c-.331-.49-.63-.981-.889-1.46.634-1.474 1.205-3.059 1.101-4.834-.084-1.424-.744-2.38-1.641-2.38-.616 0-1.146.443-1.577 1.32-.769 1.56-.567 3.557.6 5.94-.42.96-.81 1.956-1.188 2.92-.47 1.2-.956 2.436-1.502 3.612-1.532.59-2.79 1.304-3.839 2.182-.687.574-1.515 1.452-1.563 2.368a1.49 1.49 0 0 0 .438 1.144A1.64 1.64 0 0 0 8.635 30c1.498 0 2.94-2.002 3.213-2.404a21.597 21.597 0 0 0 1.57-2.745c1.272-.447 2.627-.78 3.94-1.103l.47-.116a64.75 64.75 0 0 0 1.099-.285c.399-.105.81-.213 1.226-.317 1.349.834 2.8 1.379 4.214 1.578 1.191.169 2.25.071 2.965-.292.645-.326.68-.83.665-1.032z" fill="#101010"/></svg>