<svg width="40" height="51" fill="none" xmlns="http://www.w3.org/2000/svg"><path d="M8.394 40.752v4.25h-2.44V32.916h4.116c1.196 0 2.147.37 2.856 1.112.714.742 1.07 1.705 1.07 2.889 0 1.184-.35 2.12-1.054 2.806-.702.686-1.676 1.029-2.921 1.029H8.393zm0-2.034h1.676c.465 0 .825-.152 1.08-.456.254-.305.381-.747.381-1.328 0-.604-.13-1.082-.39-1.436a1.248 1.248 0 0 0-1.046-.548H8.394v3.768zm15.688 6.284h-2.44l-3.57-7.927v7.927h-2.44V32.916h2.44l3.578 7.936v-7.936h2.432v12.086zm10.177-1.37c-.47.51-1.049.894-1.735 1.154a6.35 6.35 0 0 1-2.241.382c-1.39 0-2.468-.429-3.238-1.287-.769-.863-1.165-2.116-1.187-3.76v-2.175c0-1.665.363-2.947 1.088-3.843.73-.902 1.793-1.353 3.187-1.353 1.312 0 2.3.324 2.964.971.67.648 1.057 1.663 1.162 3.047h-2.374c-.067-.77-.227-1.293-.482-1.57-.254-.282-.653-.423-1.195-.423-.659 0-1.137.241-1.436.723-.299.481-.454 1.247-.465 2.299v2.191c0 1.102.163 1.904.49 2.407.332.499.874.748 1.627.748.481 0 .871-.097 1.17-.29l.216-.15v-2.217H30.1v-1.842h4.159v4.988z" fill="#101010"/><path fill-rule="evenodd" clip-rule="evenodd" d="M39.706 14.884L25.5 0H0v51h40V15.618a1.06 1.06 0 0 0-.294-.734zM25.263 2.856l11.448 11.952H25.263V2.856zm12.632 46.029V16.923H23.158V2H2v47l35.895-.115z" fill="#101010"/></svg>