<svg width="40" height="51" fill="none" xmlns="http://www.w3.org/2000/svg"><path d="M9.12 40.75V45H6.68V32.914h4.117c1.195 0 2.147.37 2.855 1.112.714.742 1.071 1.705 1.071 2.889 0 1.184-.351 2.12-1.054 2.806-.703.686-1.677 1.029-2.922 1.029H9.12zm0-2.034h1.677c.465 0 .824-.152 1.079-.456.255-.305.382-.747.382-1.328 0-.604-.13-1.082-.39-1.436a1.248 1.248 0 0 0-1.046-.548H9.12v3.768zm9.679 2.034V45h-2.44V32.914h4.117c1.195 0 2.147.37 2.855 1.112.714.742 1.07 1.705 1.07 2.889 0 1.184-.35 2.12-1.053 2.806-.703.686-1.677 1.029-2.922 1.029h-1.627zm0-2.034h1.677c.464 0 .824-.152 1.079-.456.254-.305.381-.747.381-1.328 0-.604-.13-1.082-.39-1.436a1.248 1.248 0 0 0-1.046-.548h-1.7v3.768zm15.066-3.768h-2.989V45h-2.448V34.948h-2.939v-2.034h8.376v2.034z" fill="#101010"/><path fill-rule="evenodd" clip-rule="evenodd" d="M39.706 14.884L25.5 0H0v51h40V15.618a1.06 1.06 0 0 0-.294-.734zM25.263 2.856l11.448 11.952H25.263V2.856zm12.632 46.029V16.923H23.158V2H2v47l35.895-.115z" fill="#101010"/></svg>