<svg width="40" height="51" fill="none" xmlns="http://www.w3.org/2000/svg"><path d="M10.137 40.584H8.925V45h-2.44V32.914h3.892c1.223 0 2.167.318 2.831.955.67.63 1.004 1.53 1.004 2.697 0 1.605-.583 2.729-1.751 3.37l2.117 4.948V45h-2.623l-1.818-4.416zM8.925 38.55h1.386c.487 0 .852-.16 1.096-.481.243-.327.365-.761.365-1.303 0-1.212-.473-1.818-1.42-1.818H8.925v3.602zm12.733 3.976H18.33L17.682 45h-2.581l3.776-12.086h2.233L24.912 45h-2.606l-.648-2.474zm-2.797-2.033h2.258l-1.13-4.308-1.128 4.308zm10.849.091h-1.212V45h-2.44V32.914h3.893c1.223 0 2.166.318 2.83.955.67.63 1.005 1.53 1.005 2.697 0 1.605-.584 2.729-1.752 3.37l2.117 4.948V45h-2.623l-1.818-4.416zm-1.212-2.034h1.386c.487 0 .852-.16 1.096-.481.244-.327.365-.761.365-1.303 0-1.212-.473-1.818-1.42-1.818h-1.427v3.602z" fill="#101010"/><path fill-rule="evenodd" clip-rule="evenodd" d="M39.706 14.884L25.5 0H0v51h40V15.618a1.06 1.06 0 0 0-.294-.734zM25.263 2.856l11.448 11.952H25.263V2.856zm12.632 46.029V16.923H23.158V2H2v47l35.895-.115z" fill="#101010"/></svg>