<svg width="40" height="51" fill="none" xmlns="http://www.w3.org/2000/svg"><path d="M14.813 34.948h-2.988V45H9.376V34.948H6.438v-2.034h8.375v2.034zm5.188 2.117l1.627-4.15h2.797l-2.839 5.992L24.492 45h-2.83L20 40.775 18.349 45h-2.83l2.905-6.093-2.847-5.993h2.797l1.627 4.15zm13.555-2.117h-2.988V45h-2.449V34.948h-2.938v-2.034h8.375v2.034z" fill="#101010"/><path fill-rule="evenodd" clip-rule="evenodd" d="M39.706 14.884L25.5 0H0v51h40V15.618a1.06 1.06 0 0 0-.294-.734zM25.263 2.856l11.448 11.952H25.263V2.856zm12.632 46.029V16.923H23.158V2H2v47l35.895-.115z" fill="#101010"/></svg>