<svg width="40" height="51" fill="none" xmlns="http://www.w3.org/2000/svg"><path d="M11.342 37.066l1.627-4.15h2.797l-2.839 5.993 2.905 6.093h-2.83l-1.66-4.225-1.652 4.225H6.86l2.905-6.093-2.848-5.993h2.798l1.627 4.15zm8.168 5.911h4.283v2.025h-6.724V32.916h2.44v10.06zm10.8-1.146c0-.492-.128-.863-.383-1.112-.249-.255-.705-.518-1.37-.789-1.211-.46-2.083-.996-2.614-1.61-.531-.62-.797-1.35-.797-2.192 0-1.018.36-1.834 1.08-2.448.724-.62 1.643-.93 2.755-.93.741 0 1.403.158 1.984.473.58.31 1.026.75 1.336 1.32.316.57.473 1.217.473 1.942h-2.432c0-.564-.121-.993-.365-1.286-.238-.3-.584-.448-1.038-.448-.426 0-.758.127-.996.381-.238.25-.357.587-.357 1.013 0 .332.133.634.399.905.265.265.736.542 1.411.83 1.179.426 2.034.949 2.565 1.569.537.62.805 1.408.805 2.366 0 1.05-.335 1.873-1.004 2.465-.67.592-1.58.888-2.731.888-.78 0-1.492-.16-2.133-.481a3.639 3.639 0 0 1-1.511-1.378c-.36-.598-.54-1.304-.54-2.117h2.449c0 .697.136 1.203.407 1.519.27.315.713.473 1.328.473.852 0 1.278-.45 1.278-1.353z" fill="#101010"/><path fill-rule="evenodd" clip-rule="evenodd" d="M39.706 14.884L25.5 0H0v51h40V15.618a1.06 1.06 0 0 0-.294-.734zM25.263 2.856l11.448 11.952H25.263V2.856zm12.632 46.029V16.923H23.158V2H2v47l35.895-.115z" fill="#101010"/></svg>