<svg width="40" height="51" fill="none" xmlns="http://www.w3.org/2000/svg"><path d="M8.953 38.465l1.34-3.418h2.304l-2.338 4.935L12.65 45h-2.33l-1.368-3.48L7.593 45H5.262l2.392-5.018-2.344-4.935h2.303l1.34 3.418zm6.727 4.867h3.527V45H13.67v-9.953h2.01v8.285zm8.893-.943c0-.406-.105-.711-.314-.916-.205-.21-.581-.426-1.128-.65-.998-.378-1.716-.82-2.154-1.326a2.685 2.685 0 0 1-.656-1.805c0-.838.296-1.51.889-2.016.597-.51 1.354-.766 2.27-.766.61 0 1.155.13 1.633.39a2.62 2.62 0 0 1 1.1 1.087c.26.47.39 1.002.39 1.6h-2.002c0-.465-.1-.819-.301-1.06-.196-.246-.481-.37-.855-.37-.35 0-.624.105-.82.315-.196.205-.294.483-.294.834 0 .273.11.522.328.745.219.219.606.447 1.162.684.971.35 1.675.781 2.113 1.292.442.51.663 1.16.663 1.948 0 .866-.276 1.543-.828 2.03-.55.488-1.3.732-2.248.732a3.872 3.872 0 0 1-1.757-.397 2.996 2.996 0 0 1-1.244-1.135c-.297-.492-.445-1.073-.445-1.743h2.017c0 .575.111.991.335 1.251.223.26.588.39 1.093.39.702 0 1.053-.371 1.053-1.114zm6.474-3.924l1.34-3.418h2.303l-2.337 4.935L34.745 45h-2.33l-1.368-3.48-1.36 3.48h-2.332l2.393-5.018-2.345-4.935h2.304l1.34 3.418z" fill="#101010"/><path fill-rule="evenodd" clip-rule="evenodd" d="M39.706 14.884L25.5 0H0v51h40V15.618a1.06 1.06 0 0 0-.294-.734zM25.263 2.856l11.448 11.952H25.263V2.856zm12.632 46.029V16.923H23.158V2H2v47l35.895-.115z" fill="#101010"/></svg>