<svg width="40" height="51" fill="none" xmlns="http://www.w3.org/2000/svg"><path d="M11.858 42.975h4.98V45H9.004v-1.47l4.93-8.582h-4.98v-2.034h7.795v1.436l-4.89 8.625zM20.89 45h-2.44V32.914h2.44V45zm4.49-4.25V45h-2.44V32.914h4.117c1.195 0 2.147.37 2.856 1.112.713.742 1.07 1.705 1.07 2.889 0 1.184-.351 2.12-1.054 2.806-.703.686-1.677 1.029-2.922 1.029H25.38zm0-2.034h1.677c.465 0 .825-.152 1.08-.456.254-.305.381-.747.381-1.328 0-.604-.13-1.082-.39-1.436a1.248 1.248 0 0 0-1.046-.548H25.38v3.768z" fill="#101010"/><path fill-rule="evenodd" clip-rule="evenodd" d="M39.706 14.884L25.5 0H0v51h40V15.618a1.06 1.06 0 0 0-.294-.734zM25.263 2.856l11.448 11.952H25.263V2.856zm12.632 46.029V16.923H23.158V2H2v47l35.895-.115z" fill="#101010"/></svg>