<svg width="17" height="18" fill="none" xmlns="http://www.w3.org/2000/svg"><path d="M13.323 9.095a.671.671 0 0 0-.667.675v5.122c0 .569-.458 1.032-1.02 1.032H2.355c-.563 0-1.02-.463-1.02-1.032v-9.39c0-.57.457-1.032 1.02-1.032h5.062a.671.671 0 0 0 .668-.675.671.671 0 0 0-.668-.676H2.355C1.056 3.12 0 4.19 0 5.502v9.39c0 1.313 1.056 2.382 2.355 2.382h9.28c1.3 0 2.356-1.069 2.356-2.382V9.77a.671.671 0 0 0-.668-.675zM15.854.559h-5.062a.671.671 0 0 0-.667.675c0 .373.299.675.667.675h4.395v4.446c0 .373.299.676.668.676a.671.671 0 0 0 .667-.676V1.234a.671.671 0 0 0-.667-.675z" fill="#fff"/><path d="M16.326.756a.662.662 0 0 0-.943 0l-9.281 9.39a.68.68 0 0 0 0 .955.662.662 0 0 0 .943 0l9.281-9.39a.68.68 0 0 0 0-.955z" fill="#fff"/></svg>