<svg width="21" height="28" fill="none" xmlns="http://www.w3.org/2000/svg"><path d="M1.82 14.4h0c2.151 4.764 6.24 9.74 7.42 11.128h0a1.463 1.463 0 0 0 2.228 0h0c1.18-1.388 5.268-6.363 7.421-11.128h0a9.323 9.323 0 0 0 .82-3.862v0c-.001-5.202-4.185-9.452-9.355-9.452C5.184 1.086 1 5.336 1 10.538c0 1.353.274 2.655.82 3.862zm11.873-3.862v0c0 1.88-1.51 3.39-3.34 3.39-1.829 0-3.339-1.51-3.339-3.39 0-1.88 1.51-3.39 3.34-3.39 1.83 0 3.34 1.51 3.34 3.39z" fill="#A61744" stroke="#fff" stroke-width="2"/></svg>