<svg width="145" height="151" fill="none" xmlns="http://www.w3.org/2000/svg"><path d="M52.937 107.871V45.855c0-1.927 3.249-2.978 5.493-1.752l48.248 30.658c1.995 1.05 1.995 3.328 0 4.38L58.43 109.447c-2.244 1.401-5.493.175-5.493-1.577z" fill="#fff"/><path fill-rule="evenodd" clip-rule="evenodd" d="M145 75.63c0 41.304-32.459 74.789-72.5 74.789-40.04 0-72.5-33.485-72.5-74.79C0 34.324 32.46.84 72.5.84c40.041 0 72.5 33.485 72.5 74.79zm-9.667 0c0 35.797-28.131 64.817-62.833 64.817S9.667 111.427 9.667 75.629 37.798 10.812 72.5 10.812s62.833 29.02 62.833 64.817z" fill="#fff"/></svg>