<svg width="46" height="47" fill="none" xmlns="http://www.w3.org/2000/svg"><mask id="a" fill="#fff"><path d="M23.01 3.023a4.818 4.818 0 0 1 5.875.785 4.984 4.984 0 0 1 .78 1.025 1 1 0 0 0 1.735-.996 7.044 7.044 0 0 0-1.092-1.435 6.819 6.819 0 0 0-8.306-1.107C19.306 2.87 17.999 6.071 18.8 9.1a6.96 6.96 0 0 0 1.129 2.357L8.808 22.707l-2.121-2.07a1 1 0 0 0-1.397 1.43l2.112 2.063-2.774 2.806-2.31-2.1a1 1 0 1 0-1.346 1.48l3.02 2.745a1 1 0 0 0 1.384-.037l4.113-4.16a1.053 1.053 0 0 0 .085-.087l11.762-11.9a6.816 6.816 0 0 0 4.103 1.374 1 1 0 1 0 0-2c-2.197-.001-4.133-1.496-4.706-3.663-.573-2.169.367-4.45 2.277-5.565z"/><path d="M28.844 9.982v10.315c-.607.51-1.16.996-1.644 1.437L14.483 33.318a1 1 0 0 0 1.347 1.479l12.717-11.585.297-.268v6.654a1 1 0 1 0 2 0V22.95c.098.092.193.18.285.263l12.73 11.585a1 1 0 0 0 1.345-1.48l-2.61-2.375v-7.29a1 1 0 0 0-2 0v5.47l-8.119-7.389a49.094 49.094 0 0 1-.72-.673l-.14-.133c-.241-.228-.5-.47-.771-.72V8.722l-.57-.272c-1.991-.951-2.957-1.411-4.436-2.057a1 1 0 0 0-.8 1.833c1.3.568 2.189.986 3.806 1.757z"/><path d="M22.043 33.805a1 1 0 1 0-2 0v13h19.641v-13a1 1 0 1 0-2 0v11H22.043v-11z"/></mask><path d="M23.01 3.023a4.818 4.818 0 0 1 5.875.785 4.984 4.984 0 0 1 .78 1.025 1 1 0 0 0 1.735-.996 7.044 7.044 0 0 0-1.092-1.435 6.819 6.819 0 0 0-8.306-1.107C19.306 2.87 17.999 6.071 18.8 9.1a6.96 6.96 0 0 0 1.129 2.357L8.808 22.707l-2.121-2.07a1 1 0 0 0-1.397 1.43l2.112 2.063-2.774 2.806-2.31-2.1a1 1 0 1 0-1.346 1.48l3.02 2.745a1 1 0 0 0 1.384-.037l4.113-4.16a1.053 1.053 0 0 0 .085-.087l11.762-11.9a6.816 6.816 0 0 0 4.103 1.374 1 1 0 1 0 0-2c-2.197-.001-4.133-1.496-4.706-3.663-.573-2.169.367-4.45 2.277-5.565z" fill="#A61744"/><path d="M28.844 9.982v10.315c-.607.51-1.16.996-1.644 1.437L14.483 33.318a1 1 0 0 0 1.347 1.479l12.717-11.585.297-.268v6.654a1 1 0 1 0 2 0V22.95c.098.092.193.18.285.263l12.73 11.585a1 1 0 0 0 1.345-1.48l-2.61-2.375v-7.29a1 1 0 0 0-2 0v5.47l-8.119-7.389a49.094 49.094 0 0 1-.72-.673l-.14-.133c-.241-.228-.5-.47-.771-.72V8.722l-.57-.272c-1.991-.951-2.957-1.411-4.436-2.057a1 1 0 0 0-.8 1.833c1.3.568 2.189.986 3.806 1.757z" fill="#A61744"/><path d="M22.043 33.805a1 1 0 1 0-2 0v13h19.641v-13a1 1 0 1 0-2 0v11H22.043v-11z" fill="#A61744"/><path d="M23.01 3.023a4.818 4.818 0 0 1 5.875.785 4.984 4.984 0 0 1 .78 1.025 1 1 0 0 0 1.735-.996 7.044 7.044 0 0 0-1.092-1.435 6.819 6.819 0 0 0-8.306-1.107C19.306 2.87 17.999 6.071 18.8 9.1a6.96 6.96 0 0 0 1.129 2.357L8.808 22.707l-2.121-2.07a1 1 0 0 0-1.397 1.43l2.112 2.063-2.774 2.806-2.31-2.1a1 1 0 1 0-1.346 1.48l3.02 2.745a1 1 0 0 0 1.384-.037l4.113-4.16a1.053 1.053 0 0 0 .085-.087l11.762-11.9a6.816 6.816 0 0 0 4.103 1.374 1 1 0 1 0 0-2c-2.197-.001-4.133-1.496-4.706-3.663-.573-2.169.367-4.45 2.277-5.565z" stroke="#A61744" stroke-width="4" stroke-linecap="round" mask="url(#a)"/><path d="M28.844 9.982v10.315c-.607.51-1.16.996-1.644 1.437L14.483 33.318a1 1 0 0 0 1.347 1.479l12.717-11.585.297-.268v6.654a1 1 0 1 0 2 0V22.95c.098.092.193.18.285.263l12.73 11.585a1 1 0 0 0 1.345-1.48l-2.61-2.375v-7.29a1 1 0 0 0-2 0v5.47l-8.119-7.389a49.094 49.094 0 0 1-.72-.673l-.14-.133c-.241-.228-.5-.47-.771-.72V8.722l-.57-.272c-1.991-.951-2.957-1.411-4.436-2.057a1 1 0 0 0-.8 1.833c1.3.568 2.189.986 3.806 1.757z" stroke="#A61744" stroke-width="4" stroke-linecap="round" mask="url(#a)"/><path d="M22.043 33.805a1 1 0 1 0-2 0v13h19.641v-13a1 1 0 1 0-2 0v11H22.043v-11z" stroke="#A61744" stroke-width="4" stroke-linecap="round" mask="url(#a)"/></svg>