<svg width="43" height="44" fill="none" xmlns="http://www.w3.org/2000/svg"><path d="M36.114.486a1 1 0 0 1 1.412.085l5.43 6.127-5.43 6.126a1 1 0 0 1-1.497-1.326l3.37-3.803H8.404l-.887.001.001 1.73v30.526l3.727-3.38a1 1 0 1 1 1.344 1.481l-6.07 5.506-6.073-5.506a1 1 0 1 1 1.343-1.481l3.73 3.38V9.428l-.002-1.8-.001-1.936 1.004.004a387.4 387.4 0 0 0 1.874 0h31L36.03 1.898a1 1 0 0 1 .085-1.412zm5.504 37.991a1 1 0 0 1 1 1c0 .206.002.453.004.722.005.626.011 1.374-.004 2.032l-.023.976h-3.677a1 1 0 1 1 0-2h1.71c0-.323-.003-.645-.006-.948a99.45 99.45 0 0 1-.004-.782 1 1 0 0 1 1-1zM30.816 41.21a1 1 0 0 0 0 2h2.7a1 1 0 1 0 0-2h-2.7zm-9.101 1a1 1 0 0 1 1-1h2.7a1 1 0 0 1 0 2h-2.7a1 1 0 0 1-1-1zm-7.098-1a1 1 0 0 0 0 2h2.7a1 1 0 1 0 0-2h-2.7zm27.004-10.929a1 1 0 0 1 1 1v2.731a1 1 0 0 1-2 0v-2.73a1 1 0 0 1 1-1zm1-7.195a1 1 0 0 0-2 0v2.73a1 1 0 1 0 2 0v-2.73zm-1-9.196a1 1 0 0 1 1 1v2.732a1 1 0 0 1-2 0V14.89a1 1 0 0 1 1-1z" fill="#A61744"/><path fill-rule="evenodd" clip-rule="evenodd" d="M28.56 16.488a1 1 0 0 0-1.636 0c-2.417 3.437-5.124 7.704-6.239 10.104a4.405 4.405 0 0 0 .135 3.807c.576 1.088 1.666 1.955 3.069 1.955h2.857v4.199a1 1 0 1 0 2 0v-4.199h2.848c1.403 0 2.493-.867 3.069-1.955a4.41 4.41 0 0 0 .135-3.807c-1.115-2.401-3.915-6.796-6.238-10.104zm-4.671 13.866h2.857v-1.25H24.17v-1c.001-.595 0-1.488-.002-1.945a1 1 0 0 1 2-.005l.002.95h.576V24.86a1 1 0 1 1 2 0v5.495h2.848c.506 0 .992-.306 1.301-.89a2.41 2.41 0 0 0 .083-2.044c-.92-1.972-3.138-5.53-5.237-8.602-2.154 3.146-4.314 6.623-5.236 8.602-.296.7-.225 1.462.082 2.043.31.584.796.891 1.302.891z" fill="#A61744"/></svg>