<svg width="50" height="49" fill="none" xmlns="http://www.w3.org/2000/svg"><path d="M10.888 5.497l.67-.658a1 1 0 0 1 .104-.1l4.423-4.34a1 1 0 0 1 1.4 1.428L14.75 4.51l30.79.119-2.716-2.705A1 1 0 0 1 44.236.507l4.413 4.395.055.056.69.686-5.198 5.098a1 1 0 0 1-1.4-1.428l2.738-2.685-30.795-.119 2.718 2.707a1 1 0 0 1-1.411 1.417l-4.428-4.41-.03-.03-.7-.697zm-4.323 5.041l-.69-.697-.69.697a1.034 1.034 0 0 0-.042.043L.758 15.018a1 1 0 0 0 1.422 1.406l2.695-2.727V44.49L2.18 41.763a1 1 0 0 0-1.422 1.406l4.37 4.422c.024.025.047.05.072.072l.675.683.675-.682a1.01 1.01 0 0 0 .071-.073l4.371-4.422a1 1 0 0 0-1.422-1.406l-2.695 2.726V13.697l2.695 2.727a1 1 0 1 0 1.422-1.406L6.607 10.58a1.034 1.034 0 0 0-.042-.043z" fill="#A61744"/><path fill-rule="evenodd" clip-rule="evenodd" d="M37.04 47.872h9.761V16.161H15.09v31.711h9.557a1 1 0 0 0 .643 0h11.107a1 1 0 0 0 .643 0zm-2.79-29.711h-3.875v16.388h-8.344a1 1 0 0 1 0-2h6.344V18.161H17.09v6.96h6.41a1 1 0 1 1 0 2h-6.41v12.86h8.879v5.891h9.75v-12.32a1 1 0 1 1 2 0v3.453H44.8V25.634H34.25V18.16zm3.469 20.844v6.867H44.8v-6.867h-7.08zM36.25 18.16v5.473h8.551V18.16H36.25zM23.969 45.872v-3.89h-6.88v3.89h6.88z" fill="#A61744"/></svg>