<svg width="49" height="48" fill="none" xmlns="http://www.w3.org/2000/svg"><path fill-rule="evenodd" clip-rule="evenodd" d="M31.355 6.098a1 1 0 0 0-1 1v13.868a1 1 0 1 0 2 0v-4.943h2.917c2.727 0 4.917-2.233 4.917-4.963s-2.19-4.962-4.917-4.962h-3.916zm3.917 7.925h-2.916V8.098h2.916c1.6 0 2.917 1.315 2.917 2.962 0 1.647-1.317 2.963-2.917 2.963z" fill="#A61744"/><path fill-rule="evenodd" clip-rule="evenodd" d="M20.563 14.03c0-7.653 6.135-13.878 13.729-13.878 7.593 0 13.729 6.225 13.729 13.879 0 7.653-6.136 13.878-13.73 13.878-7.593 0-13.728-6.225-13.728-13.878zM34.291 2.153c-6.467 0-11.73 5.307-11.73 11.879 0 6.57 5.263 11.878 11.73 11.878 6.467 0 11.729-5.307 11.729-11.878 0-6.572-5.262-11.879-11.73-11.879z" fill="#A61744"/><path fill-rule="evenodd" clip-rule="evenodd" d="M10.48 19.965a1.98 1.98 0 0 0-1.841 1.254L5.045 30.31l-3.49 3.531a1.997 1.997 0 0 0-.575 1.402v6.524c0 1.081.864 1.979 1.958 1.99v1.972c0 1.088.875 1.99 1.979 1.99h3.916c1.104 0 1.98-.902 1.98-1.99v-1.971h19.542v1.97c0 1.09.876 1.991 1.98 1.991h3.916c1.104 0 1.98-.902 1.98-1.99v-1.971a1.985 1.985 0 0 0 1.958-1.99v-6.526a1.99 1.99 0 0 0-.574-1.4L35.69 29.87H7.37l3.125-7.906h8.037a1 1 0 1 0 0-2H10.48l-.002 1 .001-1zm.014 2h-.017.002c.003 0 .005 0 .008-.002a.027.027 0 0 0 .007-.003.023.023 0 0 0 .003-.003l.001-.002-.003.01zm.299 17.832H2.98v1.962h.915a.98.98 0 0 1 .085 0h5.79a.98.98 0 0 1 .043-.001h21.5a.978.978 0 0 1 .085 0h5.79a.978.978 0 0 1 .085 0h.916v-1.961h-7.814a1 1 0 1 1 0-2h7.814v-2.553l-3.334-3.373H6.315L2.98 35.244v2.553h7.813a1 1 0 1 1 0 2zM4.938 45.72v-1.96h3.875v1.961H4.937zm31.292-1.96h-3.876v1.961h3.876V43.76z" fill="#A61744"/></svg>