<svg width="60" height="60" fill="none" xmlns="http://www.w3.org/2000/svg"><path d="M39.57 42.812L53.59 56.87s0 0 0 0a2.668 2.668 0 0 0 3.786-3.76h-.002L43.34 39.036a22.64 22.64 0 0 0 4.877-14.038c0-12.519-10.148-22.667-22.667-22.667-12.518 0-22.666 10.148-22.666 22.667 0 12.518 10.148 22.666 22.666 22.666a22.5 22.5 0 0 0 14.02-4.853zm-20.602-1.875l-.382.924.383-.924A17.25 17.25 0 0 1 8.315 25.001C8.36 15.497 16.05 7.8 25.553 7.749a17.25 17.25 0 1 1-6.585 33.188z" fill="#A61744" stroke="#fff" stroke-width="2"/></svg>