<svg width="22" height="22" viewBox="0 0 22 22" fill="none" xmlns="http://www.w3.org/2000/svg">
<path fill-rule="evenodd" clip-rule="evenodd" d="M10.9987 21.6654C16.89 21.6654 21.6654 16.8897 21.6654 10.9987C21.6654 8.16976 20.5417 5.45662 18.541 3.45622C16.541 1.45581 13.8275 0.332031 10.9987 0.332031C5.10742 0.332031 0.332031 5.10767 0.332031 10.9987C0.332031 16.8897 5.10742 21.6654 10.9987 21.6654ZM11.9987 9.9987H16.0586C16.6113 9.9987 17.0586 10.4465 17.0586 10.9987C17.0586 11.551 16.6113 11.9987 16.0586 11.9987H11.9987V16.0588C11.9987 16.611 11.5508 17.0588 10.9987 17.0588C10.4466 17.0588 9.9987 16.611 9.9987 16.0588V11.9987H5.9388C5.38672 11.9987 4.9388 11.551 4.9388 10.9987C4.9388 10.4465 5.38672 9.9987 5.9388 9.9987H9.9987V5.93872C9.9987 5.38647 10.4466 4.93872 10.9987 4.93872C11.5508 4.93872 11.9987 5.38647 11.9987 5.93872V9.9987Z" fill="#A61744"/>
</svg>
