<svg width="122" height="621" viewBox="0 0 122 621" fill="none" xmlns="http://www.w3.org/2000/svg">
<path d="M25.2469 5.46289V0H38.7332V13.6572H33.4412V5.46289H25.2469Z" fill="#BF8468" fill-opacity="0.46"/>
<path d="M0.152344 13.8276V0.170898H13.6387V5.46289H5.44446V13.8276H0.152344Z" fill="#BF8468" fill-opacity="0.46"/>
<path d="M25.2469 31.4111H33.4412V23.0459H38.7332V36.7031H25.2469V31.4111Z" fill="#BF8468" fill-opacity="0.46"/>
<path d="M13.8093 31.4111V36.7031H0.32312V23.0459H5.61523V31.4111H13.8093Z" fill="#BF8468" fill-opacity="0.46"/>
<path d="M0.152344 172.931V159.444L13.6387 159.274V164.566H5.44446V172.931H0.152344Z" fill="#BF8468" fill-opacity="0.46"/>
<path d="M33.4412 164.736H25.2469V159.444H38.7332V173.102H33.4412V164.736Z" fill="#BF8468" fill-opacity="0.46"/>
<path d="M25.2469 190.514H33.4412V182.149H38.7332V195.806H25.2469V190.514Z" fill="#BF8468" fill-opacity="0.46"/>
<path d="M13.8093 190.514V195.806H0.32312V182.149H5.61523V190.514H13.8093Z" fill="#BF8468" fill-opacity="0.46"/>
<path d="M0.152344 279.113V265.456H13.6387V270.748H5.44446V279.113H0.152344Z" fill="#BF8468" fill-opacity="0.46"/>
<path d="M33.4412 270.748H25.2469V265.456H38.7332V279.113H33.4412V270.748Z" fill="#BF8468" fill-opacity="0.46"/>
<path d="M25.2469 296.696H33.4412V288.332H38.7332V301.988H25.2469V296.696Z" fill="#BF8468" fill-opacity="0.46"/>
<path d="M13.6387 301.988H0.152344V288.502H5.44446V296.696H13.6387V301.988Z" fill="#BF8468" fill-opacity="0.46"/>
<path d="M78.7391 5.46289V0H92.2253V13.6572H86.9333V5.46289H78.7391Z" fill="#BF8468" fill-opacity="0.46"/>
<path d="M53.6445 0.170898V13.8276H58.9366V5.46289H67.1309V0.170898H53.6445Z" fill="#BF8468" fill-opacity="0.46"/>
<path d="M86.9333 31.4111H78.7391V36.7031H92.2253V23.0459H86.9333V31.4111Z" fill="#BF8468" fill-opacity="0.46"/>
<path d="M67.3015 36.7031V31.4111H59.1074V23.0459H53.8153V36.7031H67.3015Z" fill="#BF8468" fill-opacity="0.46"/>
<path d="M53.6445 53.2617V66.9189H58.9366V58.5537H67.1309V53.2617H53.6445Z" fill="#BF8468" fill-opacity="0.46"/>
<path d="M78.7391 58.5537H86.9333V66.9189H92.2253V53.2617H78.7391V58.5537Z" fill="#BF8468" fill-opacity="0.46"/>
<path d="M86.9333 84.502H78.7391V89.7939H92.2253V76.1377H86.9333V84.502Z" fill="#BF8468" fill-opacity="0.46"/>
<path d="M53.6445 89.7939H67.1309V84.502H58.9366V76.1377H53.6445V89.7939Z" fill="#BF8468" fill-opacity="0.46"/>
<path d="M53.6445 106.354V120.01H58.9366V111.646H67.1309V106.354H53.6445Z" fill="#BF8468" fill-opacity="0.46"/>
<path d="M78.7391 111.646H86.9333V120.01H92.2253V106.354H78.7391V111.646Z" fill="#BF8468" fill-opacity="0.46"/>
<path d="M86.9333 137.423H78.7391V142.715H92.2253V129.058H86.9333V137.423Z" fill="#BF8468" fill-opacity="0.46"/>
<path d="M53.6445 142.715H67.1309V137.423H58.9366V129.058H53.6445V142.715Z" fill="#BF8468" fill-opacity="0.46"/>
<path d="M53.6445 159.444V172.931H58.9366V164.566H67.1309V159.274L53.6445 159.444Z" fill="#BF8468" fill-opacity="0.46"/>
<path d="M78.7391 164.736H86.9333V173.102H92.2253V159.444H78.7391V164.736Z" fill="#BF8468" fill-opacity="0.46"/>
<path d="M86.9333 190.514H78.7391V195.806H92.2253V182.149H86.9333V190.514Z" fill="#BF8468" fill-opacity="0.46"/>
<path d="M67.3015 195.806V190.514H59.1074V182.149H53.8153V195.806H67.3015Z" fill="#BF8468" fill-opacity="0.46"/>
<path d="M53.6445 265.456V279.113H58.9366V270.748H67.1309V265.456H53.6445Z" fill="#BF8468" fill-opacity="0.46"/>
<path d="M78.7391 270.748H86.9333V279.113H92.2253V265.456H78.7391V270.748Z" fill="#BF8468" fill-opacity="0.46"/>
<path d="M86.9333 296.696H78.7391V301.988H92.2253V288.332H86.9333V296.696Z" fill="#BF8468" fill-opacity="0.46"/>
<path d="M53.6445 301.988H67.1309V296.696H58.9366V288.502H53.6445V301.988Z" fill="#BF8468" fill-opacity="0.46"/>
<path d="M108.152 0.170898V13.8276H113.444V5.46289H121.639V0.170898H108.152Z" fill="#BF8468" fill-opacity="0.46"/>
<path d="M121.809 36.7031V31.4111H113.615V23.0459H108.323V36.7031H121.809Z" fill="#BF8468" fill-opacity="0.46"/>
<path d="M108.152 53.2617V66.9189H113.444V58.5537H121.639V53.2617H108.152Z" fill="#BF8468" fill-opacity="0.46"/>
<path d="M108.152 89.7939H121.639V84.502H113.444V76.1377H108.152V89.7939Z" fill="#BF8468" fill-opacity="0.46"/>
<path d="M108.152 106.354V120.01H113.444V111.646H121.639V106.354H108.152Z" fill="#BF8468" fill-opacity="0.46"/>
<path d="M108.152 142.715H121.639V137.423H113.444V129.058H108.152V142.715Z" fill="#BF8468" fill-opacity="0.46"/>
<path d="M108.152 159.444V172.931H113.444V164.566H121.639V159.274L108.152 159.444Z" fill="#BF8468" fill-opacity="0.46"/>
<path d="M121.809 195.806V190.514H113.615V182.149H108.323V195.806H121.809Z" fill="#BF8468" fill-opacity="0.46"/>
<path d="M108.152 212.365V226.022H113.444V217.657H121.639V212.365H108.152Z" fill="#BF8468" fill-opacity="0.46"/>
<path d="M121.809 248.897V243.605H113.615V235.24H108.323V248.897H121.809Z" fill="#BF8468" fill-opacity="0.46"/>
<path d="M108.152 265.456V279.113H113.444V270.748H121.639V265.456H108.152Z" fill="#BF8468" fill-opacity="0.46"/>
<path d="M108.152 301.988H121.639V296.696H113.444V288.502H108.152V301.988Z" fill="#BF8468" fill-opacity="0.46"/>
<path d="M108.152 318.547V332.204H113.444V323.839H121.639V318.547H108.152Z" fill="#BF8468" fill-opacity="0.46"/>
<path d="M113.444 341.423H108.152V355.08H121.639V349.788H113.444V341.423Z" fill="#BF8468" fill-opacity="0.46"/>
<path d="M0.152344 544.103V530.616L13.6387 530.446V535.738H5.44446V544.103H0.152344Z" fill="#BF8468" fill-opacity="0.46"/>
<path d="M33.4412 535.908H25.2469V530.616H38.7332V544.273H33.4412V535.908Z" fill="#BF8468" fill-opacity="0.46"/>
<path d="M25.2469 561.686H33.4412V553.321H38.7332V566.978H25.2469V561.686Z" fill="#BF8468" fill-opacity="0.46"/>
<path d="M13.8093 561.686V566.978H0.32312V553.321H5.61523V561.686H13.8093Z" fill="#BF8468" fill-opacity="0.46"/>
<path d="M78.7391 376.635V371.172H92.2253V384.829H86.9333V376.635H78.7391Z" fill="#BF8468" fill-opacity="0.46"/>
<path d="M53.6445 371.343V385H58.9366V376.635H67.1309V371.343H53.6445Z" fill="#BF8468" fill-opacity="0.46"/>
<path d="M86.9333 402.583H78.7391V407.875H92.2253V394.218H86.9333V402.583Z" fill="#BF8468" fill-opacity="0.46"/>
<path d="M67.3015 407.875V402.583H59.1074V394.218H53.8153V407.875H67.3015Z" fill="#BF8468" fill-opacity="0.46"/>
<path d="M53.6445 477.525V491.182H58.9366V482.817H67.1309V477.525H53.6445Z" fill="#BF8468" fill-opacity="0.46"/>
<path d="M78.7391 482.817H86.9333V491.182H92.2253V477.525H78.7391V482.817Z" fill="#BF8468" fill-opacity="0.46"/>
<path d="M86.9333 508.595H78.7391V513.887H92.2253V500.229H86.9333V508.595Z" fill="#BF8468" fill-opacity="0.46"/>
<path d="M53.6445 513.887H67.1309V508.595H58.9366V500.229H53.6445V513.887Z" fill="#BF8468" fill-opacity="0.46"/>
<path d="M53.6445 530.616V544.103H58.9366V535.738H67.1309V530.446L53.6445 530.616Z" fill="#BF8468" fill-opacity="0.46"/>
<path d="M78.7391 535.908H86.9333V544.273H92.2253V530.616H78.7391V535.908Z" fill="#BF8468" fill-opacity="0.46"/>
<path d="M86.9333 561.686H78.7391V566.978H92.2253V553.321H86.9333V561.686Z" fill="#BF8468" fill-opacity="0.46"/>
<path d="M67.3015 566.978V561.686H59.1074V553.321H53.8153V566.978H67.3015Z" fill="#BF8468" fill-opacity="0.46"/>
<path d="M108.152 371.343V385H113.444V376.635H121.639V371.343H108.152Z" fill="#BF8468" fill-opacity="0.46"/>
<path d="M121.809 407.875V402.583H113.615V394.218H108.323V407.875H121.809Z" fill="#BF8468" fill-opacity="0.46"/>
<path d="M108.152 424.434V438.091H113.444V429.726H121.639V424.434H108.152Z" fill="#BF8468" fill-opacity="0.46"/>
<path d="M108.152 460.966H121.639V455.674H113.444V447.31H108.152V460.966Z" fill="#BF8468" fill-opacity="0.46"/>
<path d="M108.152 477.525V491.182H113.444V482.817H121.639V477.525H108.152Z" fill="#BF8468" fill-opacity="0.46"/>
<path d="M108.152 513.887H121.639V508.595H113.444V500.229H108.152V513.887Z" fill="#BF8468" fill-opacity="0.46"/>
<path d="M108.152 530.616V544.103H113.444V535.738H121.639V530.446L108.152 530.616Z" fill="#BF8468" fill-opacity="0.46"/>
<path d="M121.809 566.978V561.686H113.615V553.321H108.323V566.978H121.809Z" fill="#BF8468" fill-opacity="0.46"/>
<path d="M108.152 583.537V597.194H113.444V588.829H121.639V583.537H108.152Z" fill="#BF8468" fill-opacity="0.46"/>
<path d="M121.809 620.069V614.777H113.615V606.412H108.323V620.069H121.809Z" fill="#BF8468" fill-opacity="0.46"/>
</svg>
