<svg width="421" height="574" viewBox="0 0 421 574" fill="none" xmlns="http://www.w3.org/2000/svg">
<path fill-rule="evenodd" clip-rule="evenodd" d="M299.602 0.617188V53.8813H320.242V21.2568H352.201V0.617188H299.602ZM397.475 0.617188H420.285V21.2568H397.475V0.617188ZM397.475 122.46H420.285V143.1H397.475V122.46ZM299.602 89.8359H320.242V122.46H352.201V143.1H299.602V89.8359ZM224.527 460.542V407.277H277.127V427.917H245.168V460.542H224.527ZM354.36 427.917H322.401V407.277H375V460.542H354.36V427.917ZM354.36 529.12H322.401V549.76H375V496.496H354.36V529.12ZM224.527 496.496H245.168V529.12H277.127V549.76H224.527V496.496ZM0 573.686V520.422H52.5992V541.062H20.6403V573.686H0ZM129.833 541.062H97.8738V520.422H150.473V573.686H129.833V541.062Z" fill="#BF8468" fill-opacity="0.46"/>
</svg>
