<svg width="1680" height="250" viewBox="0 0 1680 250" fill="none" xmlns="http://www.w3.org/2000/svg">
<path d="M182.579 0.570312H169.093V14.2273H174.385V5.8623H182.579V0.570312Z" fill="#C6C0B8" fill-opacity="0.15"/>
<path d="M202.381 5.8623H194.187V0.570312H207.673V14.2273H202.381V5.8623Z" fill="#C6C0B8" fill-opacity="0.15"/>
<path d="M194.358 31.8105H202.552V23.4456H207.844V37.1025H194.358V31.8105Z" fill="#C6C0B8" fill-opacity="0.15"/>
<path d="M169.093 37.1025V23.4456H174.385V31.8105H182.579V37.1025H169.093Z" fill="#C6C0B8" fill-opacity="0.15"/>
<path d="M169.093 67.3184V53.6616H182.579V58.9536H174.385V67.3184H169.093Z" fill="#C6C0B8" fill-opacity="0.15"/>
<path d="M202.381 58.9536H194.187V53.4907H207.673V67.1477H202.381V58.9536Z" fill="#C6C0B8" fill-opacity="0.15"/>
<path d="M194.358 84.9016H202.552V76.5369H207.844V90.1938H194.358V84.9016Z" fill="#C6C0B8" fill-opacity="0.15"/>
<path d="M169.093 90.1938V76.5369H174.385V84.9016H182.579V90.1938H169.093Z" fill="#C6C0B8" fill-opacity="0.15"/>
<path d="M169.093 120.41V106.753H182.579V112.045H174.385V120.41H169.093Z" fill="#C6C0B8" fill-opacity="0.15"/>
<path d="M202.381 112.045H194.187V106.753H207.673V120.41H202.381V112.045Z" fill="#C6C0B8" fill-opacity="0.15"/>
<path d="M194.358 137.993H202.552V129.628H207.844V143.285H194.358V137.993Z" fill="#C6C0B8" fill-opacity="0.15"/>
<path d="M169.093 143.285V129.628H174.385V137.993H182.579V143.285H169.093Z" fill="#C6C0B8" fill-opacity="0.15"/>
<path d="M169.093 173.501V159.844H182.579V165.136H174.385V173.501H169.093Z" fill="#C6C0B8" fill-opacity="0.15"/>
<path d="M202.381 165.136H194.187V159.844H207.673V173.501H202.381V165.136Z" fill="#C6C0B8" fill-opacity="0.15"/>
<path d="M194.358 190.914H202.552V182.548H207.844V196.206H194.358V190.914Z" fill="#C6C0B8" fill-opacity="0.15"/>
<path d="M169.093 196.376V182.719H174.385V191.084H182.579V196.376H169.093Z" fill="#C6C0B8" fill-opacity="0.15"/>
<path d="M347.827 58.9536H339.633V67.3184H334.341V53.6616H347.827V58.9536Z" fill="#C6C0B8" fill-opacity="0.15"/>
<path d="M367.63 58.9536H359.436V53.4907H372.922V67.1477H367.63V58.9536Z" fill="#C6C0B8" fill-opacity="0.15"/>
<path d="M359.436 84.9016H367.63V76.5369H372.922V90.1938H359.436V84.9016Z" fill="#C6C0B8" fill-opacity="0.15"/>
<path d="M334.341 76.5369H339.633V84.9016H347.827V90.1938H334.341V76.5369Z" fill="#C6C0B8" fill-opacity="0.15"/>
<path d="M284.664 120.239H279.372V106.582H292.858V111.874H284.664V120.239Z" fill="#C6C0B8" fill-opacity="0.15"/>
<path d="M317.953 120.239H312.661V111.874H304.467V106.582H317.953V120.239Z" fill="#C6C0B8" fill-opacity="0.15"/>
<path d="M317.953 129.628V143.285H304.467V137.993H312.661V129.628H317.953Z" fill="#C6C0B8" fill-opacity="0.15"/>
<path d="M279.372 143.285V129.628H284.664V137.993H292.858V143.285H279.372Z" fill="#C6C0B8" fill-opacity="0.15"/>
<path d="M347.827 112.045H339.633V120.41H334.341V106.753H347.827V112.045Z" fill="#C6C0B8" fill-opacity="0.15"/>
<path d="M367.63 112.045H359.436V106.753H372.922V120.41H367.63V112.045Z" fill="#C6C0B8" fill-opacity="0.15"/>
<path d="M359.436 137.993H367.63V129.628H372.922V143.285H359.436V137.993Z" fill="#C6C0B8" fill-opacity="0.15"/>
<path d="M334.341 129.628H339.633V137.993H347.827V143.285H334.341V129.628Z" fill="#C6C0B8" fill-opacity="0.15"/>
<path d="M284.664 173.33H279.372V159.673H292.858V164.965H284.664V173.33Z" fill="#C6C0B8" fill-opacity="0.15"/>
<path d="M317.953 159.673V173.33H312.661V164.965H304.467V159.673H317.953Z" fill="#C6C0B8" fill-opacity="0.15"/>
<path d="M317.953 182.548V196.206H304.467V190.914H312.661V182.548H317.953Z" fill="#C6C0B8" fill-opacity="0.15"/>
<path d="M279.372 196.376V182.719H284.664V191.084H292.858V196.376H279.372Z" fill="#C6C0B8" fill-opacity="0.15"/>
<path d="M347.827 165.136H339.633V173.501H334.341V159.844H347.827V165.136Z" fill="#C6C0B8" fill-opacity="0.15"/>
<path d="M367.63 165.136H359.436V159.844H372.922V173.501H367.63V165.136Z" fill="#C6C0B8" fill-opacity="0.15"/>
<path d="M359.436 190.914H367.63V182.548H372.922V196.206H359.436V190.914Z" fill="#C6C0B8" fill-opacity="0.15"/>
<path d="M334.341 182.719H339.633V191.084H347.827V196.376H334.341V182.719Z" fill="#C6C0B8" fill-opacity="0.15"/>
<path d="M-51.125 67.3184V53.6616H-37.6388V58.9536H-45.8329V67.3184H-51.125Z" fill="#C6C0B8" fill-opacity="0.15"/>
<path d="M-26.0304 53.6616H-12.5442V67.1477H-17.8363V58.9536H-26.0304V53.6616Z" fill="#C6C0B8" fill-opacity="0.15"/>
<path d="M-12.5442 76.5369V90.1938H-26.0304V84.9016H-17.8363V76.5369H-12.5442Z" fill="#C6C0B8" fill-opacity="0.15"/>
<path d="M-51.125 90.1938V76.5369H-45.8329V84.9016H-37.6388V90.1938H-51.125Z" fill="#C6C0B8" fill-opacity="0.15"/>
<path d="M3.84404 67.3184V53.6616H17.3302V58.9536H9.13609V67.3184H3.84404Z" fill="#C6C0B8" fill-opacity="0.15"/>
<path d="M37.1327 58.9536H28.9386V53.4907H42.4248V67.1477H37.1327V58.9536Z" fill="#C6C0B8" fill-opacity="0.15"/>
<path d="M29.1093 84.9016H37.3035V76.5369H42.5955V90.1938H29.1093V84.9016Z" fill="#C6C0B8" fill-opacity="0.15"/>
<path d="M9.3068 84.9016H17.5009V90.1938H4.01475V76.5369H9.3068V84.9016Z" fill="#C6C0B8" fill-opacity="0.15"/>
<path d="M-45.8329 120.239H-51.125V106.582H-37.6388V111.874H-45.8329V120.239Z" fill="#C6C0B8" fill-opacity="0.15"/>
<path d="M-12.5442 106.582V120.239H-17.8363V111.874H-26.0304V106.582H-12.5442Z" fill="#C6C0B8" fill-opacity="0.15"/>
<path d="M-12.5442 129.628V143.285H-26.0304V137.993H-17.8363V129.628H-12.5442Z" fill="#C6C0B8" fill-opacity="0.15"/>
<path d="M-51.125 143.285V129.628H-45.8329V137.993H-37.6388V143.285H-51.125Z" fill="#C6C0B8" fill-opacity="0.15"/>
<path d="M9.13609 120.239H3.84404V106.582H17.3302V111.874H9.13609V120.239Z" fill="#C6C0B8" fill-opacity="0.15"/>
<path d="M37.1327 112.045H28.9386V106.753H42.4248V120.41H37.1327V112.045Z" fill="#C6C0B8" fill-opacity="0.15"/>
<path d="M29.1093 137.993H37.3035V129.628H42.5955V143.285H29.1093V137.993Z" fill="#C6C0B8" fill-opacity="0.15"/>
<path d="M9.3068 137.993H17.5009V143.285H4.01475V129.628H9.3068V137.993Z" fill="#C6C0B8" fill-opacity="0.15"/>
<path d="M-45.8329 173.33H-51.125V159.673H-37.6388V164.965H-45.8329V173.33Z" fill="#C6C0B8" fill-opacity="0.15"/>
<path d="M-12.5442 159.673V173.33H-17.8363V164.965H-26.0304V159.673H-12.5442Z" fill="#C6C0B8" fill-opacity="0.15"/>
<path d="M-12.5442 182.548V196.206H-26.0304V190.914H-17.8363V182.548H-12.5442Z" fill="#C6C0B8" fill-opacity="0.15"/>
<path d="M-51.125 196.376V182.719H-45.8329V191.084H-37.6388V196.376H-51.125Z" fill="#C6C0B8" fill-opacity="0.15"/>
<path d="M9.13609 173.33H3.84404V159.673H17.3302V164.965H9.13609V173.33Z" fill="#C6C0B8" fill-opacity="0.15"/>
<path d="M37.1327 165.136H28.9386V159.844H42.4248V173.501H37.1327V165.136Z" fill="#C6C0B8" fill-opacity="0.15"/>
<path d="M29.1093 190.914H37.3035V182.548H42.5955V196.206H29.1093V190.914Z" fill="#C6C0B8" fill-opacity="0.15"/>
<path d="M9.3068 190.914H17.5009V196.206H4.01475V182.548H9.3068V190.914Z" fill="#C6C0B8" fill-opacity="0.15"/>
<path d="M127.61 5.8623H119.416V14.2273H114.124V0.570312H127.61V5.8623Z" fill="#C6C0B8" fill-opacity="0.15"/>
<path d="M147.242 5.8623H139.047V0.570312H152.534V14.2273H147.242V5.8623Z" fill="#C6C0B8" fill-opacity="0.15"/>
<path d="M139.218 31.8105H147.412V23.4456H152.704V37.1025H139.218V31.8105Z" fill="#C6C0B8" fill-opacity="0.15"/>
<path d="M114.124 23.4456H119.416V31.8105H127.61V37.1025H114.124V23.4456Z" fill="#C6C0B8" fill-opacity="0.15"/>
<path d="M127.61 53.6616V58.9536H119.416V67.3184H114.124V53.6616H127.61Z" fill="#C6C0B8" fill-opacity="0.15"/>
<path d="M147.242 58.9536H139.047V53.4907H152.534V67.1477H147.242V58.9536Z" fill="#C6C0B8" fill-opacity="0.15"/>
<path d="M139.218 84.9016H147.412V76.5369H152.704V90.1938H139.218V84.9016Z" fill="#C6C0B8" fill-opacity="0.15"/>
<path d="M114.124 76.5369H119.416V84.9016H127.61V90.1938H114.124V76.5369Z" fill="#C6C0B8" fill-opacity="0.15"/>
<path d="M64.2758 120.239H58.9838V106.582H72.47V111.874H64.2758V120.239Z" fill="#C6C0B8" fill-opacity="0.15"/>
<path d="M92.2725 112.045H84.0784V106.753H97.5645V120.41H92.2725V112.045Z" fill="#C6C0B8" fill-opacity="0.15"/>
<path d="M84.0784 137.993H92.2725V129.628H97.5645V143.285H84.0784V137.993Z" fill="#C6C0B8" fill-opacity="0.15"/>
<path d="M58.9838 143.285V129.628H64.2758V137.993H72.47V143.285H58.9838Z" fill="#C6C0B8" fill-opacity="0.15"/>
<path d="M127.61 106.753V112.045H119.416V120.41H114.124V106.753H127.61Z" fill="#C6C0B8" fill-opacity="0.15"/>
<path d="M147.242 112.045H139.047V106.753H152.534V120.41H147.242V112.045Z" fill="#C6C0B8" fill-opacity="0.15"/>
<path d="M139.218 137.993H147.412V129.628H152.704V143.285H139.218V137.993Z" fill="#C6C0B8" fill-opacity="0.15"/>
<path d="M114.124 129.628H119.416V137.993H127.61V143.285H114.124V129.628Z" fill="#C6C0B8" fill-opacity="0.15"/>
<path d="M64.2758 173.33H58.9838V159.673H72.47V164.965H64.2758V173.33Z" fill="#C6C0B8" fill-opacity="0.15"/>
<path d="M92.2725 165.136H84.0784V159.844H97.5645V173.501H92.2725V165.136Z" fill="#C6C0B8" fill-opacity="0.15"/>
<path d="M84.0784 190.914H92.2725V182.548H97.5645V196.206H84.0784V190.914Z" fill="#C6C0B8" fill-opacity="0.15"/>
<path d="M58.9838 196.376V182.719H64.2758V191.084H72.47V196.376H58.9838Z" fill="#C6C0B8" fill-opacity="0.15"/>
<path d="M127.61 159.844V165.136H119.416V173.501H114.124V159.844H127.61Z" fill="#C6C0B8" fill-opacity="0.15"/>
<path d="M147.242 165.136H139.047V159.844H152.534V173.501H147.242V165.136Z" fill="#C6C0B8" fill-opacity="0.15"/>
<path d="M139.218 190.914H147.412V182.548H152.704V196.206H139.218V190.914Z" fill="#C6C0B8" fill-opacity="0.15"/>
<path d="M114.124 182.719H119.416V191.084H127.61V196.376H114.124V182.719Z" fill="#C6C0B8" fill-opacity="0.15"/>
<path d="M169.093 226.421V212.935L182.579 212.765V218.057H174.385V226.421H169.093Z" fill="#C6C0B8" fill-opacity="0.15"/>
<path d="M202.381 218.227H194.187V212.935H207.673V226.592H202.381V218.227Z" fill="#C6C0B8" fill-opacity="0.15"/>
<path d="M194.358 244.005H202.552V235.64H207.844V249.297H194.358V244.005Z" fill="#C6C0B8" fill-opacity="0.15"/>
<path d="M169.093 249.467V235.811H174.385V244.175H182.579V249.467H169.093Z" fill="#C6C0B8" fill-opacity="0.15"/>
<path d="M224.232 226.421V212.935L237.719 212.765V218.057H229.524V226.421H224.232Z" fill="#C6C0B8" fill-opacity="0.15"/>
<path d="M257.521 218.227H249.327V212.935H262.813V226.592H257.521V218.227Z" fill="#C6C0B8" fill-opacity="0.15"/>
<path d="M249.327 244.005H257.521V235.64H262.813V249.297H249.327V244.005Z" fill="#C6C0B8" fill-opacity="0.15"/>
<path d="M229.524 244.005H237.719V249.297H224.232V235.64H229.524V244.005Z" fill="#C6C0B8" fill-opacity="0.15"/>
<path d="M279.372 226.421V212.935L292.858 212.765V218.057H284.664V226.421H279.372Z" fill="#C6C0B8" fill-opacity="0.15"/>
<path d="M304.467 212.935H317.953V226.592H312.661V218.227H304.467V212.935Z" fill="#C6C0B8" fill-opacity="0.15"/>
<path d="M304.467 244.005H312.661V235.64H317.953V249.297H304.467V244.005Z" fill="#C6C0B8" fill-opacity="0.15"/>
<path d="M279.372 249.467V235.811H284.664V244.175H292.858V249.467H279.372Z" fill="#C6C0B8" fill-opacity="0.15"/>
<path d="M347.827 218.227H339.633V226.421H334.341V212.935H347.827V218.227Z" fill="#C6C0B8" fill-opacity="0.15"/>
<path d="M367.63 218.227H359.436V212.935H372.922V226.592H367.63V218.227Z" fill="#C6C0B8" fill-opacity="0.15"/>
<path d="M359.436 244.005H367.63V235.64H372.922V249.297H359.436V244.005Z" fill="#C6C0B8" fill-opacity="0.15"/>
<path d="M334.341 235.811H339.633V244.175H347.827V249.467H334.341V235.811Z" fill="#C6C0B8" fill-opacity="0.15"/>
<path d="M-51.125 226.421V212.935L-37.6388 212.765V218.057H-45.8329V226.421H-51.125Z" fill="#C6C0B8" fill-opacity="0.15"/>
<path d="M-26.0304 212.935H-12.5442V226.592H-17.8363V218.227H-26.0304V212.935Z" fill="#C6C0B8" fill-opacity="0.15"/>
<path d="M-26.0304 244.005H-17.8363V235.64H-12.5442V249.297H-26.0304V244.005Z" fill="#C6C0B8" fill-opacity="0.15"/>
<path d="M-51.125 249.467V235.811H-45.8329V244.175H-37.6388V249.467H-51.125Z" fill="#C6C0B8" fill-opacity="0.15"/>
<path d="M3.84404 226.421V212.935L17.3302 212.765V218.057H9.13609V226.421H3.84404Z" fill="#C6C0B8" fill-opacity="0.15"/>
<path d="M37.1327 218.227H28.9386V212.935H42.4248V226.592H37.1327V218.227Z" fill="#C6C0B8" fill-opacity="0.15"/>
<path d="M29.1093 244.005H37.3035V235.64H42.5955V249.297H29.1093V244.005Z" fill="#C6C0B8" fill-opacity="0.15"/>
<path d="M9.3068 244.005H17.5009V249.297H4.01475V235.64H9.3068V244.005Z" fill="#C6C0B8" fill-opacity="0.15"/>
<path d="M58.9838 226.421V212.935L72.47 212.765V218.057H64.2758V226.421H58.9838Z" fill="#C6C0B8" fill-opacity="0.15"/>
<path d="M92.2725 218.227H84.0784V212.935H97.5645V226.592H92.2725V218.227Z" fill="#C6C0B8" fill-opacity="0.15"/>
<path d="M84.0784 244.005H92.2725V235.64H97.5645V249.297H84.0784V244.005Z" fill="#C6C0B8" fill-opacity="0.15"/>
<path d="M58.9838 249.467V235.811H64.2758V244.175H72.47V249.467H58.9838Z" fill="#C6C0B8" fill-opacity="0.15"/>
<path d="M127.61 212.935V218.057H119.416V226.421H114.124V212.935H127.61Z" fill="#C6C0B8" fill-opacity="0.15"/>
<path d="M147.242 218.227H139.047V212.935H152.534V226.592H147.242V218.227Z" fill="#C6C0B8" fill-opacity="0.15"/>
<path d="M139.218 244.005H147.412V235.64H152.704V249.297H139.218V244.005Z" fill="#C6C0B8" fill-opacity="0.15"/>
<path d="M114.124 235.811H119.416V244.175H127.61V249.467H114.124V235.811Z" fill="#C6C0B8" fill-opacity="0.15"/>
<path d="M665.521 67.3184V53.6616H679.007V58.9536H670.813V67.3184H665.521Z" fill="#C6C0B8" fill-opacity="0.15"/>
<path d="M698.81 58.9536H690.616V53.4907H704.102V67.1477H698.81V58.9536Z" fill="#C6C0B8" fill-opacity="0.15"/>
<path d="M690.616 84.9016H698.81V76.5369H704.102V90.1938H690.616V84.9016Z" fill="#C6C0B8" fill-opacity="0.15"/>
<path d="M665.521 76.5369H670.813V84.9016H679.007V90.1938H665.521V76.5369Z" fill="#C6C0B8" fill-opacity="0.15"/>
<path d="M670.813 120.239H665.521V106.582H679.007V111.874H670.813V120.239Z" fill="#C6C0B8" fill-opacity="0.15"/>
<path d="M698.81 112.045H690.616V106.753H704.102V120.41H698.81V112.045Z" fill="#C6C0B8" fill-opacity="0.15"/>
<path d="M690.616 137.993H698.81V129.628H704.102V143.285H690.616V137.993Z" fill="#C6C0B8" fill-opacity="0.15"/>
<path d="M665.521 129.628H670.813V137.993H679.007V143.285H665.521V129.628Z" fill="#C6C0B8" fill-opacity="0.15"/>
<path d="M670.813 173.33H665.521V159.673H679.007V164.965H670.813V173.33Z" fill="#C6C0B8" fill-opacity="0.15"/>
<path d="M698.81 165.136H690.616V159.844H704.102V173.501H698.81V165.136Z" fill="#C6C0B8" fill-opacity="0.15"/>
<path d="M690.616 190.914H698.81V182.548H704.102V196.206H690.616V190.914Z" fill="#C6C0B8" fill-opacity="0.15"/>
<path d="M665.521 182.719H670.813V191.084H679.007V196.376H665.521V182.719Z" fill="#C6C0B8" fill-opacity="0.15"/>
<path d="M720.661 67.3184V53.6616H734.147V58.9536H725.953V67.3184H720.661Z" fill="#C6C0B8" fill-opacity="0.15"/>
<path d="M753.95 58.9536H745.755V53.4907H759.242V67.1477H753.95V58.9536Z" fill="#C6C0B8" fill-opacity="0.15"/>
<path d="M745.755 84.9016H753.95V76.5369H759.242V90.1938H745.755V84.9016Z" fill="#C6C0B8" fill-opacity="0.15"/>
<path d="M734.147 84.9016V90.1938H720.661V76.5369H725.953V84.9016H734.147Z" fill="#C6C0B8" fill-opacity="0.15"/>
<path d="M775.63 67.3184V53.6616H789.116V58.9536H780.922V67.3184H775.63Z" fill="#C6C0B8" fill-opacity="0.15"/>
<path d="M800.724 58.9536V53.4907H814.211V67.1477H808.919V58.9536H800.724Z" fill="#C6C0B8" fill-opacity="0.15"/>
<path d="M800.724 84.9016H808.919V76.5369H814.211V90.1938H800.724V84.9016Z" fill="#C6C0B8" fill-opacity="0.15"/>
<path d="M789.287 84.9016V90.1938H775.801V76.5369H781.093V84.9016H789.287Z" fill="#C6C0B8" fill-opacity="0.15"/>
<path d="M720.661 120.41V106.753H734.147V112.045H725.953V120.41H720.661Z" fill="#C6C0B8" fill-opacity="0.15"/>
<path d="M753.95 112.045H745.755V106.753H759.242V120.41H753.95V112.045Z" fill="#C6C0B8" fill-opacity="0.15"/>
<path d="M745.755 137.993H753.95V129.628H759.242V143.285H745.755V137.993Z" fill="#C6C0B8" fill-opacity="0.15"/>
<path d="M734.147 143.285H720.661V129.628H725.953V137.993H734.147V143.285Z" fill="#C6C0B8" fill-opacity="0.15"/>
<path d="M775.63 120.41V106.753H789.116V112.045H780.922V120.41H775.63Z" fill="#C6C0B8" fill-opacity="0.15"/>
<path d="M808.919 112.045H800.724V106.753H814.211V120.41H808.919V112.045Z" fill="#C6C0B8" fill-opacity="0.15"/>
<path d="M800.724 137.993H808.919V129.628H814.211V143.285H800.724V137.993Z" fill="#C6C0B8" fill-opacity="0.15"/>
<path d="M789.116 143.285H775.63V129.628H780.922V137.993H789.116V143.285Z" fill="#C6C0B8" fill-opacity="0.15"/>
<path d="M720.661 173.501V159.844H734.147V165.136H725.953V173.501H720.661Z" fill="#C6C0B8" fill-opacity="0.15"/>
<path d="M753.95 165.136H745.755V159.844H759.242V173.501H753.95V165.136Z" fill="#C6C0B8" fill-opacity="0.15"/>
<path d="M745.755 190.914H753.95V182.548H759.242V196.206H745.755V190.914Z" fill="#C6C0B8" fill-opacity="0.15"/>
<path d="M734.147 196.206H720.661V182.548H725.953V190.914H734.147V196.206Z" fill="#C6C0B8" fill-opacity="0.15"/>
<path d="M775.63 173.501V159.844H789.116V165.136H780.922V173.501H775.63Z" fill="#C6C0B8" fill-opacity="0.15"/>
<path d="M808.919 165.136H800.724V159.844H814.211V173.501H808.919V165.136Z" fill="#C6C0B8" fill-opacity="0.15"/>
<path d="M800.724 190.914H808.919V182.548H814.211V196.206H800.724V190.914Z" fill="#C6C0B8" fill-opacity="0.15"/>
<path d="M789.116 196.206H775.63V182.548H780.922V190.914H789.116V196.206Z" fill="#C6C0B8" fill-opacity="0.15"/>
<path d="M390.164 67.3184V53.6616H403.65V58.9536H395.456V67.3184H390.164Z" fill="#C6C0B8" fill-opacity="0.15"/>
<path d="M415.258 53.6616H428.744V67.1477H423.452V58.9536H415.258V53.6616Z" fill="#C6C0B8" fill-opacity="0.15"/>
<path d="M428.744 76.5369V90.1938H415.258V84.9016H423.452V76.5369H428.744Z" fill="#C6C0B8" fill-opacity="0.15"/>
<path d="M395.456 84.9016H403.65V90.1938H390.164V76.5369H395.456V84.9016Z" fill="#C6C0B8" fill-opacity="0.15"/>
<path d="M395.456 120.239H390.164V106.582H403.65V111.874H395.456V120.239Z" fill="#C6C0B8" fill-opacity="0.15"/>
<path d="M423.452 112.045H415.258V106.753H428.744V120.41H423.452V112.045Z" fill="#C6C0B8" fill-opacity="0.15"/>
<path d="M428.744 143.285H415.258V137.993H423.452V129.628H428.744V143.285Z" fill="#C6C0B8" fill-opacity="0.15"/>
<path d="M395.456 137.993H403.65V143.285H390.164V129.628H395.456V137.993Z" fill="#C6C0B8" fill-opacity="0.15"/>
<path d="M395.456 173.33H390.164V159.673H403.65V164.965H395.456V173.33Z" fill="#C6C0B8" fill-opacity="0.15"/>
<path d="M423.452 165.136H415.258V159.844H428.744V173.501H423.452V165.136Z" fill="#C6C0B8" fill-opacity="0.15"/>
<path d="M428.744 196.206H415.258V190.914H423.452V182.548H428.744V196.206Z" fill="#C6C0B8" fill-opacity="0.15"/>
<path d="M395.456 190.914H403.65V196.206H390.164V182.548H395.456V190.914Z" fill="#C6C0B8" fill-opacity="0.15"/>
<path d="M450.596 173.33H445.303V159.673H458.79V164.965H450.596V173.33Z" fill="#C6C0B8" fill-opacity="0.15"/>
<path d="M470.227 165.136V159.844H483.714V173.501H478.422V165.136H470.227Z" fill="#C6C0B8" fill-opacity="0.15"/>
<path d="M470.398 190.914H478.592V182.548H483.884V196.206H470.398V190.914Z" fill="#C6C0B8" fill-opacity="0.15"/>
<path d="M450.596 190.914H458.79V196.206H445.303V182.548H450.596V190.914Z" fill="#C6C0B8" fill-opacity="0.15"/>
<path d="M513.759 112.045H505.565V120.41H500.273V106.753H513.759V112.045Z" fill="#C6C0B8" fill-opacity="0.15"/>
<path d="M525.367 112.045V106.753H538.853V120.41H533.561V112.045H525.367Z" fill="#C6C0B8" fill-opacity="0.15"/>
<path d="M525.538 137.993H533.732V129.628H539.024V143.285H525.538V137.993Z" fill="#C6C0B8" fill-opacity="0.15"/>
<path d="M500.273 129.628H505.565V137.993H513.759V143.285H500.273V129.628Z" fill="#C6C0B8" fill-opacity="0.15"/>
<path d="M560.704 120.239H555.412V106.582H568.898V111.874H560.704V120.239Z" fill="#C6C0B8" fill-opacity="0.15"/>
<path d="M580.507 112.045V106.753H593.993V120.41H588.701V112.045H580.507Z" fill="#C6C0B8" fill-opacity="0.15"/>
<path d="M580.507 137.993H588.701V129.628H593.993V143.285H580.507V137.993Z" fill="#C6C0B8" fill-opacity="0.15"/>
<path d="M555.412 143.285V129.628H560.704V137.993H568.898V143.285H555.412Z" fill="#C6C0B8" fill-opacity="0.15"/>
<path d="M513.929 159.844V165.136H505.565V173.501H500.273V159.844H513.929Z" fill="#C6C0B8" fill-opacity="0.15"/>
<path d="M525.367 165.136V159.844H538.853V173.501H533.561V165.136H525.367Z" fill="#C6C0B8" fill-opacity="0.15"/>
<path d="M525.538 190.914H533.732V182.548H539.024V196.206H525.538V190.914Z" fill="#C6C0B8" fill-opacity="0.15"/>
<path d="M500.273 182.719H505.565V191.084H513.759V196.376H500.273V182.719Z" fill="#C6C0B8" fill-opacity="0.15"/>
<path d="M560.704 173.33H555.412V159.673H568.898V164.965H560.704V173.33Z" fill="#C6C0B8" fill-opacity="0.15"/>
<path d="M580.507 165.136V159.844H593.993V173.501H588.701V165.136H580.507Z" fill="#C6C0B8" fill-opacity="0.15"/>
<path d="M580.507 190.914H588.701V182.548H593.993V196.206H580.507V190.914Z" fill="#C6C0B8" fill-opacity="0.15"/>
<path d="M555.412 196.376V182.719H560.704V191.084H568.898V196.376H555.412Z" fill="#C6C0B8" fill-opacity="0.15"/>
<path d="M678.154 218.227H669.96V226.421H664.667V212.935H678.154V218.227Z" fill="#C6C0B8" fill-opacity="0.15"/>
<path d="M703.248 226.421H697.956V218.057H689.762V212.765H703.248V226.421Z" fill="#C6C0B8" fill-opacity="0.15"/>
<path d="M697.956 235.811H703.248V249.467H689.762V244.175H697.956V235.811Z" fill="#C6C0B8" fill-opacity="0.15"/>
<path d="M664.667 249.467V235.811H669.96V244.175H678.154V249.467H664.667Z" fill="#C6C0B8" fill-opacity="0.15"/>
<path d="M733.293 218.227H725.099V226.421H719.807V212.935H733.293V218.227Z" fill="#C6C0B8" fill-opacity="0.15"/>
<path d="M758.388 226.421H753.096V218.057H744.902V212.765H758.388V226.421Z" fill="#C6C0B8" fill-opacity="0.15"/>
<path d="M758.388 235.64V249.297H744.902V244.005H753.096V235.64H758.388Z" fill="#C6C0B8" fill-opacity="0.15"/>
<path d="M725.099 244.005H733.293V249.297H719.807V235.64H725.099V244.005Z" fill="#C6C0B8" fill-opacity="0.15"/>
<path d="M775.63 226.421V212.935L789.116 212.765V218.057H780.922V226.421H775.63Z" fill="#C6C0B8" fill-opacity="0.15"/>
<path d="M808.919 218.227H800.724V212.935H814.211V226.592H808.919V218.227Z" fill="#C6C0B8" fill-opacity="0.15"/>
<path d="M800.724 244.005H808.919V235.64H814.211V249.297H800.724V244.005Z" fill="#C6C0B8" fill-opacity="0.15"/>
<path d="M789.287 244.005V249.297H775.801V235.64H781.093V244.005H789.287Z" fill="#C6C0B8" fill-opacity="0.15"/>
<path d="M390.164 226.421V212.935L403.65 212.765V218.057H395.456V226.421H390.164Z" fill="#C6C0B8" fill-opacity="0.15"/>
<path d="M415.258 212.935H428.744V226.592H423.452V218.227H415.258V212.935Z" fill="#C6C0B8" fill-opacity="0.15"/>
<path d="M415.258 244.005H423.452V235.64H428.744V249.297H415.258V244.005Z" fill="#C6C0B8" fill-opacity="0.15"/>
<path d="M395.456 244.005H403.65V249.297H390.164V235.64H395.456V244.005Z" fill="#C6C0B8" fill-opacity="0.15"/>
<path d="M445.303 226.421V212.935L458.79 212.765V218.057H450.596V226.421H445.303Z" fill="#C6C0B8" fill-opacity="0.15"/>
<path d="M470.227 218.227V212.935H483.714V226.592H478.422V218.227H470.227Z" fill="#C6C0B8" fill-opacity="0.15"/>
<path d="M470.398 244.005H478.592V235.64H483.884V249.297H470.398V244.005Z" fill="#C6C0B8" fill-opacity="0.15"/>
<path d="M450.596 244.005H458.79V249.297H445.303V235.64H450.596V244.005Z" fill="#C6C0B8" fill-opacity="0.15"/>
<path d="M513.929 212.935V218.057H505.565V226.421H500.273V212.935H513.929Z" fill="#C6C0B8" fill-opacity="0.15"/>
<path d="M538.17 226.421H532.878V218.057H524.684V212.765H538.17V226.421Z" fill="#C6C0B8" fill-opacity="0.15"/>
<path d="M532.878 235.811H538.17V249.467H524.684V244.175H532.878V235.811Z" fill="#C6C0B8" fill-opacity="0.15"/>
<path d="M500.273 235.811H505.565V244.175H513.759V249.467H500.273V235.811Z" fill="#C6C0B8" fill-opacity="0.15"/>
<path d="M568.045 218.227H559.851V226.421H554.559V212.935H568.045V218.227Z" fill="#C6C0B8" fill-opacity="0.15"/>
<path d="M593.139 226.421H587.847V218.057H579.653V212.765H593.139V226.421Z" fill="#C6C0B8" fill-opacity="0.15"/>
<path d="M587.847 235.811H593.139V249.467H579.653V244.175H587.847V235.811Z" fill="#C6C0B8" fill-opacity="0.15"/>
<path d="M554.559 249.467V235.811H559.851V244.175H568.045V249.467H554.559Z" fill="#C6C0B8" fill-opacity="0.15"/>
<path d="M1062.58 0.570312H1049.09V14.2273H1054.38V5.8623H1062.58V0.570312Z" fill="#C6C0B8" fill-opacity="0.15"/>
<path d="M1082.38 5.8623H1074.19V0.570312H1087.67V14.2273H1082.38V5.8623Z" fill="#C6C0B8" fill-opacity="0.15"/>
<path d="M1074.36 31.8105H1082.55V23.4456H1087.84V37.1025H1074.36V31.8105Z" fill="#C6C0B8" fill-opacity="0.15"/>
<path d="M1049.09 37.1025V23.4456H1054.38V31.8105H1062.58V37.1025H1049.09Z" fill="#C6C0B8" fill-opacity="0.15"/>
<path d="M1049.09 67.3184V53.6616H1062.58V58.9536H1054.38V67.3184H1049.09Z" fill="#C6C0B8" fill-opacity="0.15"/>
<path d="M1082.38 58.9536H1074.19V53.4907H1087.67V67.1477H1082.38V58.9536Z" fill="#C6C0B8" fill-opacity="0.15"/>
<path d="M1074.36 84.9016H1082.55V76.5369H1087.84V90.1938H1074.36V84.9016Z" fill="#C6C0B8" fill-opacity="0.15"/>
<path d="M1049.09 90.1938V76.5369H1054.38V84.9016H1062.58V90.1938H1049.09Z" fill="#C6C0B8" fill-opacity="0.15"/>
<path d="M1049.09 120.41V106.753H1062.58V112.045H1054.38V120.41H1049.09Z" fill="#C6C0B8" fill-opacity="0.15"/>
<path d="M1082.38 112.045H1074.19V106.753H1087.67V120.41H1082.38V112.045Z" fill="#C6C0B8" fill-opacity="0.15"/>
<path d="M1074.36 137.993H1082.55V129.628H1087.84V143.285H1074.36V137.993Z" fill="#C6C0B8" fill-opacity="0.15"/>
<path d="M1049.09 143.285V129.628H1054.38V137.993H1062.58V143.285H1049.09Z" fill="#C6C0B8" fill-opacity="0.15"/>
<path d="M1049.09 173.501V159.844H1062.58V165.136H1054.38V173.501H1049.09Z" fill="#C6C0B8" fill-opacity="0.15"/>
<path d="M1082.38 165.136H1074.19V159.844H1087.67V173.501H1082.38V165.136Z" fill="#C6C0B8" fill-opacity="0.15"/>
<path d="M1074.36 190.914H1082.55V182.548H1087.84V196.206H1074.36V190.914Z" fill="#C6C0B8" fill-opacity="0.15"/>
<path d="M1049.09 196.376V182.719H1054.38V191.084H1062.58V196.376H1049.09Z" fill="#C6C0B8" fill-opacity="0.15"/>
<path d="M1227.83 58.9536H1219.63V67.3184H1214.34V53.6616H1227.83V58.9536Z" fill="#C6C0B8" fill-opacity="0.15"/>
<path d="M1247.63 58.9536H1239.44V53.4907H1252.92V67.1477H1247.63V58.9536Z" fill="#C6C0B8" fill-opacity="0.15"/>
<path d="M1239.44 84.9016H1247.63V76.5369H1252.92V90.1938H1239.44V84.9016Z" fill="#C6C0B8" fill-opacity="0.15"/>
<path d="M1214.34 76.5369H1219.63V84.9016H1227.83V90.1938H1214.34V76.5369Z" fill="#C6C0B8" fill-opacity="0.15"/>
<path d="M1164.66 120.239H1159.37V106.582H1172.86V111.874H1164.66V120.239Z" fill="#C6C0B8" fill-opacity="0.15"/>
<path d="M1197.95 120.239H1192.66V111.874H1184.47V106.582H1197.95V120.239Z" fill="#C6C0B8" fill-opacity="0.15"/>
<path d="M1197.95 129.628V143.285H1184.47V137.993H1192.66V129.628H1197.95Z" fill="#C6C0B8" fill-opacity="0.15"/>
<path d="M1159.37 143.285V129.628H1164.66V137.993H1172.86V143.285H1159.37Z" fill="#C6C0B8" fill-opacity="0.15"/>
<path d="M1227.83 112.045H1219.63V120.41H1214.34V106.753H1227.83V112.045Z" fill="#C6C0B8" fill-opacity="0.15"/>
<path d="M1247.63 112.045H1239.44V106.753H1252.92V120.41H1247.63V112.045Z" fill="#C6C0B8" fill-opacity="0.15"/>
<path d="M1239.44 137.993H1247.63V129.628H1252.92V143.285H1239.44V137.993Z" fill="#C6C0B8" fill-opacity="0.15"/>
<path d="M1214.34 129.628H1219.63V137.993H1227.83V143.285H1214.34V129.628Z" fill="#C6C0B8" fill-opacity="0.15"/>
<path d="M1164.66 173.33H1159.37V159.673H1172.86V164.965H1164.66V173.33Z" fill="#C6C0B8" fill-opacity="0.15"/>
<path d="M1197.95 159.673V173.33H1192.66V164.965H1184.47V159.673H1197.95Z" fill="#C6C0B8" fill-opacity="0.15"/>
<path d="M1197.95 182.548V196.206H1184.47V190.914H1192.66V182.548H1197.95Z" fill="#C6C0B8" fill-opacity="0.15"/>
<path d="M1159.37 196.376V182.719H1164.66V191.084H1172.86V196.376H1159.37Z" fill="#C6C0B8" fill-opacity="0.15"/>
<path d="M1227.83 165.136H1219.63V173.501H1214.34V159.844H1227.83V165.136Z" fill="#C6C0B8" fill-opacity="0.15"/>
<path d="M1247.63 165.136H1239.44V159.844H1252.92V173.501H1247.63V165.136Z" fill="#C6C0B8" fill-opacity="0.15"/>
<path d="M1239.44 190.914H1247.63V182.548H1252.92V196.206H1239.44V190.914Z" fill="#C6C0B8" fill-opacity="0.15"/>
<path d="M1214.34 182.719H1219.63V191.084H1227.83V196.376H1214.34V182.719Z" fill="#C6C0B8" fill-opacity="0.15"/>
<path d="M828.875 67.3184V53.6616H842.361V58.9536H834.167V67.3184H828.875Z" fill="#C6C0B8" fill-opacity="0.15"/>
<path d="M853.97 53.6616H867.456V67.1477H862.164V58.9536H853.97V53.6616Z" fill="#C6C0B8" fill-opacity="0.15"/>
<path d="M867.456 76.5369V90.1938H853.97V84.9016H862.164V76.5369H867.456Z" fill="#C6C0B8" fill-opacity="0.15"/>
<path d="M828.875 90.1938V76.5369H834.167V84.9016H842.361V90.1938H828.875Z" fill="#C6C0B8" fill-opacity="0.15"/>
<path d="M883.844 67.3184V53.6616H897.33V58.9536H889.136V67.3184H883.844Z" fill="#C6C0B8" fill-opacity="0.15"/>
<path d="M917.133 58.9536H908.939V53.4907H922.425V67.1477H917.133V58.9536Z" fill="#C6C0B8" fill-opacity="0.15"/>
<path d="M909.109 84.9016H917.303V76.5369H922.596V90.1938H909.109V84.9016Z" fill="#C6C0B8" fill-opacity="0.15"/>
<path d="M889.307 84.9016H897.501V90.1938H884.015V76.5369H889.307V84.9016Z" fill="#C6C0B8" fill-opacity="0.15"/>
<path d="M834.167 120.239H828.875V106.582H842.361V111.874H834.167V120.239Z" fill="#C6C0B8" fill-opacity="0.15"/>
<path d="M867.456 106.582V120.239H862.164V111.874H853.97V106.582H867.456Z" fill="#C6C0B8" fill-opacity="0.15"/>
<path d="M867.456 129.628V143.285H853.97V137.993H862.164V129.628H867.456Z" fill="#C6C0B8" fill-opacity="0.15"/>
<path d="M828.875 143.285V129.628H834.167V137.993H842.361V143.285H828.875Z" fill="#C6C0B8" fill-opacity="0.15"/>
<path d="M889.136 120.239H883.844V106.582H897.33V111.874H889.136V120.239Z" fill="#C6C0B8" fill-opacity="0.15"/>
<path d="M917.133 112.045H908.939V106.753H922.425V120.41H917.133V112.045Z" fill="#C6C0B8" fill-opacity="0.15"/>
<path d="M909.109 137.993H917.303V129.628H922.596V143.285H909.109V137.993Z" fill="#C6C0B8" fill-opacity="0.15"/>
<path d="M889.307 137.993H897.501V143.285H884.015V129.628H889.307V137.993Z" fill="#C6C0B8" fill-opacity="0.15"/>
<path d="M834.167 173.33H828.875V159.673H842.361V164.965H834.167V173.33Z" fill="#C6C0B8" fill-opacity="0.15"/>
<path d="M867.456 159.673V173.33H862.164V164.965H853.97V159.673H867.456Z" fill="#C6C0B8" fill-opacity="0.15"/>
<path d="M867.456 182.548V196.206H853.97V190.914H862.164V182.548H867.456Z" fill="#C6C0B8" fill-opacity="0.15"/>
<path d="M828.875 196.376V182.719H834.167V191.084H842.361V196.376H828.875Z" fill="#C6C0B8" fill-opacity="0.15"/>
<path d="M889.136 173.33H883.844V159.673H897.33V164.965H889.136V173.33Z" fill="#C6C0B8" fill-opacity="0.15"/>
<path d="M917.133 165.136H908.939V159.844H922.425V173.501H917.133V165.136Z" fill="#C6C0B8" fill-opacity="0.15"/>
<path d="M909.109 190.914H917.303V182.548H922.596V196.206H909.109V190.914Z" fill="#C6C0B8" fill-opacity="0.15"/>
<path d="M889.307 190.914H897.501V196.206H884.015V182.548H889.307V190.914Z" fill="#C6C0B8" fill-opacity="0.15"/>
<path d="M1007.61 5.8623H999.416V14.2273H994.124V0.570312H1007.61V5.8623Z" fill="#C6C0B8" fill-opacity="0.15"/>
<path d="M1027.24 5.8623H1019.05V0.570312H1032.53V14.2273H1027.24V5.8623Z" fill="#C6C0B8" fill-opacity="0.15"/>
<path d="M1019.22 31.8105H1027.41V23.4456H1032.7V37.1025H1019.22V31.8105Z" fill="#C6C0B8" fill-opacity="0.15"/>
<path d="M994.124 23.4456H999.416V31.8105H1007.61V37.1025H994.124V23.4456Z" fill="#C6C0B8" fill-opacity="0.15"/>
<path d="M1007.61 53.6616V58.9536H999.416V67.3184H994.124V53.6616H1007.61Z" fill="#C6C0B8" fill-opacity="0.15"/>
<path d="M1027.24 58.9536H1019.05V53.4907H1032.53V67.1477H1027.24V58.9536Z" fill="#C6C0B8" fill-opacity="0.15"/>
<path d="M1019.22 84.9016H1027.41V76.5369H1032.7V90.1938H1019.22V84.9016Z" fill="#C6C0B8" fill-opacity="0.15"/>
<path d="M994.124 76.5369H999.416V84.9016H1007.61V90.1938H994.124V76.5369Z" fill="#C6C0B8" fill-opacity="0.15"/>
<path d="M944.276 120.239H938.984V106.582H952.47V111.874H944.276V120.239Z" fill="#C6C0B8" fill-opacity="0.15"/>
<path d="M972.272 112.045H964.078V106.753H977.565V120.41H972.272V112.045Z" fill="#C6C0B8" fill-opacity="0.15"/>
<path d="M964.078 137.993H972.272V129.628H977.565V143.285H964.078V137.993Z" fill="#C6C0B8" fill-opacity="0.15"/>
<path d="M938.984 143.285V129.628H944.276V137.993H952.47V143.285H938.984Z" fill="#C6C0B8" fill-opacity="0.15"/>
<path d="M1007.61 106.753V112.045H999.416V120.41H994.124V106.753H1007.61Z" fill="#C6C0B8" fill-opacity="0.15"/>
<path d="M1027.24 112.045H1019.05V106.753H1032.53V120.41H1027.24V112.045Z" fill="#C6C0B8" fill-opacity="0.15"/>
<path d="M1019.22 137.993H1027.41V129.628H1032.7V143.285H1019.22V137.993Z" fill="#C6C0B8" fill-opacity="0.15"/>
<path d="M994.124 129.628H999.416V137.993H1007.61V143.285H994.124V129.628Z" fill="#C6C0B8" fill-opacity="0.15"/>
<path d="M944.276 173.33H938.984V159.673H952.47V164.965H944.276V173.33Z" fill="#C6C0B8" fill-opacity="0.15"/>
<path d="M972.272 165.136H964.078V159.844H977.565V173.501H972.272V165.136Z" fill="#C6C0B8" fill-opacity="0.15"/>
<path d="M964.078 190.914H972.272V182.548H977.565V196.206H964.078V190.914Z" fill="#C6C0B8" fill-opacity="0.15"/>
<path d="M938.984 196.376V182.719H944.276V191.084H952.47V196.376H938.984Z" fill="#C6C0B8" fill-opacity="0.15"/>
<path d="M1007.61 159.844V165.136H999.416V173.501H994.124V159.844H1007.61Z" fill="#C6C0B8" fill-opacity="0.15"/>
<path d="M1027.24 165.136H1019.05V159.844H1032.53V173.501H1027.24V165.136Z" fill="#C6C0B8" fill-opacity="0.15"/>
<path d="M1019.22 190.914H1027.41V182.548H1032.7V196.206H1019.22V190.914Z" fill="#C6C0B8" fill-opacity="0.15"/>
<path d="M994.124 182.719H999.416V191.084H1007.61V196.376H994.124V182.719Z" fill="#C6C0B8" fill-opacity="0.15"/>
<path d="M1049.09 226.421V212.935L1062.58 212.765V218.057H1054.38V226.421H1049.09Z" fill="#C6C0B8" fill-opacity="0.15"/>
<path d="M1082.38 218.227H1074.19V212.935H1087.67V226.592H1082.38V218.227Z" fill="#C6C0B8" fill-opacity="0.15"/>
<path d="M1074.36 244.005H1082.55V235.64H1087.84V249.297H1074.36V244.005Z" fill="#C6C0B8" fill-opacity="0.15"/>
<path d="M1049.09 249.467V235.811H1054.38V244.175H1062.58V249.467H1049.09Z" fill="#C6C0B8" fill-opacity="0.15"/>
<path d="M1104.23 226.421V212.935L1117.72 212.765V218.057H1109.52V226.421H1104.23Z" fill="#C6C0B8" fill-opacity="0.15"/>
<path d="M1137.52 218.227H1129.33V212.935H1142.81V226.592H1137.52V218.227Z" fill="#C6C0B8" fill-opacity="0.15"/>
<path d="M1129.33 244.005H1137.52V235.64H1142.81V249.297H1129.33V244.005Z" fill="#C6C0B8" fill-opacity="0.15"/>
<path d="M1109.52 244.005H1117.72V249.297H1104.23V235.64H1109.52V244.005Z" fill="#C6C0B8" fill-opacity="0.15"/>
<path d="M1159.37 226.421V212.935L1172.86 212.765V218.057H1164.66V226.421H1159.37Z" fill="#C6C0B8" fill-opacity="0.15"/>
<path d="M1184.47 212.935H1197.95V226.592H1192.66V218.227H1184.47V212.935Z" fill="#C6C0B8" fill-opacity="0.15"/>
<path d="M1184.47 244.005H1192.66V235.64H1197.95V249.297H1184.47V244.005Z" fill="#C6C0B8" fill-opacity="0.15"/>
<path d="M1159.37 249.467V235.811H1164.66V244.175H1172.86V249.467H1159.37Z" fill="#C6C0B8" fill-opacity="0.15"/>
<path d="M1227.83 218.227H1219.63V226.421H1214.34V212.935H1227.83V218.227Z" fill="#C6C0B8" fill-opacity="0.15"/>
<path d="M1247.63 218.227H1239.44V212.935H1252.92V226.592H1247.63V218.227Z" fill="#C6C0B8" fill-opacity="0.15"/>
<path d="M1239.44 244.005H1247.63V235.64H1252.92V249.297H1239.44V244.005Z" fill="#C6C0B8" fill-opacity="0.15"/>
<path d="M1214.34 235.811H1219.63V244.175H1227.83V249.467H1214.34V235.811Z" fill="#C6C0B8" fill-opacity="0.15"/>
<path d="M828.875 226.421V212.935L842.361 212.765V218.057H834.167V226.421H828.875Z" fill="#C6C0B8" fill-opacity="0.15"/>
<path d="M853.97 212.935H867.456V226.592H862.164V218.227H853.97V212.935Z" fill="#C6C0B8" fill-opacity="0.15"/>
<path d="M853.97 244.005H862.164V235.64H867.456V249.297H853.97V244.005Z" fill="#C6C0B8" fill-opacity="0.15"/>
<path d="M828.875 249.467V235.811H834.167V244.175H842.361V249.467H828.875Z" fill="#C6C0B8" fill-opacity="0.15"/>
<path d="M883.844 226.421V212.935L897.33 212.765V218.057H889.136V226.421H883.844Z" fill="#C6C0B8" fill-opacity="0.15"/>
<path d="M917.133 218.227H908.939V212.935H922.425V226.592H917.133V218.227Z" fill="#C6C0B8" fill-opacity="0.15"/>
<path d="M909.109 244.005H917.303V235.64H922.596V249.297H909.109V244.005Z" fill="#C6C0B8" fill-opacity="0.15"/>
<path d="M889.307 244.005H897.501V249.297H884.015V235.64H889.307V244.005Z" fill="#C6C0B8" fill-opacity="0.15"/>
<path d="M938.984 226.421V212.935L952.47 212.765V218.057H944.276V226.421H938.984Z" fill="#C6C0B8" fill-opacity="0.15"/>
<path d="M972.272 218.227H964.078V212.935H977.565V226.592H972.272V218.227Z" fill="#C6C0B8" fill-opacity="0.15"/>
<path d="M964.078 244.005H972.272V235.64H977.565V249.297H964.078V244.005Z" fill="#C6C0B8" fill-opacity="0.15"/>
<path d="M938.984 249.467V235.811H944.276V244.175H952.47V249.467H938.984Z" fill="#C6C0B8" fill-opacity="0.15"/>
<path d="M1007.61 212.935V218.057H999.416V226.421H994.124V212.935H1007.61Z" fill="#C6C0B8" fill-opacity="0.15"/>
<path d="M1027.24 218.227H1019.05V212.935H1032.53V226.592H1027.24V218.227Z" fill="#C6C0B8" fill-opacity="0.15"/>
<path d="M1019.22 244.005H1027.41V235.64H1032.7V249.297H1019.22V244.005Z" fill="#C6C0B8" fill-opacity="0.15"/>
<path d="M994.124 235.811H999.416V244.175H1007.61V249.467H994.124V235.811Z" fill="#C6C0B8" fill-opacity="0.15"/>
<path d="M1545.52 67.3184V53.6616H1559.01V58.9536H1550.81V67.3184H1545.52Z" fill="#C6C0B8" fill-opacity="0.15"/>
<path d="M1578.81 58.9536H1570.62V53.4907H1584.1V67.1477H1578.81V58.9536Z" fill="#C6C0B8" fill-opacity="0.15"/>
<path d="M1570.62 84.9016H1578.81V76.5369H1584.1V90.1938H1570.62V84.9016Z" fill="#C6C0B8" fill-opacity="0.15"/>
<path d="M1545.52 76.5369H1550.81V84.9016H1559.01V90.1938H1545.52V76.5369Z" fill="#C6C0B8" fill-opacity="0.15"/>
<path d="M1550.81 120.239H1545.52V106.582H1559.01V111.874H1550.81V120.239Z" fill="#C6C0B8" fill-opacity="0.15"/>
<path d="M1578.81 112.045H1570.62V106.753H1584.1V120.41H1578.81V112.045Z" fill="#C6C0B8" fill-opacity="0.15"/>
<path d="M1570.62 137.993H1578.81V129.628H1584.1V143.285H1570.62V137.993Z" fill="#C6C0B8" fill-opacity="0.15"/>
<path d="M1545.52 129.628H1550.81V137.993H1559.01V143.285H1545.52V129.628Z" fill="#C6C0B8" fill-opacity="0.15"/>
<path d="M1550.81 173.33H1545.52V159.673H1559.01V164.965H1550.81V173.33Z" fill="#C6C0B8" fill-opacity="0.15"/>
<path d="M1578.81 165.136H1570.62V159.844H1584.1V173.501H1578.81V165.136Z" fill="#C6C0B8" fill-opacity="0.15"/>
<path d="M1570.62 190.914H1578.81V182.548H1584.1V196.206H1570.62V190.914Z" fill="#C6C0B8" fill-opacity="0.15"/>
<path d="M1545.52 182.719H1550.81V191.084H1559.01V196.376H1545.52V182.719Z" fill="#C6C0B8" fill-opacity="0.15"/>
<path d="M1600.66 67.3184V53.6616H1614.15V58.9536H1605.95V67.3184H1600.66Z" fill="#C6C0B8" fill-opacity="0.15"/>
<path d="M1633.95 58.9536H1625.76V53.4907H1639.24V67.1477H1633.95V58.9536Z" fill="#C6C0B8" fill-opacity="0.15"/>
<path d="M1625.76 84.9016H1633.95V76.5369H1639.24V90.1938H1625.76V84.9016Z" fill="#C6C0B8" fill-opacity="0.15"/>
<path d="M1614.15 84.9016V90.1938H1600.66V76.5369H1605.95V84.9016H1614.15Z" fill="#C6C0B8" fill-opacity="0.15"/>
<path d="M1655.63 67.3184V53.6616H1669.12V58.9536H1660.92V67.3184H1655.63Z" fill="#C6C0B8" fill-opacity="0.15"/>
<path d="M1680.72 58.9536V53.4907H1694.21V67.1477H1688.92V58.9536H1680.72Z" fill="#C6C0B8" fill-opacity="0.15"/>
<path d="M1680.72 84.9016H1688.92V76.5369H1694.21V90.1938H1680.72V84.9016Z" fill="#C6C0B8" fill-opacity="0.15"/>
<path d="M1669.29 84.9016V90.1938H1655.8V76.5369H1661.09V84.9016H1669.29Z" fill="#C6C0B8" fill-opacity="0.15"/>
<path d="M1600.66 120.41V106.753H1614.15V112.045H1605.95V120.41H1600.66Z" fill="#C6C0B8" fill-opacity="0.15"/>
<path d="M1633.95 112.045H1625.76V106.753H1639.24V120.41H1633.95V112.045Z" fill="#C6C0B8" fill-opacity="0.15"/>
<path d="M1625.76 137.993H1633.95V129.628H1639.24V143.285H1625.76V137.993Z" fill="#C6C0B8" fill-opacity="0.15"/>
<path d="M1614.15 143.285H1600.66V129.628H1605.95V137.993H1614.15V143.285Z" fill="#C6C0B8" fill-opacity="0.15"/>
<path d="M1655.63 120.41V106.753H1669.12V112.045H1660.92V120.41H1655.63Z" fill="#C6C0B8" fill-opacity="0.15"/>
<path d="M1688.92 112.045H1680.72V106.753H1694.21V120.41H1688.92V112.045Z" fill="#C6C0B8" fill-opacity="0.15"/>
<path d="M1680.72 137.993H1688.92V129.628H1694.21V143.285H1680.72V137.993Z" fill="#C6C0B8" fill-opacity="0.15"/>
<path d="M1669.12 143.285H1655.63V129.628H1660.92V137.993H1669.12V143.285Z" fill="#C6C0B8" fill-opacity="0.15"/>
<path d="M1600.66 173.501V159.844H1614.15V165.136H1605.95V173.501H1600.66Z" fill="#C6C0B8" fill-opacity="0.15"/>
<path d="M1633.95 165.136H1625.76V159.844H1639.24V173.501H1633.95V165.136Z" fill="#C6C0B8" fill-opacity="0.15"/>
<path d="M1625.76 190.914H1633.95V182.548H1639.24V196.206H1625.76V190.914Z" fill="#C6C0B8" fill-opacity="0.15"/>
<path d="M1614.15 196.206H1600.66V182.548H1605.95V190.914H1614.15V196.206Z" fill="#C6C0B8" fill-opacity="0.15"/>
<path d="M1655.63 173.501V159.844H1669.12V165.136H1660.92V173.501H1655.63Z" fill="#C6C0B8" fill-opacity="0.15"/>
<path d="M1688.92 165.136H1680.72V159.844H1694.21V173.501H1688.92V165.136Z" fill="#C6C0B8" fill-opacity="0.15"/>
<path d="M1680.72 190.914H1688.92V182.548H1694.21V196.206H1680.72V190.914Z" fill="#C6C0B8" fill-opacity="0.15"/>
<path d="M1669.12 196.206H1655.63V182.548H1660.92V190.914H1669.12V196.206Z" fill="#C6C0B8" fill-opacity="0.15"/>
<path d="M1270.16 67.3184V53.6616H1283.65V58.9536H1275.46V67.3184H1270.16Z" fill="#C6C0B8" fill-opacity="0.15"/>
<path d="M1295.26 53.6616H1308.74V67.1477H1303.45V58.9536H1295.26V53.6616Z" fill="#C6C0B8" fill-opacity="0.15"/>
<path d="M1308.74 76.5369V90.1938H1295.26V84.9016H1303.45V76.5369H1308.74Z" fill="#C6C0B8" fill-opacity="0.15"/>
<path d="M1275.46 84.9016H1283.65V90.1938H1270.16V76.5369H1275.46V84.9016Z" fill="#C6C0B8" fill-opacity="0.15"/>
<path d="M1275.46 120.239H1270.16V106.582H1283.65V111.874H1275.46V120.239Z" fill="#C6C0B8" fill-opacity="0.15"/>
<path d="M1303.45 112.045H1295.26V106.753H1308.74V120.41H1303.45V112.045Z" fill="#C6C0B8" fill-opacity="0.15"/>
<path d="M1308.74 143.285H1295.26V137.993H1303.45V129.628H1308.74V143.285Z" fill="#C6C0B8" fill-opacity="0.15"/>
<path d="M1275.46 137.993H1283.65V143.285H1270.16V129.628H1275.46V137.993Z" fill="#C6C0B8" fill-opacity="0.15"/>
<path d="M1275.46 173.33H1270.16V159.673H1283.65V164.965H1275.46V173.33Z" fill="#C6C0B8" fill-opacity="0.15"/>
<path d="M1303.45 165.136H1295.26V159.844H1308.74V173.501H1303.45V165.136Z" fill="#C6C0B8" fill-opacity="0.15"/>
<path d="M1308.74 196.206H1295.26V190.914H1303.45V182.548H1308.74V196.206Z" fill="#C6C0B8" fill-opacity="0.15"/>
<path d="M1275.46 190.914H1283.65V196.206H1270.16V182.548H1275.46V190.914Z" fill="#C6C0B8" fill-opacity="0.15"/>
<path d="M1330.6 173.33H1325.3V159.673H1338.79V164.965H1330.6V173.33Z" fill="#C6C0B8" fill-opacity="0.15"/>
<path d="M1350.23 165.136V159.844H1363.71V173.501H1358.42V165.136H1350.23Z" fill="#C6C0B8" fill-opacity="0.15"/>
<path d="M1350.4 190.914H1358.59V182.548H1363.88V196.206H1350.4V190.914Z" fill="#C6C0B8" fill-opacity="0.15"/>
<path d="M1330.6 190.914H1338.79V196.206H1325.3V182.548H1330.6V190.914Z" fill="#C6C0B8" fill-opacity="0.15"/>
<path d="M1393.76 112.045H1385.56V120.41H1380.27V106.753H1393.76V112.045Z" fill="#C6C0B8" fill-opacity="0.15"/>
<path d="M1405.37 112.045V106.753H1418.85V120.41H1413.56V112.045H1405.37Z" fill="#C6C0B8" fill-opacity="0.15"/>
<path d="M1405.54 137.993H1413.73V129.628H1419.02V143.285H1405.54V137.993Z" fill="#C6C0B8" fill-opacity="0.15"/>
<path d="M1380.27 129.628H1385.56V137.993H1393.76V143.285H1380.27V129.628Z" fill="#C6C0B8" fill-opacity="0.15"/>
<path d="M1440.7 120.239H1435.41V106.582H1448.9V111.874H1440.7V120.239Z" fill="#C6C0B8" fill-opacity="0.15"/>
<path d="M1460.51 112.045V106.753H1473.99V120.41H1468.7V112.045H1460.51Z" fill="#C6C0B8" fill-opacity="0.15"/>
<path d="M1460.51 137.993H1468.7V129.628H1473.99V143.285H1460.51V137.993Z" fill="#C6C0B8" fill-opacity="0.15"/>
<path d="M1435.41 143.285V129.628H1440.7V137.993H1448.9V143.285H1435.41Z" fill="#C6C0B8" fill-opacity="0.15"/>
<path d="M1393.93 159.844V165.136H1385.56V173.501H1380.27V159.844H1393.93Z" fill="#C6C0B8" fill-opacity="0.15"/>
<path d="M1405.37 165.136V159.844H1418.85V173.501H1413.56V165.136H1405.37Z" fill="#C6C0B8" fill-opacity="0.15"/>
<path d="M1405.54 190.914H1413.73V182.548H1419.02V196.206H1405.54V190.914Z" fill="#C6C0B8" fill-opacity="0.15"/>
<path d="M1380.27 182.719H1385.56V191.084H1393.76V196.376H1380.27V182.719Z" fill="#C6C0B8" fill-opacity="0.15"/>
<path d="M1440.7 173.33H1435.41V159.673H1448.9V164.965H1440.7V173.33Z" fill="#C6C0B8" fill-opacity="0.15"/>
<path d="M1460.51 165.136V159.844H1473.99V173.501H1468.7V165.136H1460.51Z" fill="#C6C0B8" fill-opacity="0.15"/>
<path d="M1460.51 190.914H1468.7V182.548H1473.99V196.206H1460.51V190.914Z" fill="#C6C0B8" fill-opacity="0.15"/>
<path d="M1435.41 196.376V182.719H1440.7V191.084H1448.9V196.376H1435.41Z" fill="#C6C0B8" fill-opacity="0.15"/>
<path d="M1558.15 218.227H1549.96V226.421H1544.67V212.935H1558.15V218.227Z" fill="#C6C0B8" fill-opacity="0.15"/>
<path d="M1583.25 226.421H1577.96V218.057H1569.76V212.765H1583.25V226.421Z" fill="#C6C0B8" fill-opacity="0.15"/>
<path d="M1577.96 235.811H1583.25V249.467H1569.76V244.175H1577.96V235.811Z" fill="#C6C0B8" fill-opacity="0.15"/>
<path d="M1544.67 249.467V235.811H1549.96V244.175H1558.15V249.467H1544.67Z" fill="#C6C0B8" fill-opacity="0.15"/>
<path d="M1613.29 218.227H1605.1V226.421H1599.81V212.935H1613.29V218.227Z" fill="#C6C0B8" fill-opacity="0.15"/>
<path d="M1638.39 226.421H1633.1V218.057H1624.9V212.765H1638.39V226.421Z" fill="#C6C0B8" fill-opacity="0.15"/>
<path d="M1638.39 235.64V249.297H1624.9V244.005H1633.1V235.64H1638.39Z" fill="#C6C0B8" fill-opacity="0.15"/>
<path d="M1605.1 244.005H1613.29V249.297H1599.81V235.64H1605.1V244.005Z" fill="#C6C0B8" fill-opacity="0.15"/>
<path d="M1655.63 226.421V212.935L1669.12 212.765V218.057H1660.92V226.421H1655.63Z" fill="#C6C0B8" fill-opacity="0.15"/>
<path d="M1688.92 218.227H1680.72V212.935H1694.21V226.592H1688.92V218.227Z" fill="#C6C0B8" fill-opacity="0.15"/>
<path d="M1680.72 244.005H1688.92V235.64H1694.21V249.297H1680.72V244.005Z" fill="#C6C0B8" fill-opacity="0.15"/>
<path d="M1669.29 244.005V249.297H1655.8V235.64H1661.09V244.005H1669.29Z" fill="#C6C0B8" fill-opacity="0.15"/>
<path d="M1270.16 226.421V212.935L1283.65 212.765V218.057H1275.46V226.421H1270.16Z" fill="#C6C0B8" fill-opacity="0.15"/>
<path d="M1295.26 212.935H1308.74V226.592H1303.45V218.227H1295.26V212.935Z" fill="#C6C0B8" fill-opacity="0.15"/>
<path d="M1295.26 244.005H1303.45V235.64H1308.74V249.297H1295.26V244.005Z" fill="#C6C0B8" fill-opacity="0.15"/>
<path d="M1275.46 244.005H1283.65V249.297H1270.16V235.64H1275.46V244.005Z" fill="#C6C0B8" fill-opacity="0.15"/>
<path d="M1325.3 226.421V212.935L1338.79 212.765V218.057H1330.6V226.421H1325.3Z" fill="#C6C0B8" fill-opacity="0.15"/>
<path d="M1350.23 218.227V212.935H1363.71V226.592H1358.42V218.227H1350.23Z" fill="#C6C0B8" fill-opacity="0.15"/>
<path d="M1350.4 244.005H1358.59V235.64H1363.88V249.297H1350.4V244.005Z" fill="#C6C0B8" fill-opacity="0.15"/>
<path d="M1330.6 244.005H1338.79V249.297H1325.3V235.64H1330.6V244.005Z" fill="#C6C0B8" fill-opacity="0.15"/>
<path d="M1393.93 212.935V218.057H1385.56V226.421H1380.27V212.935H1393.93Z" fill="#C6C0B8" fill-opacity="0.15"/>
<path d="M1418.17 226.421H1412.88V218.057H1404.68V212.765H1418.17V226.421Z" fill="#C6C0B8" fill-opacity="0.15"/>
<path d="M1412.88 235.811H1418.17V249.467H1404.68V244.175H1412.88V235.811Z" fill="#C6C0B8" fill-opacity="0.15"/>
<path d="M1380.27 235.811H1385.56V244.175H1393.76V249.467H1380.27V235.811Z" fill="#C6C0B8" fill-opacity="0.15"/>
<path d="M1448.04 218.227H1439.85V226.421H1434.56V212.935H1448.04V218.227Z" fill="#C6C0B8" fill-opacity="0.15"/>
<path d="M1473.14 226.421H1467.85V218.057H1459.65V212.765H1473.14V226.421Z" fill="#C6C0B8" fill-opacity="0.15"/>
<path d="M1467.85 235.811H1473.14V249.467H1459.65V244.175H1467.85V235.811Z" fill="#C6C0B8" fill-opacity="0.15"/>
<path d="M1434.56 249.467V235.811H1439.85V244.175H1448.04V249.467H1434.56Z" fill="#C6C0B8" fill-opacity="0.15"/>
</svg>
