<svg width="1666" height="144" viewBox="0 0 1666 144" fill="none" xmlns="http://www.w3.org/2000/svg">
<path d="M233.704 0.5H220.218V14.157H225.51V5.79199H233.704V0.5Z" fill="white" fill-opacity="0.71"/>
<path d="M253.506 5.79199H245.312V0.5H258.798V14.157H253.506V5.79199Z" fill="white" fill-opacity="0.71"/>
<path d="M245.483 31.7402H253.677V23.3752H258.969V37.0322H245.483V31.7402Z" fill="white" fill-opacity="0.71"/>
<path d="M220.218 37.0322V23.3752H225.51V31.7402H233.704V37.0322H220.218Z" fill="white" fill-opacity="0.71"/>
<path d="M220.218 67.248V53.5913H233.704V58.8833H225.51V67.248H220.218Z" fill="white" fill-opacity="0.71"/>
<path d="M253.506 58.8833H245.312V53.4204H258.798V67.0774H253.506V58.8833Z" fill="white" fill-opacity="0.71"/>
<path d="M245.483 84.8313H253.677V76.4666H258.969V90.1235H245.483V84.8313Z" fill="white" fill-opacity="0.71"/>
<path d="M220.218 90.1235V76.4666H225.51V84.8313H233.704V90.1235H220.218Z" fill="white" fill-opacity="0.71"/>
<path d="M220.218 120.339V106.682H233.704V111.974H225.51V120.339H220.218Z" fill="white" fill-opacity="0.71"/>
<path d="M253.506 111.974H245.312V106.682H258.798V120.339H253.506V111.974Z" fill="white" fill-opacity="0.71"/>
<path d="M245.483 137.923H253.677V129.558H258.969V143.215H245.483V137.923Z" fill="white" fill-opacity="0.71"/>
<path d="M220.218 143.215V129.558H225.51V137.923H233.704V143.215H220.218Z" fill="white" fill-opacity="0.71"/>
<path d="M398.952 58.8833H390.758V67.248H385.466V53.5913H398.952V58.8833Z" fill="white" fill-opacity="0.71"/>
<path d="M418.755 58.8833H410.561V53.4204H424.047V67.0774H418.755V58.8833Z" fill="white" fill-opacity="0.71"/>
<path d="M410.561 84.8313H418.755V76.4666H424.047V90.1235H410.561V84.8313Z" fill="white" fill-opacity="0.71"/>
<path d="M385.466 76.4666H390.758V84.8313H398.952V90.1235H385.466V76.4666Z" fill="white" fill-opacity="0.71"/>
<path d="M335.789 120.169H330.497V106.512H343.983V111.804H335.789V120.169Z" fill="white" fill-opacity="0.71"/>
<path d="M369.078 120.169H363.786V111.804H355.592V106.512H369.078V120.169Z" fill="white" fill-opacity="0.71"/>
<path d="M369.078 129.558V143.215H355.592V137.923H363.786V129.558H369.078Z" fill="white" fill-opacity="0.71"/>
<path d="M330.497 143.215V129.558H335.789V137.923H343.983V143.215H330.497Z" fill="white" fill-opacity="0.71"/>
<path d="M398.952 111.974H390.758V120.339H385.466V106.682H398.952V111.974Z" fill="white" fill-opacity="0.71"/>
<path d="M418.755 111.974H410.561V106.682H424.047V120.339H418.755V111.974Z" fill="white" fill-opacity="0.71"/>
<path d="M410.561 137.923H418.755V129.558H424.047V143.215H410.561V137.923Z" fill="white" fill-opacity="0.71"/>
<path d="M385.466 129.558H390.758V137.923H398.952V143.215H385.466V129.558Z" fill="white" fill-opacity="0.71"/>
<path d="M0 67.248V53.5913H13.4862V58.8833H5.29205V67.248H0Z" fill="white" fill-opacity="0.71"/>
<path d="M25.0946 53.5913H38.5808V67.0774H33.2887V58.8833H25.0946V53.5913Z" fill="white" fill-opacity="0.71"/>
<path d="M38.5808 76.4666V90.1235H25.0946V84.8313H33.2887V76.4666H38.5808Z" fill="white" fill-opacity="0.71"/>
<path d="M0 90.1235V76.4666H5.29205V84.8313H13.4862V90.1235H0Z" fill="white" fill-opacity="0.71"/>
<path d="M54.969 67.248V53.5913H68.4552V58.8833H60.2611V67.248H54.969Z" fill="white" fill-opacity="0.71"/>
<path d="M88.2577 58.8833H80.0636V53.4204H93.5498V67.0774H88.2577V58.8833Z" fill="white" fill-opacity="0.71"/>
<path d="M80.2343 84.8313H88.4285V76.4666H93.7205V90.1235H80.2343V84.8313Z" fill="white" fill-opacity="0.71"/>
<path d="M60.4318 84.8313H68.6259V90.1235H55.1397V76.4666H60.4318V84.8313Z" fill="white" fill-opacity="0.71"/>
<path d="M5.29205 120.169H0V106.512H13.4862V111.804H5.29205V120.169Z" fill="white" fill-opacity="0.71"/>
<path d="M38.5808 106.512V120.169H33.2887V111.804H25.0946V106.512H38.5808Z" fill="white" fill-opacity="0.71"/>
<path d="M38.5808 129.558V143.215H25.0946V137.923H33.2887V129.558H38.5808Z" fill="white" fill-opacity="0.71"/>
<path d="M0 143.215V129.558H5.29205V137.923H13.4862V143.215H0Z" fill="white" fill-opacity="0.71"/>
<path d="M60.2611 120.169H54.969V106.512H68.4552V111.804H60.2611V120.169Z" fill="white" fill-opacity="0.71"/>
<path d="M88.2577 111.974H80.0636V106.682H93.5498V120.339H88.2577V111.974Z" fill="white" fill-opacity="0.71"/>
<path d="M80.2343 137.923H88.4285V129.558H93.7205V143.215H80.2343V137.923Z" fill="white" fill-opacity="0.71"/>
<path d="M60.4318 137.923H68.6259V143.215H55.1397V129.558H60.4318V137.923Z" fill="white" fill-opacity="0.71"/>
<path d="M178.735 5.79199H170.541V14.157H165.249V0.5H178.735V5.79199Z" fill="white" fill-opacity="0.71"/>
<path d="M198.367 5.79199H190.172V0.5H203.659V14.157H198.367V5.79199Z" fill="white" fill-opacity="0.71"/>
<path d="M190.343 31.7402H198.537V23.3752H203.829V37.0322H190.343V31.7402Z" fill="white" fill-opacity="0.71"/>
<path d="M165.249 23.3752H170.541V31.7402H178.735V37.0322H165.249V23.3752Z" fill="white" fill-opacity="0.71"/>
<path d="M178.735 53.5913V58.8833H170.541V67.248H165.249V53.5913H178.735Z" fill="white" fill-opacity="0.71"/>
<path d="M198.367 58.8833H190.172V53.4204H203.659V67.0774H198.367V58.8833Z" fill="white" fill-opacity="0.71"/>
<path d="M190.343 84.8313H198.537V76.4666H203.829V90.1235H190.343V84.8313Z" fill="white" fill-opacity="0.71"/>
<path d="M165.249 76.4666H170.541V84.8313H178.735V90.1235H165.249V76.4666Z" fill="white" fill-opacity="0.71"/>
<path d="M115.401 120.169H110.109V106.512H123.595V111.804H115.401V120.169Z" fill="white" fill-opacity="0.71"/>
<path d="M143.397 111.974H135.203V106.682H148.69V120.339H143.397V111.974Z" fill="white" fill-opacity="0.71"/>
<path d="M135.203 137.923H143.397V129.558H148.69V143.215H135.203V137.923Z" fill="white" fill-opacity="0.71"/>
<path d="M110.109 143.215V129.558H115.401V137.923H123.595V143.215H110.109Z" fill="white" fill-opacity="0.71"/>
<path d="M178.735 106.682V111.974H170.541V120.339H165.249V106.682H178.735Z" fill="white" fill-opacity="0.71"/>
<path d="M198.367 111.974H190.172V106.682H203.659V120.339H198.367V111.974Z" fill="white" fill-opacity="0.71"/>
<path d="M190.343 137.923H198.537V129.558H203.829V143.215H190.343V137.923Z" fill="white" fill-opacity="0.71"/>
<path d="M165.249 129.558H170.541V137.923H178.735V143.215H165.249V129.558Z" fill="white" fill-opacity="0.71"/>
<path d="M716.646 67.248V53.5913H730.132V58.8833H721.938V67.248H716.646Z" fill="white" fill-opacity="0.71"/>
<path d="M749.935 58.8833H741.741V53.4204H755.227V67.0774H749.935V58.8833Z" fill="white" fill-opacity="0.71"/>
<path d="M741.741 84.8313H749.935V76.4666H755.227V90.1235H741.741V84.8313Z" fill="white" fill-opacity="0.71"/>
<path d="M716.646 76.4666H721.938V84.8313H730.132V90.1235H716.646V76.4666Z" fill="white" fill-opacity="0.71"/>
<path d="M721.938 120.169H716.646V106.512H730.132V111.804H721.938V120.169Z" fill="white" fill-opacity="0.71"/>
<path d="M749.935 111.974H741.741V106.682H755.227V120.339H749.935V111.974Z" fill="white" fill-opacity="0.71"/>
<path d="M741.741 137.923H749.935V129.558H755.227V143.215H741.741V137.923Z" fill="white" fill-opacity="0.71"/>
<path d="M716.646 129.558H721.938V137.923H730.132V143.215H716.646V129.558Z" fill="white" fill-opacity="0.71"/>
<path d="M771.786 67.248V53.5913H785.272V58.8833H777.078V67.248H771.786Z" fill="white" fill-opacity="0.71"/>
<path d="M805.075 58.8833H796.88V53.4204H810.367V67.0774H805.075V58.8833Z" fill="white" fill-opacity="0.71"/>
<path d="M796.88 84.8313H805.075V76.4666H810.367V90.1235H796.88V84.8313Z" fill="white" fill-opacity="0.71"/>
<path d="M785.272 84.8313V90.1235H771.786V76.4666H777.078V84.8313H785.272Z" fill="white" fill-opacity="0.71"/>
<path d="M826.755 67.248V53.5913H840.241V58.8833H832.047V67.248H826.755Z" fill="white" fill-opacity="0.71"/>
<path d="M851.849 58.8833V53.4204H865.336V67.0774H860.044V58.8833H851.849Z" fill="white" fill-opacity="0.71"/>
<path d="M851.849 84.8313H860.044V76.4666H865.336V90.1235H851.849V84.8313Z" fill="white" fill-opacity="0.71"/>
<path d="M840.412 84.8313V90.1235H826.926V76.4666H832.218V84.8313H840.412Z" fill="white" fill-opacity="0.71"/>
<path d="M771.786 120.339V106.682H785.272V111.974H777.078V120.339H771.786Z" fill="white" fill-opacity="0.71"/>
<path d="M805.075 111.974H796.88V106.682H810.367V120.339H805.075V111.974Z" fill="white" fill-opacity="0.71"/>
<path d="M796.88 137.923H805.075V129.558H810.367V143.215H796.88V137.923Z" fill="white" fill-opacity="0.71"/>
<path d="M785.272 143.215H771.786V129.558H777.078V137.923H785.272V143.215Z" fill="white" fill-opacity="0.71"/>
<path d="M826.755 120.339V106.682H840.241V111.974H832.047V120.339H826.755Z" fill="white" fill-opacity="0.71"/>
<path d="M860.044 111.974H851.849V106.682H865.336V120.339H860.044V111.974Z" fill="white" fill-opacity="0.71"/>
<path d="M851.849 137.923H860.044V129.558H865.336V143.215H851.849V137.923Z" fill="white" fill-opacity="0.71"/>
<path d="M840.241 143.215H826.755V129.558H832.047V137.923H840.241V143.215Z" fill="white" fill-opacity="0.71"/>
<path d="M441.289 67.248V53.5913H454.775V58.8833H446.581V67.248H441.289Z" fill="white" fill-opacity="0.71"/>
<path d="M466.383 53.5913H479.869V67.0774H474.577V58.8833H466.383V53.5913Z" fill="white" fill-opacity="0.71"/>
<path d="M479.869 76.4666V90.1235H466.383V84.8313H474.577V76.4666H479.869Z" fill="white" fill-opacity="0.71"/>
<path d="M446.581 84.8313H454.775V90.1235H441.289V76.4666H446.581V84.8313Z" fill="white" fill-opacity="0.71"/>
<path d="M446.581 120.169H441.289V106.512H454.775V111.804H446.581V120.169Z" fill="white" fill-opacity="0.71"/>
<path d="M474.577 111.974H466.383V106.682H479.869V120.339H474.577V111.974Z" fill="white" fill-opacity="0.71"/>
<path d="M479.869 143.215H466.383V137.923H474.577V129.558H479.869V143.215Z" fill="white" fill-opacity="0.71"/>
<path d="M446.581 137.923H454.775V143.215H441.289V129.558H446.581V137.923Z" fill="white" fill-opacity="0.71"/>
<path d="M564.884 111.974H556.69V120.339H551.398V106.682H564.884V111.974Z" fill="white" fill-opacity="0.71"/>
<path d="M576.492 111.974V106.682H589.978V120.339H584.686V111.974H576.492Z" fill="white" fill-opacity="0.71"/>
<path d="M576.663 137.923H584.857V129.558H590.149V143.215H576.663V137.923Z" fill="white" fill-opacity="0.71"/>
<path d="M551.398 129.558H556.69V137.923H564.884V143.215H551.398V129.558Z" fill="white" fill-opacity="0.71"/>
<path d="M611.829 120.169H606.537V106.512H620.023V111.804H611.829V120.169Z" fill="white" fill-opacity="0.71"/>
<path d="M631.632 111.974V106.682H645.118V120.339H639.826V111.974H631.632Z" fill="white" fill-opacity="0.71"/>
<path d="M631.632 137.923H639.826V129.558H645.118V143.215H631.632V137.923Z" fill="white" fill-opacity="0.71"/>
<path d="M606.537 143.215V129.558H611.829V137.923H620.023V143.215H606.537Z" fill="white" fill-opacity="0.71"/>
<path d="M1113.7 0.5H1100.22V14.157H1105.51V5.79199H1113.7V0.5Z" fill="white" fill-opacity="0.71"/>
<path d="M1133.51 5.79199H1125.31V0.5H1138.8V14.157H1133.51V5.79199Z" fill="white" fill-opacity="0.71"/>
<path d="M1125.48 31.7402H1133.68V23.3752H1138.97V37.0322H1125.48V31.7402Z" fill="white" fill-opacity="0.71"/>
<path d="M1100.22 37.0322V23.3752H1105.51V31.7402H1113.7V37.0322H1100.22Z" fill="white" fill-opacity="0.71"/>
<path d="M1100.22 67.248V53.5913H1113.7V58.8833H1105.51V67.248H1100.22Z" fill="white" fill-opacity="0.71"/>
<path d="M1133.51 58.8833H1125.31V53.4204H1138.8V67.0774H1133.51V58.8833Z" fill="white" fill-opacity="0.71"/>
<path d="M1125.48 84.8313H1133.68V76.4666H1138.97V90.1235H1125.48V84.8313Z" fill="white" fill-opacity="0.71"/>
<path d="M1100.22 90.1235V76.4666H1105.51V84.8313H1113.7V90.1235H1100.22Z" fill="white" fill-opacity="0.71"/>
<path d="M1100.22 120.339V106.682H1113.7V111.974H1105.51V120.339H1100.22Z" fill="white" fill-opacity="0.71"/>
<path d="M1133.51 111.974H1125.31V106.682H1138.8V120.339H1133.51V111.974Z" fill="white" fill-opacity="0.71"/>
<path d="M1125.48 137.923H1133.68V129.558H1138.97V143.215H1125.48V137.923Z" fill="white" fill-opacity="0.71"/>
<path d="M1100.22 143.215V129.558H1105.51V137.923H1113.7V143.215H1100.22Z" fill="white" fill-opacity="0.71"/>
<path d="M1278.95 58.8833H1270.76V67.248H1265.47V53.5913H1278.95V58.8833Z" fill="white" fill-opacity="0.71"/>
<path d="M1298.75 58.8833H1290.56V53.4204H1304.05V67.0774H1298.75V58.8833Z" fill="white" fill-opacity="0.71"/>
<path d="M1290.56 84.8313H1298.75V76.4666H1304.05V90.1235H1290.56V84.8313Z" fill="white" fill-opacity="0.71"/>
<path d="M1265.47 76.4666H1270.76V84.8313H1278.95V90.1235H1265.47V76.4666Z" fill="white" fill-opacity="0.71"/>
<path d="M1215.79 120.169H1210.5V106.512H1223.98V111.804H1215.79V120.169Z" fill="white" fill-opacity="0.71"/>
<path d="M1249.08 120.169H1243.79V111.804H1235.59V106.512H1249.08V120.169Z" fill="white" fill-opacity="0.71"/>
<path d="M1249.08 129.558V143.215H1235.59V137.923H1243.79V129.558H1249.08Z" fill="white" fill-opacity="0.71"/>
<path d="M1210.5 143.215V129.558H1215.79V137.923H1223.98V143.215H1210.5Z" fill="white" fill-opacity="0.71"/>
<path d="M1278.95 111.974H1270.76V120.339H1265.47V106.682H1278.95V111.974Z" fill="white" fill-opacity="0.71"/>
<path d="M1298.75 111.974H1290.56V106.682H1304.05V120.339H1298.75V111.974Z" fill="white" fill-opacity="0.71"/>
<path d="M1290.56 137.923H1298.75V129.558H1304.05V143.215H1290.56V137.923Z" fill="white" fill-opacity="0.71"/>
<path d="M1265.47 129.558H1270.76V137.923H1278.95V143.215H1265.47V129.558Z" fill="white" fill-opacity="0.71"/>
<path d="M880 67.248V53.5913H893.486V58.8833H885.292V67.248H880Z" fill="white" fill-opacity="0.71"/>
<path d="M905.095 53.5913H918.581V67.0774H913.289V58.8833H905.095V53.5913Z" fill="white" fill-opacity="0.71"/>
<path d="M918.581 76.4666V90.1235H905.095V84.8313H913.289V76.4666H918.581Z" fill="white" fill-opacity="0.71"/>
<path d="M880 90.1235V76.4666H885.292V84.8313H893.486V90.1235H880Z" fill="white" fill-opacity="0.71"/>
<path d="M934.969 67.248V53.5913H948.455V58.8833H940.261V67.248H934.969Z" fill="white" fill-opacity="0.71"/>
<path d="M968.258 58.8833H960.064V53.4204H973.55V67.0774H968.258V58.8833Z" fill="white" fill-opacity="0.71"/>
<path d="M960.234 84.8313H968.428V76.4666H973.721V90.1235H960.234V84.8313Z" fill="white" fill-opacity="0.71"/>
<path d="M940.432 84.8313H948.626V90.1235H935.14V76.4666H940.432V84.8313Z" fill="white" fill-opacity="0.71"/>
<path d="M885.292 120.169H880V106.512H893.486V111.804H885.292V120.169Z" fill="white" fill-opacity="0.71"/>
<path d="M918.581 106.512V120.169H913.289V111.804H905.095V106.512H918.581Z" fill="white" fill-opacity="0.71"/>
<path d="M918.581 129.558V143.215H905.095V137.923H913.289V129.558H918.581Z" fill="white" fill-opacity="0.71"/>
<path d="M880 143.215V129.558H885.292V137.923H893.486V143.215H880Z" fill="white" fill-opacity="0.71"/>
<path d="M940.261 120.169H934.969V106.512H948.455V111.804H940.261V120.169Z" fill="white" fill-opacity="0.71"/>
<path d="M968.258 111.974H960.064V106.682H973.55V120.339H968.258V111.974Z" fill="white" fill-opacity="0.71"/>
<path d="M960.234 137.923H968.428V129.558H973.721V143.215H960.234V137.923Z" fill="white" fill-opacity="0.71"/>
<path d="M940.432 137.923H948.626V143.215H935.14V129.558H940.432V137.923Z" fill="white" fill-opacity="0.71"/>
<path d="M1058.73 5.79199H1050.54V14.157H1045.25V0.5H1058.73V5.79199Z" fill="white" fill-opacity="0.71"/>
<path d="M1078.37 5.79199H1070.17V0.5H1083.66V14.157H1078.37V5.79199Z" fill="white" fill-opacity="0.71"/>
<path d="M1070.34 31.7402H1078.54V23.3752H1083.83V37.0322H1070.34V31.7402Z" fill="white" fill-opacity="0.71"/>
<path d="M1045.25 23.3752H1050.54V31.7402H1058.73V37.0322H1045.25V23.3752Z" fill="white" fill-opacity="0.71"/>
<path d="M1058.73 53.5913V58.8833H1050.54V67.248H1045.25V53.5913H1058.73Z" fill="white" fill-opacity="0.71"/>
<path d="M1078.37 58.8833H1070.17V53.4204H1083.66V67.0774H1078.37V58.8833Z" fill="white" fill-opacity="0.71"/>
<path d="M1070.34 84.8313H1078.54V76.4666H1083.83V90.1235H1070.34V84.8313Z" fill="white" fill-opacity="0.71"/>
<path d="M1045.25 76.4666H1050.54V84.8313H1058.73V90.1235H1045.25V76.4666Z" fill="white" fill-opacity="0.71"/>
<path d="M995.401 120.169H990.109V106.512H1003.59V111.804H995.401V120.169Z" fill="white" fill-opacity="0.71"/>
<path d="M1023.4 111.974H1015.2V106.682H1028.69V120.339H1023.4V111.974Z" fill="white" fill-opacity="0.71"/>
<path d="M1015.2 137.923H1023.4V129.558H1028.69V143.215H1015.2V137.923Z" fill="white" fill-opacity="0.71"/>
<path d="M990.109 143.215V129.558H995.401V137.923H1003.59V143.215H990.109Z" fill="white" fill-opacity="0.71"/>
<path d="M1058.73 106.682V111.974H1050.54V120.339H1045.25V106.682H1058.73Z" fill="white" fill-opacity="0.71"/>
<path d="M1078.37 111.974H1070.17V106.682H1083.66V120.339H1078.37V111.974Z" fill="white" fill-opacity="0.71"/>
<path d="M1070.34 137.923H1078.54V129.558H1083.83V143.215H1070.34V137.923Z" fill="white" fill-opacity="0.71"/>
<path d="M1045.25 129.558H1050.54V137.923H1058.73V143.215H1045.25V129.558Z" fill="white" fill-opacity="0.71"/>
<path d="M1596.65 67.248V53.5913H1610.13V58.8833H1601.94V67.248H1596.65Z" fill="white" fill-opacity="0.71"/>
<path d="M1629.93 58.8833H1621.74V53.4204H1635.23V67.0774H1629.93V58.8833Z" fill="white" fill-opacity="0.71"/>
<path d="M1621.74 84.8313H1629.93V76.4666H1635.23V90.1235H1621.74V84.8313Z" fill="white" fill-opacity="0.71"/>
<path d="M1596.65 76.4666H1601.94V84.8313H1610.13V90.1235H1596.65V76.4666Z" fill="white" fill-opacity="0.71"/>
<path d="M1601.94 120.169H1596.65V106.512H1610.13V111.804H1601.94V120.169Z" fill="white" fill-opacity="0.71"/>
<path d="M1629.93 111.974H1621.74V106.682H1635.23V120.339H1629.93V111.974Z" fill="white" fill-opacity="0.71"/>
<path d="M1621.74 137.923H1629.93V129.558H1635.23V143.215H1621.74V137.923Z" fill="white" fill-opacity="0.71"/>
<path d="M1596.65 129.558H1601.94V137.923H1610.13V143.215H1596.65V129.558Z" fill="white" fill-opacity="0.71"/>
<path d="M1651.79 67.248V53.5913H1665.27V58.8833H1657.08V67.248H1651.79Z" fill="white" fill-opacity="0.71"/>
<path d="M1665.27 84.8313V90.1235H1651.79V76.4666H1657.08V84.8313H1665.27Z" fill="white" fill-opacity="0.71"/>
<path d="M1651.79 120.339V106.682H1665.27V111.974H1657.08V120.339H1651.79Z" fill="white" fill-opacity="0.71"/>
<path d="M1665.27 143.215H1651.79V129.558H1657.08V137.923H1665.27V143.215Z" fill="white" fill-opacity="0.71"/>
<path d="M1321.29 67.248V53.5913H1334.77V58.8833H1326.58V67.248H1321.29Z" fill="white" fill-opacity="0.71"/>
<path d="M1346.38 53.5913H1359.87V67.0774H1354.58V58.8833H1346.38V53.5913Z" fill="white" fill-opacity="0.71"/>
<path d="M1359.87 76.4666V90.1235H1346.38V84.8313H1354.58V76.4666H1359.87Z" fill="white" fill-opacity="0.71"/>
<path d="M1326.58 84.8313H1334.77V90.1235H1321.29V76.4666H1326.58V84.8313Z" fill="white" fill-opacity="0.71"/>
<path d="M1326.58 120.169H1321.29V106.512H1334.77V111.804H1326.58V120.169Z" fill="white" fill-opacity="0.71"/>
<path d="M1354.58 111.974H1346.38V106.682H1359.87V120.339H1354.58V111.974Z" fill="white" fill-opacity="0.71"/>
<path d="M1359.87 143.215H1346.38V137.923H1354.58V129.558H1359.87V143.215Z" fill="white" fill-opacity="0.71"/>
<path d="M1326.58 137.923H1334.77V143.215H1321.29V129.558H1326.58V137.923Z" fill="white" fill-opacity="0.71"/>
<path d="M1444.88 111.974H1436.69V120.339H1431.4V106.682H1444.88V111.974Z" fill="white" fill-opacity="0.71"/>
<path d="M1456.49 111.974V106.682H1469.98V120.339H1464.69V111.974H1456.49Z" fill="white" fill-opacity="0.71"/>
<path d="M1456.66 137.923H1464.86V129.558H1470.15V143.215H1456.66V137.923Z" fill="white" fill-opacity="0.71"/>
<path d="M1431.4 129.558H1436.69V137.923H1444.88V143.215H1431.4V129.558Z" fill="white" fill-opacity="0.71"/>
<path d="M1491.83 120.169H1486.54V106.512H1500.02V111.804H1491.83V120.169Z" fill="white" fill-opacity="0.71"/>
<path d="M1511.63 111.974V106.682H1525.12V120.339H1519.83V111.974H1511.63Z" fill="white" fill-opacity="0.71"/>
<path d="M1511.63 137.923H1519.83V129.558H1525.12V143.215H1511.63V137.923Z" fill="white" fill-opacity="0.71"/>
<path d="M1486.54 143.215V129.558H1491.83V137.923H1500.02V143.215H1486.54Z" fill="white" fill-opacity="0.71"/>
</svg>
