<svg width="16" height="18" viewBox="0 0 16 18" fill="none" xmlns="http://www.w3.org/2000/svg">
<path d="M10.7782 2.25381H9.72264V1.22049H6.27823V2.25381H5.22266V1.22049C5.22191 0.627903 5.68635 0.139011 6.27823 0.109375H9.72264C10.3145 0.139011 10.779 0.627903 10.7782 1.22049V2.25381Z" fill="#A61744"/>
<path d="M5.22266 6.22049H6.33377V14.5538H5.22266V6.22049Z" fill="#A61744"/>
<path d="M10.7782 6.22049H9.6671V14.5538H10.7782V6.22049Z" fill="#A61744"/>
<path d="M15.1004 3.99826H0.778212C0.471374 3.99826 0.222656 3.74951 0.222656 3.44271C0.222656 3.13591 0.471374 2.88715 0.778212 2.88715H15.1004C15.4073 2.88715 15.656 3.13591 15.656 3.44271C15.656 3.74951 15.4073 3.99826 15.1004 3.99826Z" fill="#A61744"/>
<path d="M2.92265 17.8872H13.0782C13.51 17.877 13.92 17.6956 14.218 17.383C14.516 17.0704 14.6775 16.6522 14.6671 16.2205V5.23714H13.556V16.2205C13.5667 16.3576 13.5223 16.4933 13.4326 16.5976C13.3429 16.7019 13.2154 16.7661 13.0782 16.776H2.92265C2.78549 16.7661 2.65792 16.7019 2.56824 16.5976C2.47858 16.4933 2.43416 16.3576 2.44488 16.2205V5.23714H1.33377V16.2205C1.32332 16.6522 1.4849 17.0704 1.78288 17.383C2.08091 17.6956 2.49089 17.877 2.92265 17.8872Z" fill="#A61744"/>
</svg>
