<svg width="12" height="10" viewBox="0 0 12 10" fill="none" xmlns="http://www.w3.org/2000/svg">
<path d="M0.138462 5.02098C0.0461539 4.92969 0 4.79275 0 4.70146C0 4.61017 0.0461539 4.47324 0.138462 4.38195L0.784615 3.74291C0.969231 3.56033 1.24615 3.56033 1.43077 3.74291L4.01538 6.48163C4.10769 6.57292 4.24615 6.57292 4.33846 6.48163L10.5692 0.136936C10.7538 -0.0456453 11.0308 -0.0456453 11.2154 0.136936L11.8615 0.77597C12.0462 0.958551 12.0462 1.23242 11.8615 1.415L4.47692 8.99212C4.38462 9.08341 4.29231 9.12905 4.15385 9.12905C4.01538 9.12905 3.92308 9.08341 3.83077 8.99212L0.138462 5.02098Z" fill="white"/>
</svg>
