<svg width="18" height="18" viewBox="0 0 18 18" fill="none" xmlns="http://www.w3.org/2000/svg">
<path d="M10.2259 8.9824L17.1343 2.09256C17.4174 1.76281 17.3984 1.27126 17.0906 0.964281C16.7827 0.657297 16.2899 0.638311 15.9593 0.9207L9.05093 7.81055L2.14261 0.912389C1.81584 0.586495 1.28605 0.586495 0.959281 0.912389C0.632513 1.23828 0.632513 1.76666 0.959281 2.09256L7.87594 8.9824L0.959281 15.8722C0.721468 16.0754 0.61788 16.3943 0.691106 16.6979C0.764333 17.0015 1.00201 17.2385 1.30643 17.3116C1.61085 17.3846 1.93062 17.2813 2.13428 17.0441L9.05093 10.1543L15.9593 17.0441C16.2899 17.3265 16.7827 17.3075 17.0906 17.0005C17.3984 16.6935 17.4174 16.202 17.1343 15.8722L10.2259 8.9824Z" fill="#A61744"/>
</svg>
