<svg width="44" height="60" viewBox="0 0 44 60" fill="none" xmlns="http://www.w3.org/2000/svg">
<path fill-rule="evenodd" clip-rule="evenodd" d="M1.92638 32.0868L1.92617 32.0863C0.645474 29.249 0 26.189 0 23.0041C0 10.7643 9.84563 0.769531 21.9992 0.769531C34.1533 0.769531 43.9988 10.7643 44 23.0039V23.0041C44 26.1887 43.3552 29.249 42.0737 32.0866L42.0735 32.0869C36.9446 43.439 27.1893 55.3129 24.3673 58.6343L24.3657 58.6361C23.7772 59.3271 22.9141 59.7302 21.9997 59.7302C21.0853 59.7302 20.2222 59.3271 19.6337 58.6361L19.6323 58.6345C16.809 55.3123 7.05364 43.4378 1.92638 32.0868ZM30.3879 23.0037V23.0035C30.3879 18.2902 26.6007 14.4925 21.9992 14.4925C17.3976 14.4925 13.6104 18.2902 13.6104 23.0035C13.6104 27.7161 17.3975 31.5139 21.9992 31.5139C26.6015 31.5139 30.3884 27.7161 30.3879 23.0037ZM3.74906 31.2635C2.58877 28.6929 2 25.9143 2 23.0041C2 11.8468 10.9722 2.76953 21.9992 2.76953C33.0267 2.76953 41.9989 11.8468 42 23.0041C42 25.9143 41.4118 28.6929 40.2509 31.2635C35.2489 42.3347 25.6619 54.0218 22.8431 57.3393C22.6319 57.5874 22.3239 57.7302 21.9997 57.7302C21.6756 57.7302 21.3676 57.5874 21.1563 57.3393C18.3365 54.0213 8.74941 42.3336 3.74906 31.2635ZM32.3879 23.0035C32.3879 17.2077 27.7273 12.4925 21.9992 12.4925C16.2711 12.4925 11.6104 17.2077 11.6104 23.0035C11.6104 28.7987 16.2711 33.5139 21.9992 33.5139C27.7278 33.5139 32.3885 28.7987 32.3879 23.0035Z" fill="white"/>
</svg>
