<svg width="103" height="125" viewBox="0 0 103 125" fill="none" xmlns="http://www.w3.org/2000/svg">
<g filter="url(#filter0_d)">
<path d="M51.2556 16.5039C35.1248 16.5039 22 29.7825 22 46.1038C22 50.361 22.8613 54.4257 24.5586 58.186C31.8733 74.3797 45.8976 91.477 50.0226 96.3307C50.3317 96.6936 50.7822 96.9026 51.2564 96.9026C51.7305 96.9026 52.1811 96.6936 52.4901 96.3307C56.6135 91.4778 70.6378 74.3814 77.9549 58.186C79.6531 54.4257 80.5135 50.361 80.5135 46.1038C80.5119 29.7825 67.3871 16.5039 51.2556 16.5039ZM51.2556 61.478C42.8763 61.478 36.0585 54.5804 36.0585 46.103C36.0585 37.6247 42.8763 30.727 51.2556 30.727C59.6349 30.727 66.4526 37.6247 66.4526 46.103C66.4534 54.5804 59.6357 61.478 51.2556 61.478Z" fill="#BF202D"/>
<path d="M51.2556 16.5039C35.1248 16.5039 22 29.7825 22 46.1038C22 50.361 22.8613 54.4257 24.5586 58.186C31.8733 74.3797 45.8976 91.477 50.0226 96.3307C50.3317 96.6936 50.7822 96.9026 51.2564 96.9026C51.7305 96.9026 52.1811 96.6936 52.4901 96.3307C56.6135 91.4778 70.6378 74.3814 77.9549 58.186C79.6531 54.4257 80.5135 50.361 80.5135 46.1038C80.5119 29.7825 67.3871 16.5039 51.2556 16.5039ZM51.2556 61.478C42.8763 61.478 36.0585 54.5804 36.0585 46.103C36.0585 37.6247 42.8763 30.727 51.2556 30.727C59.6349 30.727 66.4526 37.6247 66.4526 46.103C66.4534 54.5804 59.6357 61.478 51.2556 61.478Z" fill="url(#paint0_linear)" fill-opacity="0.74"/>
<path d="M23.6472 58.5974L23.6473 58.5976C31.0254 74.9319 45.1339 92.1225 49.2606 96.9783L49.2613 96.9791C49.759 97.5635 50.4871 97.9026 51.2564 97.9026C52.0257 97.9026 52.7538 97.5635 53.2514 96.9791L53.2522 96.9782C57.3772 92.1233 71.4857 74.9335 78.8663 58.5977L78.8663 58.5975C80.6248 54.7037 81.5135 50.4982 81.5135 46.1038V46.1037C81.5119 29.2412 67.9504 15.5039 51.2556 15.5039C34.5616 15.5039 21 29.2412 21 46.1038C21 50.4984 21.8896 54.7038 23.6472 58.5974ZM65.4526 46.103V46.103C65.4534 54.0391 59.0725 60.478 51.2556 60.478C43.4395 60.478 37.0585 54.0391 37.0585 46.103C37.0585 38.1659 43.4395 31.727 51.2556 31.727C59.0716 31.727 65.4526 38.1659 65.4526 46.103Z" stroke="white" stroke-width="2"/>
</g>
<defs>
<filter id="filter0_d" x="0" y="0.503906" width="102.514" height="124.399" filterUnits="userSpaceOnUse" color-interpolation-filters="sRGB">
<feFlood flood-opacity="0" result="BackgroundImageFix"/>
<feColorMatrix in="SourceAlpha" type="matrix" values="0 0 0 0 0 0 0 0 0 0 0 0 0 0 0 0 0 0 127 0"/>
<feOffset dy="6"/>
<feGaussianBlur stdDeviation="10"/>
<feColorMatrix type="matrix" values="0 0 0 0 0 0 0 0 0 0 0 0 0 0 0 0 0 0 0.2 0"/>
<feBlend mode="normal" in2="BackgroundImageFix" result="effect1_dropShadow"/>
<feBlend mode="normal" in="SourceGraphic" in2="effect1_dropShadow" result="shape"/>
</filter>
<linearGradient id="paint0_linear" x1="80.7594" y1="27.5153" x2="22.736" y2="27.4275" gradientUnits="userSpaceOnUse">
<stop stop-color="#F45C1B"/>
<stop offset="1" stop-color="#AA4141" stop-opacity="0"/>
</linearGradient>
</defs>
</svg>
