<svg width="63" height="85" viewBox="0 0 63 85" fill="none" xmlns="http://www.w3.org/2000/svg">
<path d="M3.64715 44.5974L3.64726 44.5976C11.0254 60.9319 25.1339 78.1225 29.2606 82.9783L29.2613 82.9791C29.759 83.5635 30.4871 83.9026 31.2564 83.9026C32.0257 83.9026 32.7538 83.5635 33.2514 82.9791L33.2522 82.9782C37.3772 78.1233 51.4857 60.9335 58.8663 44.5977L58.8663 44.5975C60.6248 40.7037 61.5135 36.4982 61.5135 32.1038V32.1037C61.5119 15.2412 47.9504 1.50391 31.2556 1.50391C14.5616 1.50391 1 15.2412 1 32.1038C1 36.4984 1.88962 40.7038 3.64715 44.5974ZM45.4526 32.103V32.103C45.4534 40.0391 39.0725 46.478 31.2556 46.478C23.4395 46.478 17.0585 40.0391 17.0585 32.103C17.0585 24.1659 23.4395 17.727 31.2556 17.727C39.0716 17.727 45.4526 24.1659 45.4526 32.103Z" fill="#BF202D"/>
<path d="M3.64715 44.5974L3.64726 44.5976C11.0254 60.9319 25.1339 78.1225 29.2606 82.9783L29.2613 82.9791C29.759 83.5635 30.4871 83.9026 31.2564 83.9026C32.0257 83.9026 32.7538 83.5635 33.2514 82.9791L33.2522 82.9782C37.3772 78.1233 51.4857 60.9335 58.8663 44.5977L58.8663 44.5975C60.6248 40.7037 61.5135 36.4982 61.5135 32.1038V32.1037C61.5119 15.2412 47.9504 1.50391 31.2556 1.50391C14.5616 1.50391 1 15.2412 1 32.1038C1 36.4984 1.88962 40.7038 3.64715 44.5974ZM45.4526 32.103V32.103C45.4534 40.0391 39.0725 46.478 31.2556 46.478C23.4395 46.478 17.0585 40.0391 17.0585 32.103C17.0585 24.1659 23.4395 17.727 31.2556 17.727C39.0716 17.727 45.4526 24.1659 45.4526 32.103Z" fill="url(#paint0_linear)" fill-opacity="0.74"/>
<path d="M3.64715 44.5974L3.64726 44.5976C11.0254 60.9319 25.1339 78.1225 29.2606 82.9783L29.2613 82.9791C29.759 83.5635 30.4871 83.9026 31.2564 83.9026C32.0257 83.9026 32.7538 83.5635 33.2514 82.9791L33.2522 82.9782C37.3772 78.1233 51.4857 60.9335 58.8663 44.5977L58.8663 44.5975C60.6248 40.7037 61.5135 36.4982 61.5135 32.1038V32.1037C61.5119 15.2412 47.9504 1.50391 31.2556 1.50391C14.5616 1.50391 1 15.2412 1 32.1038C1 36.4984 1.88962 40.7038 3.64715 44.5974ZM45.4526 32.103V32.103C45.4534 40.0391 39.0725 46.478 31.2556 46.478C23.4395 46.478 17.0585 40.0391 17.0585 32.103C17.0585 24.1659 23.4395 17.727 31.2556 17.727C39.0716 17.727 45.4526 24.1659 45.4526 32.103Z" stroke="white" stroke-width="2"/>
<defs>
<linearGradient id="paint0_linear" x1="60.7594" y1="13.5153" x2="2.73603" y2="13.4275" gradientUnits="userSpaceOnUse">
<stop stop-color="#F45C1B"/>
<stop offset="1" stop-color="#AA4141" stop-opacity="0"/>
</linearGradient>
</defs>
</svg>
