<svg width="64" height="85" viewBox="0 0 64 85" fill="none" xmlns="http://www.w3.org/2000/svg">
<path d="M62.1385 32.0422V32.0421C62.1369 15.3576 48.5645 1.78516 31.8806 1.78516C15.1975 1.78516 1.625 15.3577 1.625 32.0422C1.625 36.3893 2.51534 40.549 4.27395 44.4L4.27407 44.4003C11.6532 60.5476 25.7628 77.5403 29.8894 82.3397L29.8901 82.3405C30.389 82.9195 31.1161 83.2532 31.8814 83.2532C32.6467 83.2532 33.3738 82.9195 33.8727 82.3405L33.8734 82.3396C37.9983 77.5413 52.1079 60.5494 59.4894 44.4003L59.4895 44.4002C61.2491 40.549 62.1385 36.3892 62.1385 32.0422Z" fill="#A61744" stroke="white" stroke-width="2"/>
<circle cx="31.8782" cy="31.9915" r="22.6555" fill="white"/>
<path d="M16.3672 44.6016H47.0339" stroke="#A61744" stroke-width="1.5" stroke-linecap="round" stroke-linejoin="round"/>
<path d="M25.6992 44.6009V21.2911C25.6992 20.5759 26.2962 19.9961 27.0326 19.9961H36.3659C37.1023 19.9961 37.6992 20.5759 37.6992 21.2911V44.6009" stroke="#A61744" stroke-width="1.5" stroke-linecap="round" stroke-linejoin="round"/>
<path d="M45.7005 44.6022V32.2998C45.7005 31.9422 45.402 31.6523 45.0339 31.6523H41.0339C40.6657 31.6523 40.3672 31.9422 40.3672 32.2998V44.6022" stroke="#A61744" stroke-width="1.5" stroke-linecap="round" stroke-linejoin="round"/>
<path d="M23.0326 44.6022V32.2998C23.0326 31.9422 22.7341 31.6523 22.3659 31.6523H18.3659C17.9977 31.6523 17.6992 31.9422 17.6992 32.2998V44.6022" stroke="#A61744" stroke-width="1.5" stroke-linecap="round" stroke-linejoin="round"/>
<path d="M21.6992 31.6501V30.3555" stroke="#A61744" stroke-width="1.5" stroke-linecap="round" stroke-linejoin="round"/>
<path d="M41.6992 31.6501V30.3555" stroke="#A61744" stroke-width="1.5" stroke-linecap="round" stroke-linejoin="round"/>
<path d="M33.6992 19.9954V18.0535C33.6992 17.6961 33.4007 17.4062 33.0326 17.4062H30.3659C29.9977 17.4062 29.6992 17.6961 29.6992 18.0535V19.9954" stroke="#A61744" stroke-width="1.5" stroke-linecap="round" stroke-linejoin="round"/>
<path d="M32.3672 17.4056V14.8164" stroke="#A61744" stroke-width="1.5" stroke-linecap="round" stroke-linejoin="round"/>
<path d="M28.3672 23.8828H35.0339" stroke="#A61744" stroke-width="1.5" stroke-linecap="round" stroke-linejoin="round"/>
<path d="M28.3672 27.7656H35.0339" stroke="#A61744" stroke-width="1.5" stroke-linecap="round" stroke-linejoin="round"/>
<path d="M28.3672 31.6523H35.0339" stroke="#A61744" stroke-width="1.5" stroke-linecap="round" stroke-linejoin="round"/>
<path d="M28.3672 35.5352H35.0339" stroke="#A61744" stroke-width="1.5" stroke-linecap="round" stroke-linejoin="round"/>
<path d="M28.3672 39.4219H35.0339" stroke="#A61744" stroke-width="1.5" stroke-linecap="round" stroke-linejoin="round"/>
</svg>
