<svg width="44" height="59" viewBox="0 0 44 59" fill="none" xmlns="http://www.w3.org/2000/svg">
<path d="M21.9952 37.799C30.5486 37.799 37.4826 30.865 37.4826 22.3116C37.4826 13.7582 30.5486 6.82422 21.9952 6.82422C13.4418 6.82422 6.50781 13.7582 6.50781 22.3116C6.50781 30.865 13.4418 37.799 21.9952 37.799Z" fill="white"/>
<path fill-rule="evenodd" clip-rule="evenodd" d="M44 22.3477C43.9988 10.2152 34.1314 0.347656 21.9992 0.347656C9.86752 0.347656 0 10.2153 0 22.3479C0 25.5026 0.646902 28.5333 1.92978 31.3425C7.05902 42.5665 16.8169 54.3063 19.6398 57.5896L19.6412 57.5912C20.2322 58.2771 21.0933 58.6722 21.9998 58.6722C22.9062 58.6722 23.7673 58.277 24.3583 57.5912L24.3597 57.5894C27.1815 54.307 36.939 42.5682 42.0699 31.3431C43.3537 28.5335 44 25.5021 44 22.3477ZM40.2509 30.5117C35.2489 41.4548 25.6619 53.0067 22.8431 56.2856C22.6319 56.5308 22.3239 56.6722 21.9998 56.6722C21.6756 56.6722 21.3676 56.5308 21.1563 56.2856C18.3365 53.006 8.7494 41.4537 3.74906 30.5117C2.58876 27.9709 2 25.2245 2 22.3479C2 11.3198 10.9722 2.34766 21.9992 2.34766C33.0268 2.34766 41.9989 11.3198 42 22.3479C42 25.2245 41.4118 27.9709 40.2509 30.5117Z" fill="white"/>
<path d="M19.5977 15.5859C19.1834 15.5859 18.8477 15.9217 18.8477 16.3359C18.8477 16.7502 19.1834 17.0859 19.5977 17.0859H24.155C24.5692 17.0859 24.905 16.7502 24.905 16.3359C24.905 15.9217 24.5692 15.5859 24.155 15.5859H19.5977Z" fill="#303030"/>
<path d="M18.8477 18.9883C18.8477 18.5741 19.1834 18.2383 19.5977 18.2383H24.155C24.5692 18.2383 24.905 18.5741 24.905 18.9883C24.905 19.4025 24.5692 19.7383 24.155 19.7383H19.5977C19.1834 19.7383 18.8477 19.4025 18.8477 18.9883Z" fill="#303030"/>
<path d="M19.5977 20.8945C19.1834 20.8945 18.8477 21.2303 18.8477 21.6445C18.8477 22.0587 19.1834 22.3945 19.5977 22.3945H24.155C24.5692 22.3945 24.905 22.0587 24.905 21.6445C24.905 21.2303 24.5692 20.8945 24.155 20.8945H19.5977Z" fill="#303030"/>
<path d="M18.8477 24.3008C18.8477 23.8866 19.1834 23.5508 19.5977 23.5508H24.155C24.5692 23.5508 24.905 23.8866 24.905 24.3008C24.905 24.715 24.5692 25.0508 24.155 25.0508H19.5977C19.1834 25.0508 18.8477 24.715 18.8477 24.3008Z" fill="#303030"/>
<path d="M19.5977 26.207C19.1834 26.207 18.8477 26.5428 18.8477 26.957C18.8477 27.3712 19.1834 27.707 19.5977 27.707H24.155C24.5692 27.707 24.905 27.3712 24.905 26.957C24.905 26.5428 24.5692 26.207 24.155 26.207H19.5977Z" fill="#303030"/>
<path fill-rule="evenodd" clip-rule="evenodd" d="M22.332 9.38672C22.7462 9.38672 23.082 9.72251 23.082 10.1367V11.1928C23.5936 11.3214 23.9922 11.776 23.9922 12.3487V12.9258H25.0652C25.962 12.9258 26.7267 13.6374 26.7267 14.561V29.7461H27.0508V22.0872C27.0508 21.5146 27.4493 21.0597 27.9609 20.9311V20.7578C27.9609 20.3436 28.2967 20.0078 28.7109 20.0078C29.1252 20.0078 29.4609 20.3436 29.4609 20.7578V20.8945H30.9909C31.6361 20.8945 32.1967 21.408 32.1967 22.0872V29.7461H32.3583C32.7726 29.7461 33.1083 30.0819 33.1083 30.4961C33.1083 30.9103 32.7726 31.2461 32.3583 31.2461H31.4853C31.4725 31.2467 31.4596 31.2471 31.4467 31.2471C31.4337 31.2471 31.4208 31.2467 31.4081 31.2461H27.8394C27.8266 31.2467 27.8137 31.2471 27.8008 31.2471C27.7878 31.2471 27.775 31.2467 27.7622 31.2461H15.9892C15.9764 31.2467 15.9635 31.2471 15.9506 31.2471C15.9376 31.2471 15.9247 31.2467 15.912 31.2461H12.3433C12.3305 31.2467 12.3176 31.2471 12.3047 31.2471C12.2917 31.2471 12.2789 31.2467 12.2661 31.2461H11.3945C10.9803 31.2461 10.6445 30.9103 10.6445 30.4961C10.6445 30.0819 10.9803 29.7461 11.3945 29.7461H11.5547V22.0872C11.5547 21.408 12.1153 20.8945 12.7604 20.8945H14.2891V20.7578C14.2891 20.3436 14.6248 20.0078 15.0391 20.0078C15.4533 20.0078 15.7891 20.3436 15.7891 20.7578V20.9308C16.3014 21.0589 16.7006 21.5141 16.7006 22.0872V29.7461H17.0234V14.561C17.0234 13.6374 17.7881 12.9258 18.6849 12.9258H19.7578V12.3487C19.7578 11.6695 20.3186 11.1562 20.9635 11.1562H21.582V10.1367C21.582 9.72251 21.9178 9.38672 22.332 9.38672ZM22.332 12.6567C22.3233 12.6567 22.3147 12.6565 22.306 12.6562H21.2578V12.9258H22.4922V12.6562H22.358C22.3494 12.6565 22.3407 12.6567 22.332 12.6567ZM23.2162 14.4258C23.2248 14.4261 23.2335 14.4262 23.2422 14.4262C23.2509 14.4262 23.2596 14.4261 23.2682 14.4258H25.0652C25.1752 14.4258 25.2267 14.5068 25.2267 14.561V29.7461H18.5234V14.561C18.5234 14.5068 18.5749 14.4258 18.6849 14.4258H20.4818C20.4904 14.4261 20.4991 14.4262 20.5078 14.4262C20.5165 14.4262 20.5252 14.4261 20.5338 14.4258H23.2162ZM15.2006 22.3945V29.7461H13.0547V22.3945H15.2006ZM28.5508 29.7461H30.6967V22.3945H28.5508V29.7461Z" fill="#303030"/>
</svg>
