<svg width="22" height="20" viewBox="0 0 22 20" fill="none" xmlns="http://www.w3.org/2000/svg">
<path d="M5.66554 5.33333C6.0337 5.33333 6.3322 5.03485 6.3322 4.66667V0.666667C6.3322 0.298482 6.0337 0 5.66554 0C5.29737 0 4.99887 0.298482 4.99887 0.666667V4.66667C4.99887 5.03485 5.29737 5.33333 5.66554 5.33333Z" fill="#A61744"/>
<path d="M16.9989 4.66667C16.9989 5.03485 16.7004 5.33333 16.3322 5.33333C15.964 5.33333 15.6655 5.03485 15.6655 4.66667V0.666667C15.6655 0.298482 15.964 0 16.3322 0C16.7004 0 16.9989 0.298482 16.9989 0.666667V4.66667Z" fill="#A61744"/>
<path d="M14.3322 2.66667H7.66554V4H14.3322V2.66667Z" fill="#A61744"/>
<path d="M17.6655 16V14.6667H16.3322V16H17.6655Z" fill="#A61744"/>
<path d="M12.3322 14.6667H13.6655V16H12.3322V14.6667Z" fill="#A61744"/>
<path d="M9.66554 14.6667H8.3322V16H9.66554V14.6667Z" fill="#A61744"/>
<path d="M4.3322 14.6667H5.66554V16H4.3322V14.6667Z" fill="#A61744"/>
<path d="M17.6655 12.6667V11.3333H16.3322V12.6667H17.6655Z" fill="#A61744"/>
<path d="M12.3322 11.3333H13.6655V12.6667H12.3322V11.3333Z" fill="#A61744"/>
<path d="M9.66554 11.3333H8.3322V12.6667H9.66554V11.3333Z" fill="#A61744"/>
<path d="M4.3322 11.3333H5.66554V12.6667H4.3322V11.3333Z" fill="#A61744"/>
<path d="M17.6655 9.33333V8H16.3322V9.33333H17.6655Z" fill="#A61744"/>
<path d="M12.3322 8H13.6655V9.33333H12.3322V8Z" fill="#A61744"/>
<path d="M9.66554 8H8.3322V9.33333H9.66554V8Z" fill="#A61744"/>
<path d="M4.3322 8H5.66554V9.33333H4.3322V8Z" fill="#A61744"/>
<path d="M18.3322 2.66667H20.4989C20.8136 2.67194 21.1134 2.80202 21.3322 3.02832C21.551 3.25464 21.6709 3.55859 21.6655 3.87333V18.7933C21.6709 19.1081 21.551 19.412 21.3322 19.6383C21.1134 19.8646 20.8136 19.9947 20.4989 20H1.49887C1.18417 19.9947 0.884369 19.8646 0.665619 19.6383C0.446787 19.412 0.326833 19.1081 0.332204 18.7933V3.87333C0.326833 3.55859 0.446787 3.25464 0.665619 3.02832C0.884369 2.80202 1.18417 2.67194 1.49887 2.66667H3.66554V4H1.66554V18.6667H20.3322V4H18.3322V2.66667Z" fill="#A61744"/>
</svg>
