<svg width="40" height="51" viewBox="0 0 40 51" fill="none" xmlns="http://www.w3.org/2000/svg">
<path d="M6.1875 45.002V32.916H9.3833C10.7944 32.916 11.9178 33.3643 12.7534 34.2607C13.5946 35.1572 14.0234 36.3857 14.04 37.9463V39.9053C14.04 41.4935 13.6195 42.7414 12.7783 43.6489C11.9427 44.5509 10.7889 45.002 9.31689 45.002H6.1875ZM8.62793 34.9497V42.9766H9.3584C10.1719 42.9766 10.7446 42.7635 11.0767 42.3374C11.4087 41.9058 11.583 41.1642 11.5996 40.1128V38.0127C11.5996 36.8838 11.4419 36.098 11.1265 35.6553C10.811 35.207 10.2743 34.9718 9.51611 34.9497H8.62793Z" fill="#101010"/>
<path d="M24.3081 40.0464C24.3081 41.6678 23.9235 42.9268 23.1543 43.8232C22.3906 44.7197 21.3281 45.168 19.9668 45.168C18.611 45.168 17.5457 44.7253 16.771 43.8398C15.9963 42.9489 15.6034 41.7038 15.5923 40.1045V38.0376C15.5923 36.3774 15.9769 35.0825 16.7461 34.1528C17.5153 33.2176 18.5833 32.75 19.9502 32.75C21.2949 32.75 22.3547 33.2093 23.1294 34.1279C23.9041 35.041 24.297 36.3249 24.3081 37.9795V40.0464ZM21.8594 38.021C21.8594 36.9308 21.7044 36.1201 21.3945 35.5889C21.0846 35.0576 20.6032 34.792 19.9502 34.792C19.3027 34.792 18.8241 35.0493 18.5142 35.564C18.2043 36.0731 18.0438 36.8506 18.0327 37.8965V40.0464C18.0327 41.1034 18.1904 41.8836 18.5059 42.3872C18.8213 42.8853 19.3083 43.1343 19.9668 43.1343C20.6032 43.1343 21.0763 42.8908 21.3862 42.4038C21.6961 41.9113 21.8538 41.1504 21.8594 40.1211V38.021Z" fill="#101010"/>
<path d="M34.2524 40.9761C34.1916 42.354 33.8042 43.3971 33.0903 44.1055C32.3765 44.8138 31.3693 45.168 30.0688 45.168C28.702 45.168 27.6533 44.7197 26.9229 43.8232C26.1979 42.9212 25.8354 41.6374 25.8354 39.9717V37.938C25.8354 36.2778 26.2118 34.9995 26.9644 34.103C27.717 33.201 28.7629 32.75 30.1021 32.75C31.4191 32.75 32.418 33.118 33.0986 33.854C33.7848 34.59 34.175 35.647 34.269 37.0249H31.8203C31.7982 36.1727 31.6654 35.5861 31.4219 35.2651C31.1839 34.9386 30.744 34.7754 30.1021 34.7754C29.4491 34.7754 28.987 35.005 28.7158 35.4644C28.4447 35.9181 28.3008 36.668 28.2842 37.7139V39.9966C28.2842 41.1974 28.417 42.022 28.6826 42.4702C28.9538 42.9185 29.4159 43.1426 30.0688 43.1426C30.7108 43.1426 31.1535 42.9876 31.397 42.6777C31.6405 42.3623 31.7788 41.7951 31.812 40.9761H34.2524Z" fill="#101010"/>
<path fill-rule="evenodd" clip-rule="evenodd" d="M39.7059 14.8843L25.5 0.00045415L4.21841 0.000227541C4.3869e-05 0 1.50004 0 4.29153e-05 0L0 51L40.0001 51.0002V15.6177C40.0001 15.3442 39.8945 15.0814 39.7059 14.8843ZM25.2632 2.8556L36.7108 14.8079H25.2632V2.8556ZM37.8947 48.8848V16.9232H23.1579V2H2V49L37.8947 48.8848Z" fill="#101010"/>
</svg>
