<svg width="40" height="51" viewBox="0 0 40 51" fill="none" xmlns="http://www.w3.org/2000/svg">
<path d="M4.70703 45V35.0469H7.33887C8.50098 35.0469 9.42611 35.416 10.1143 36.1543C10.807 36.8926 11.1602 37.9043 11.1738 39.1895V40.8027C11.1738 42.1107 10.8275 43.1383 10.1348 43.8857C9.44661 44.6286 8.49642 45 7.28418 45H4.70703ZM6.7168 36.7217V43.332H7.31836C7.98828 43.332 8.45996 43.1566 8.7334 42.8057C9.00684 42.4502 9.15039 41.8395 9.16406 40.9736V39.2441C9.16406 38.3145 9.03418 37.6673 8.77441 37.3027C8.51465 36.9336 8.07259 36.7399 7.44824 36.7217H6.7168Z" fill="#101010"/>
<path d="M19.6299 40.9189C19.6299 42.2542 19.3132 43.291 18.6797 44.0293C18.0508 44.7676 17.1758 45.1367 16.0547 45.1367C14.9382 45.1367 14.0609 44.7721 13.4229 44.043C12.7848 43.3092 12.4613 42.2839 12.4521 40.9668V39.2646C12.4521 37.8975 12.7689 36.8311 13.4023 36.0654C14.0358 35.2952 14.9154 34.9102 16.041 34.9102C17.1484 34.9102 18.0212 35.2884 18.6592 36.0449C19.2972 36.7969 19.6208 37.8542 19.6299 39.2168V40.9189ZM17.6133 39.251C17.6133 38.3532 17.4857 37.6855 17.2305 37.248C16.9753 36.8105 16.5788 36.5918 16.041 36.5918C15.5078 36.5918 15.1136 36.8037 14.8584 37.2275C14.6032 37.6468 14.471 38.2871 14.4619 39.1484V40.9189C14.4619 41.7894 14.5918 42.432 14.8516 42.8467C15.1113 43.2568 15.5124 43.4619 16.0547 43.4619C16.5788 43.4619 16.9684 43.2614 17.2236 42.8604C17.4788 42.4548 17.6087 41.8281 17.6133 40.9805V39.251Z" fill="#101010"/>
<path d="M27.8193 41.6846C27.7692 42.8193 27.4502 43.6784 26.8623 44.2617C26.2744 44.8451 25.445 45.1367 24.374 45.1367C23.2484 45.1367 22.3848 44.7676 21.7832 44.0293C21.1862 43.2865 20.8877 42.2292 20.8877 40.8574V39.1826C20.8877 37.8154 21.1976 36.7627 21.8174 36.0244C22.4372 35.2816 23.2985 34.9102 24.4014 34.9102C25.486 34.9102 26.3086 35.2132 26.8691 35.8193C27.4342 36.4255 27.7555 37.2959 27.833 38.4307H25.8164C25.7982 37.7288 25.6888 37.2458 25.4883 36.9814C25.2923 36.7126 24.93 36.5781 24.4014 36.5781C23.8636 36.5781 23.4831 36.7673 23.2598 37.1455C23.0365 37.5192 22.918 38.1367 22.9043 38.998V40.8779C22.9043 41.8669 23.0137 42.5459 23.2324 42.915C23.4557 43.2842 23.8363 43.4688 24.374 43.4688C24.9027 43.4688 25.2673 43.3411 25.4678 43.0859C25.6683 42.8262 25.7822 42.359 25.8096 41.6846H27.8193Z" fill="#101010"/>
<path d="M32.1738 38.4648L33.5137 35.0469H35.8174L33.4795 39.9824L35.8721 45H33.541L32.1738 41.5205L30.8135 45H28.4824L30.875 39.9824L28.5303 35.0469H30.834L32.1738 38.4648Z" fill="#101010"/>
<path fill-rule="evenodd" clip-rule="evenodd" d="M39.7059 14.8843L25.5 0.00045415L4.21841 0.000227541C4.3869e-05 0 1.50004 0 4.29153e-05 0L0 51L40.0001 51.0002V15.6177C40.0001 15.3442 39.8945 15.0814 39.7059 14.8843ZM25.2632 2.8556L36.7108 14.8079H25.2632V2.8556ZM37.8947 48.8848V16.9232H23.1579V2H2V49L37.8947 48.8848Z" fill="#101010"/>
</svg>
