<svg width="40" height="51" viewBox="0 0 40 51" fill="none" xmlns="http://www.w3.org/2000/svg">
<path d="M17.877 43.6323C17.4066 44.1414 16.8283 44.526 16.1421 44.7861C15.4614 45.0407 14.7144 45.168 13.9009 45.168C12.5119 45.168 11.4328 44.7391 10.6636 43.8813C9.89437 43.0181 9.4987 41.7646 9.47656 40.1211V37.9463C9.47656 36.2806 9.83903 34.9995 10.564 34.103C11.2944 33.201 12.3569 32.75 13.7515 32.75C15.063 32.75 16.0508 33.0737 16.7148 33.7212C17.3844 34.3687 17.7718 35.3841 17.877 36.7676H15.5029C15.4365 35.9984 15.276 35.4754 15.0215 35.1987C14.7669 34.9165 14.3685 34.7754 13.8262 34.7754C13.1676 34.7754 12.689 35.0161 12.3901 35.4976C12.0913 35.979 11.9364 36.7454 11.9253 37.7969V39.9883C11.9253 41.0895 12.0885 41.8919 12.415 42.3955C12.7471 42.8936 13.2894 43.1426 14.042 43.1426C14.5234 43.1426 14.9136 43.0457 15.2124 42.8521L15.4282 42.7026V40.4863H13.7183V38.6436H17.877V43.6323Z" fill="#101010"/>
<path d="M22.1519 45.002H19.7114V32.916H22.1519V45.002Z" fill="#101010"/>
<path d="M30.436 40.0713H26.6426V45.002H24.2021V32.916H30.8926V34.9497H26.6426V38.0459H30.436V40.0713Z" fill="#101010"/>
<path fill-rule="evenodd" clip-rule="evenodd" d="M39.7059 14.8843L25.5 0.00045415L4.21841 0.000227541C4.3869e-05 0 1.50004 0 4.29153e-05 0L0 51L40.0001 51.0002V15.6177C40.0001 15.3442 39.8945 15.0814 39.7059 14.8843ZM25.2632 2.8556L36.7108 14.8079H25.2632V2.8556ZM37.8947 48.8848V16.9232H23.1579V2H2V49L37.8947 48.8848Z" fill="#101010"/>
</svg>
