<svg width="40" height="51" viewBox="0 0 40 51" fill="none" xmlns="http://www.w3.org/2000/svg">
<path d="M10.9678 32.916H13.4082V41.2832C13.4082 42.4564 13.0817 43.3971 12.4287 44.1055C11.7757 44.8138 10.9346 45.168 9.90527 45.168C8.7985 45.168 7.93799 44.8387 7.32373 44.1802C6.70947 43.5216 6.40234 42.6058 6.40234 41.4326H8.85107C8.85107 42.5726 9.20247 43.1426 9.90527 43.1426C10.6136 43.1426 10.9678 42.484 10.9678 41.167V32.916Z" fill="#101010"/>
<path d="M17.7661 40.752V45.002H15.3257V32.916H19.4429C20.6382 32.916 21.59 33.2868 22.2983 34.0283C23.0122 34.7699 23.3691 35.7327 23.3691 36.917C23.3691 38.1012 23.0177 39.0365 22.3149 39.7227C21.6121 40.4089 20.6382 40.752 19.3931 40.752H17.7661ZM17.7661 38.7183H19.4429C19.9077 38.7183 20.2674 38.5661 20.522 38.2617C20.7765 37.9574 20.9038 37.5146 20.9038 36.9336C20.9038 36.3304 20.7738 35.8517 20.5137 35.4976C20.2536 35.1379 19.9049 34.9552 19.4678 34.9497H17.7661V38.7183Z" fill="#101010"/>
<path d="M33.2222 43.6323C32.7518 44.1414 32.1735 44.526 31.4873 44.7861C30.8066 45.0407 30.0596 45.168 29.2461 45.168C27.8571 45.168 26.778 44.7391 26.0088 43.8813C25.2396 43.0181 24.8439 41.7646 24.8218 40.1211V37.9463C24.8218 36.2806 25.1842 34.9995 25.9092 34.103C26.6396 33.201 27.7021 32.75 29.0967 32.75C30.4082 32.75 31.396 33.0737 32.0601 33.7212C32.7297 34.3687 33.117 35.3841 33.2222 36.7676H30.8481C30.7817 35.9984 30.6213 35.4754 30.3667 35.1987C30.1121 34.9165 29.7137 34.7754 29.1714 34.7754C28.5129 34.7754 28.0342 35.0161 27.7354 35.4976C27.4365 35.979 27.2816 36.7454 27.2705 37.7969V39.9883C27.2705 41.0895 27.4338 41.8919 27.7603 42.3955C28.0923 42.8936 28.6346 43.1426 29.3872 43.1426C29.8687 43.1426 30.2588 43.0457 30.5576 42.8521L30.7734 42.7026V40.4863H29.0635V38.6436H33.2222V43.6323Z" fill="#101010"/>
<path fill-rule="evenodd" clip-rule="evenodd" d="M39.7059 14.8843L25.5 0.00045415L4.21841 0.000227541C4.3869e-05 0 1.50004 0 4.29153e-05 0L0 51L40.0001 51.0002V15.6177C40.0001 15.3442 39.8945 15.0814 39.7059 14.8843ZM25.2632 2.8556L36.7108 14.8079H25.2632V2.8556ZM37.8947 48.8848V16.9232H23.1579V2H2V49L37.8947 48.8848Z" fill="#101010"/>
</svg>
