<svg width="40" height="51" viewBox="0 0 40 51" fill="none" xmlns="http://www.w3.org/2000/svg">
<path d="M8.57031 32.9141L10.853 41.6548L13.1274 32.9141H16.3149V45H13.8662V41.7295L14.0903 36.6909L11.6748 45H10.0146L7.59912 36.6909L7.82324 41.7295V45H5.38281V32.9141H8.57031Z" fill="#101010"/>
<path d="M20.7227 40.75V45H18.2822V32.9141H22.3994C23.5947 32.9141 24.5465 33.2848 25.2549 34.0264C25.9688 34.7679 26.3257 35.7308 26.3257 36.915C26.3257 38.0993 25.9743 39.0345 25.2715 39.7207C24.5687 40.4069 23.5947 40.75 22.3496 40.75H20.7227ZM20.7227 38.7163H22.3994C22.8643 38.7163 23.224 38.5641 23.4785 38.2598C23.7331 37.9554 23.8604 37.5127 23.8604 36.9316C23.8604 36.3285 23.7303 35.8498 23.4702 35.4956C23.2101 35.1359 22.8615 34.9533 22.4243 34.9478H20.7227V38.7163Z" fill="#101010"/>
<path d="M33.9707 40.4346H35V42.3853H33.9707V45H31.6216V42.3853H27.6206L27.5127 40.8662L31.6133 32.9141H33.9707V40.4346ZM29.7954 40.4346H31.6216V36.3921L31.5718 36.4834L29.7954 40.4346Z" fill="#101010"/>
<path fill-rule="evenodd" clip-rule="evenodd" d="M39.7059 14.8843L25.5 0.00045415L4.21841 0.000227541C4.3869e-05 0 1.50004 0 4.29153e-05 0L0 51L40.0001 51.0002V15.6177C40.0001 15.3442 39.8945 15.0814 39.7059 14.8843ZM25.2632 2.8556L36.7108 14.8079H25.2632V2.8556ZM37.8947 48.8848V16.9232H23.1579V2H2V49L37.8947 48.8848Z" fill="#101010"/>
</svg>
