<svg width="40" height="51" viewBox="0 0 40 51" fill="none" xmlns="http://www.w3.org/2000/svg">
<path d="M8.57031 32.916L10.853 41.6567L13.1274 32.916H16.3149V45.002H13.8662V41.7314L14.0903 36.6929L11.6748 45.002H10.0146L7.59912 36.6929L7.82324 41.7314V45.002H5.38281V32.916H8.57031Z" fill="#101010"/>
<path d="M20.7227 40.752V45.002H18.2822V32.916H22.3994C23.5947 32.916 24.5465 33.2868 25.2549 34.0283C25.9688 34.7699 26.3257 35.7327 26.3257 36.917C26.3257 38.1012 25.9743 39.0365 25.2715 39.7227C24.5687 40.4089 23.5947 40.752 22.3496 40.752H20.7227ZM20.7227 38.7183H22.3994C22.8643 38.7183 23.224 38.5661 23.4785 38.2617C23.7331 37.9574 23.8604 37.5146 23.8604 36.9336C23.8604 36.3304 23.7303 35.8517 23.4702 35.4976C23.2101 35.1379 22.8615 34.9552 22.4243 34.9497H20.7227V38.7183Z" fill="#101010"/>
<path d="M29.8701 37.8882H31.0073C31.439 37.8882 31.7544 37.7388 31.9536 37.4399C32.1584 37.1356 32.2607 36.7316 32.2607 36.228C32.2607 35.7466 32.1556 35.373 31.9453 35.1074C31.7406 34.8363 31.4639 34.7007 31.1152 34.7007C30.7887 34.7007 30.5203 34.828 30.3101 35.0825C30.1053 35.3371 30.0029 35.658 30.0029 36.0454H27.6538C27.6538 35.4146 27.7977 34.8501 28.0854 34.3521C28.3787 33.8485 28.7855 33.4556 29.3057 33.1733C29.8314 32.8911 30.4124 32.75 31.0488 32.75C32.1611 32.75 33.0327 33.0571 33.6636 33.6714C34.2944 34.2856 34.6099 35.1268 34.6099 36.1948C34.6099 36.7427 34.466 37.2518 34.1782 37.7222C33.896 38.187 33.5225 38.5439 33.0576 38.793C33.6276 39.0365 34.0509 39.4017 34.3276 39.8887C34.6099 40.3757 34.751 40.9512 34.751 41.6152C34.751 42.6888 34.4079 43.5493 33.7217 44.1968C33.041 44.8442 32.1445 45.168 31.0322 45.168C29.9974 45.168 29.1562 44.8498 28.5088 44.2134C27.8669 43.5715 27.5459 42.7303 27.5459 41.6899H29.895C29.895 42.1216 30.0085 42.484 30.2354 42.7773C30.4622 43.0706 30.75 43.2173 31.0986 43.2173C31.5026 43.2173 31.8208 43.0679 32.0532 42.769C32.2912 42.4702 32.4102 42.0718 32.4102 41.5737C32.4102 40.384 31.9481 39.7863 31.0239 39.7808H29.8701V37.8882Z" fill="#101010"/>
<path fill-rule="evenodd" clip-rule="evenodd" d="M39.7059 14.8843L25.5 0.00045415L4.21841 0.000227541C4.3869e-05 0 1.50004 0 4.29153e-05 0L0 51L40.0001 51.0002V15.6177C40.0001 15.3442 39.8945 15.0814 39.7059 14.8843ZM25.2632 2.8556L36.7108 14.8079H25.2632V2.8556ZM37.8947 48.8848V16.9232H23.1579V2H2V49L37.8947 48.8848Z" fill="#101010"/>
</svg>
