<svg width="40" height="51" viewBox="0 0 40 51" fill="none" xmlns="http://www.w3.org/2000/svg">
<path d="M9.72168 40.75V45H7.28125V32.9141H11.3984C12.5938 32.9141 13.5456 33.2848 14.2539 34.0264C14.9678 34.7679 15.3247 35.7308 15.3247 36.915C15.3247 38.0993 14.9733 39.0345 14.2705 39.7207C13.5677 40.4069 12.5938 40.75 11.3486 40.75H9.72168ZM9.72168 38.7163H11.3984C11.8633 38.7163 12.223 38.5641 12.4775 38.2598C12.7321 37.9554 12.8594 37.5127 12.8594 36.9316C12.8594 36.3285 12.7293 35.8498 12.4692 35.4956C12.2091 35.1359 11.8605 34.9533 11.4233 34.9478H9.72168V38.7163Z" fill="#A61744"/>
<path d="M16.96 45V32.9141H20.1558C21.5669 32.9141 22.6903 33.3623 23.5259 34.2588C24.367 35.1553 24.7959 36.3838 24.8125 37.9443V39.9033C24.8125 41.4915 24.3919 42.7394 23.5508 43.647C22.7152 44.549 21.5614 45 20.0894 45H16.96ZM19.4004 34.9478V42.9746H20.1309C20.9443 42.9746 21.5171 42.7616 21.8491 42.3354C22.1812 41.9038 22.3555 41.1623 22.3721 40.1108V38.0107C22.3721 36.8818 22.2144 36.096 21.8989 35.6533C21.5835 35.2051 21.0467 34.9699 20.2886 34.9478H19.4004Z" fill="#A61744"/>
<path d="M32.8062 40.0693H29.0127V45H26.5723V32.9141H33.2627V34.9478H29.0127V38.0439H32.8062V40.0693Z" fill="#A61744"/>
<path fill-rule="evenodd" clip-rule="evenodd" d="M39.7059 14.8843L25.5 0.00045415L4.21841 0.000227541C4.3869e-05 0 1.50004 0 4.29153e-05 0L0 51L40.0001 51.0002V15.6177C40.0001 15.3442 39.8945 15.0814 39.7059 14.8843ZM25.2632 2.8556L36.7108 14.8079H25.2632V2.8556ZM37.8947 48.8848V16.9232H23.1579V2H2V49L37.8947 48.8848Z" fill="#A61744"/>
<path d="M26.4067 23.2393C25.9512 23.3699 25.2827 23.3847 24.5655 23.2836C23.7962 23.1749 23.0113 22.9462 22.24 22.6092C23.6156 22.4145 24.6827 22.4743 25.5953 22.789C25.8118 22.8636 26.1669 23.0628 26.4067 23.2393ZM18.7321 22.012C18.6761 22.0267 18.6212 22.0407 18.5663 22.0555C18.196 22.1536 17.8359 22.249 17.489 22.3342L17.021 22.4497C16.0796 22.6815 15.1172 22.9182 14.1668 23.1999C14.5281 22.3524 14.8637 21.4958 15.1923 20.6582C15.4356 20.0382 15.684 19.4047 15.941 18.7795C16.0714 18.9889 16.2073 19.1983 16.349 19.4085C16.9938 20.3639 17.8044 21.2474 18.7321 22.012ZM16.3377 12.4565C16.3989 13.5021 16.1668 14.5079 15.8265 15.4728C15.4076 14.2795 15.2122 12.9621 15.7362 11.8984C15.8705 11.6257 15.9807 11.4799 16.052 11.4038C16.1621 11.5697 16.3074 11.94 16.3377 12.4565ZM11.4236 25.7015C11.188 26.1113 10.9478 26.4949 10.7013 26.8569C10.1068 27.7283 9.13465 28.6613 8.63514 28.6613C8.58608 28.6613 8.52651 28.6538 8.43969 28.5644C8.38363 28.5072 8.37467 28.4663 8.3774 28.4106C8.39414 28.0903 8.83058 27.5196 9.46286 26.9906C10.0367 26.5104 10.6854 26.084 11.4236 25.7015ZM27.9975 23.2844C27.9212 22.2172 26.0742 21.5325 26.0559 21.5261C25.3419 21.28 24.5663 21.1603 23.6849 21.1603C22.7411 21.1603 21.7238 21.2932 20.4172 21.5901C19.2546 20.7884 18.2501 19.7849 17.4999 18.6738C17.1686 18.1831 16.8707 17.693 16.611 17.2144C17.2449 15.7401 17.8156 14.155 17.7121 12.3797C17.6284 10.9562 16.9685 10 16.071 10C15.4555 10 14.9252 10.4434 14.4942 11.3193C13.7253 12.8803 13.9274 14.8775 15.0946 17.2606C14.6741 18.2209 14.2836 19.2165 13.9056 20.1806C13.4352 21.3792 12.9505 22.6156 12.4043 23.7918C10.8723 24.3814 9.61393 25.0964 8.56506 25.9742C7.87788 26.5483 7.04977 27.4257 7.00227 28.3417C6.9793 28.7731 7.13114 29.1688 7.44027 29.4857C7.76848 29.8224 8.18117 29.9996 8.63475 30C10.1329 30 11.5746 27.9979 11.8479 27.5965C12.3984 26.7895 12.9135 25.8893 13.4185 24.851C14.6901 24.4041 16.0453 24.0705 17.3586 23.7479L17.8289 23.6316C18.1824 23.5441 18.5499 23.4476 18.9268 23.3472C19.3259 23.2423 19.7362 23.1336 20.1532 23.0303C21.5019 23.8645 22.9521 24.4087 24.3666 24.6082C25.558 24.7768 26.6162 24.6791 27.3322 24.3159C27.9769 23.9895 28.0127 23.4858 27.9975 23.2844Z" fill="#A61744"/>
</svg>
