<svg width="40" height="51" viewBox="0 0 40 51" fill="none" xmlns="http://www.w3.org/2000/svg">
<path d="M8.39355 40.752V45.002H5.95312V32.916H10.0703C11.2656 32.916 12.2174 33.2868 12.9258 34.0283C13.6396 34.7699 13.9966 35.7327 13.9966 36.917C13.9966 38.1012 13.6452 39.0365 12.9424 39.7227C12.2396 40.4089 11.2656 40.752 10.0205 40.752H8.39355ZM8.39355 38.7183H10.0703C10.5352 38.7183 10.8949 38.5661 11.1494 38.2617C11.404 37.9574 11.5312 37.5146 11.5312 36.9336C11.5312 36.3304 11.4012 35.8517 11.1411 35.4976C10.881 35.1379 10.5324 34.9552 10.0952 34.9497H8.39355V38.7183Z" fill="#101010"/>
<path d="M24.082 45.002H21.6416L18.0723 37.0747V45.002H15.6318V32.916H18.0723L21.6499 40.8516V32.916H24.082V45.002Z" fill="#101010"/>
<path d="M34.2588 43.6323C33.7884 44.1414 33.2101 44.526 32.5239 44.7861C31.8433 45.0407 31.0962 45.168 30.2827 45.168C28.8937 45.168 27.8146 44.7391 27.0454 43.8813C26.2762 43.0181 25.8805 41.7646 25.8584 40.1211V37.9463C25.8584 36.2806 26.2209 34.9995 26.9458 34.103C27.6763 33.201 28.7388 32.75 30.1333 32.75C31.4448 32.75 32.4326 33.0737 33.0967 33.7212C33.7663 34.3687 34.1536 35.3841 34.2588 36.7676H31.8848C31.8184 35.9984 31.6579 35.4754 31.4033 35.1987C31.1488 34.9165 30.7503 34.7754 30.208 34.7754C29.5495 34.7754 29.0708 35.0161 28.772 35.4976C28.4731 35.979 28.3182 36.7454 28.3071 37.7969V39.9883C28.3071 41.0895 28.4704 41.8919 28.7969 42.3955C29.1289 42.8936 29.6712 43.1426 30.4238 43.1426C30.9053 43.1426 31.2954 43.0457 31.5942 42.8521L31.8101 42.7026V40.4863H30.1001V38.6436H34.2588V43.6323Z" fill="#101010"/>
<path fill-rule="evenodd" clip-rule="evenodd" d="M39.7059 14.8843L25.5 0.00045415L4.21841 0.000227541C4.3869e-05 0 1.50004 0 4.29153e-05 0L0 51L40.0001 51.0002V15.6177C40.0001 15.3442 39.8945 15.0814 39.7059 14.8843ZM25.2632 2.8556L36.7108 14.8079H25.2632V2.8556ZM37.8947 48.8848V16.9232H23.1579V2H2V49L37.8947 48.8848Z" fill="#101010"/>
</svg>
