<svg width="40" height="51" viewBox="0 0 40 51" fill="none" xmlns="http://www.w3.org/2000/svg">
<path d="M9.12012 40.75V45H6.67969V32.9141H10.7969C11.9922 32.9141 12.944 33.2848 13.6523 34.0264C14.3662 34.7679 14.7231 35.7308 14.7231 36.915C14.7231 38.0993 14.3717 39.0345 13.6689 39.7207C12.9661 40.4069 11.9922 40.75 10.7471 40.75H9.12012ZM9.12012 38.7163H10.7969C11.2617 38.7163 11.6214 38.5641 11.876 38.2598C12.1305 37.9554 12.2578 37.5127 12.2578 36.9316C12.2578 36.3285 12.1278 35.8498 11.8677 35.4956C11.6076 35.1359 11.259 34.9533 10.8218 34.9478H9.12012V38.7163Z" fill="#101010"/>
<path d="M18.7988 40.75V45H16.3584V32.9141H20.4756C21.6709 32.9141 22.6227 33.2848 23.3311 34.0264C24.0449 34.7679 24.4019 35.7308 24.4019 36.915C24.4019 38.0993 24.0505 39.0345 23.3477 39.7207C22.6449 40.4069 21.6709 40.75 20.4258 40.75H18.7988ZM18.7988 38.7163H20.4756C20.9404 38.7163 21.3001 38.5641 21.5547 38.2598C21.8092 37.9554 21.9365 37.5127 21.9365 36.9316C21.9365 36.3285 21.8065 35.8498 21.5464 35.4956C21.2863 35.1359 20.9377 34.9533 20.5005 34.9478H18.7988V38.7163Z" fill="#101010"/>
<path d="M33.8647 34.9478H30.8765V45H28.4277V34.9478H25.4893V32.9141H33.8647V34.9478Z" fill="#101010"/>
<path fill-rule="evenodd" clip-rule="evenodd" d="M39.7059 14.8843L25.5 0.00045415L4.21841 0.000227541C4.3869e-05 0 1.50004 0 4.29153e-05 0L0 51L40.0001 51.0002V15.6177C40.0001 15.3442 39.8945 15.0814 39.7059 14.8843ZM25.2632 2.8556L36.7108 14.8079H25.2632V2.8556ZM37.8947 48.8848V16.9232H23.1579V2H2V49L37.8947 48.8848Z" fill="#101010"/>
</svg>
