<svg width="40" height="51" viewBox="0 0 40 51" fill="none" xmlns="http://www.w3.org/2000/svg">
<path d="M10.1367 40.584H8.9248V45H6.48438V32.9141H10.3774C11.6004 32.9141 12.5439 33.2323 13.208 33.8687C13.8776 34.4995 14.2124 35.3988 14.2124 36.5664C14.2124 38.1712 13.6286 39.2946 12.4609 39.9365L14.5776 44.8838V45H11.9546L10.1367 40.584ZM8.9248 38.5503H10.311C10.798 38.5503 11.1632 38.3898 11.4067 38.0688C11.6502 37.7424 11.772 37.3079 11.772 36.7656C11.772 35.5537 11.2988 34.9478 10.3525 34.9478H8.9248V38.5503Z" fill="#101010"/>
<path d="M21.6582 42.5264H18.3296L17.6821 45H15.1006L18.8774 32.9141H21.1104L24.9121 45H22.3057L21.6582 42.5264ZM18.8608 40.4927H21.1187L19.9897 36.1846L18.8608 40.4927Z" fill="#101010"/>
<path d="M29.71 40.584H28.498V45H26.0576V32.9141H29.9507C31.1737 32.9141 32.1172 33.2323 32.7812 33.8687C33.4508 34.4995 33.7856 35.3988 33.7856 36.5664C33.7856 38.1712 33.2018 39.2946 32.0342 39.9365L34.1509 44.8838V45H31.5278L29.71 40.584ZM28.498 38.5503H29.8843C30.3713 38.5503 30.7365 38.3898 30.98 38.0688C31.2235 37.7424 31.3452 37.3079 31.3452 36.7656C31.3452 35.5537 30.8721 34.9478 29.9258 34.9478H28.498V38.5503Z" fill="#101010"/>
<path fill-rule="evenodd" clip-rule="evenodd" d="M39.7059 14.8843L25.5 0.00045415L4.21841 0.000227541C4.3869e-05 0 1.50004 0 4.29153e-05 0L0 51L40.0001 51.0002V15.6177C40.0001 15.3442 39.8945 15.0814 39.7059 14.8843ZM25.2632 2.8556L36.7108 14.8079H25.2632V2.8556ZM37.8947 48.8848V16.9232H23.1579V2H2V49L37.8947 48.8848Z" fill="#101010"/>
</svg>
