<svg width="10" height="13" viewBox="0 0 10 13" fill="none" xmlns="http://www.w3.org/2000/svg">
<path fill-rule="evenodd" clip-rule="evenodd" d="M9.88967 4.54503L5.66031 0.12078C5.58587 0.0436217 5.48315 0 5.37587 0H1.58189C0.709641 0 0 0.708112 0 1.57846V11.4243C0 12.2931 0.709641 13 1.58189 13H8.41811C9.29036 13 10 12.2935 10 11.4252V4.81829C10 4.7164 9.96043 4.61847 9.88967 4.54503ZM8.76654 4.51658L5.47369 1.06377V4.51658H8.76654ZM8.41807 12.2119C8.85501 12.2119 9.21049 11.859 9.21049 11.4252V5.30465H5.07892C4.86095 5.30465 4.68419 5.12824 4.68419 4.91061V0.788071H1.58189C1.14494 0.788071 0.789459 1.14261 0.789459 1.57846V11.4243C0.789459 11.8586 1.14494 12.2119 1.58189 12.2119H8.41807Z" fill="#101010"/>
</svg>
