<svg width="40" height="51" viewBox="0 0 40 51" fill="none" xmlns="http://www.w3.org/2000/svg">
<path d="M14.813 34.9478H11.8247V45H9.37598V34.9478H6.4375V32.9141H14.813V34.9478Z" fill="#101010"/>
<path d="M20.001 37.0645L21.6279 32.9141H24.4253L21.5864 38.9072L24.4917 45H21.6611L20.001 40.7749L18.3491 45H15.5186L18.4238 38.9072L15.5767 32.9141H18.374L20.001 37.0645Z" fill="#101010"/>
<path d="M33.5562 34.9478H30.5679V45H28.1191V34.9478H25.1807V32.9141H33.5562V34.9478Z" fill="#101010"/>
<path fill-rule="evenodd" clip-rule="evenodd" d="M39.7059 14.8843L25.5 0.00045415L4.21841 0.000227541C4.3869e-05 0 1.50004 0 4.29153e-05 0L0 51L40.0001 51.0002V15.6177C40.0001 15.3442 39.8945 15.0814 39.7059 14.8843ZM25.2632 2.8556L36.7108 14.8079H25.2632V2.8556ZM37.8947 48.8848V16.9232H23.1579V2H2V49L37.8947 48.8848Z" fill="#101010"/>
</svg>
