<svg width="40" height="51" viewBox="0 0 40 51" fill="none" xmlns="http://www.w3.org/2000/svg">
<path d="M11.3418 37.0664L12.9688 32.916H15.7661L12.9272 38.9092L15.8325 45.002H13.002L11.3418 40.7769L9.68994 45.002H6.85938L9.76465 38.9092L6.91748 32.916H9.71484L11.3418 37.0664Z" fill="#101010"/>
<path d="M19.5098 42.9766H23.793V45.002H17.0693V32.916H19.5098V42.9766Z" fill="#101010"/>
<path d="M30.3091 41.8311C30.3091 41.3385 30.1818 40.9678 29.9272 40.7188C29.6782 40.4642 29.2217 40.2013 28.5576 39.9302C27.3457 39.4709 26.4741 38.9341 25.9429 38.3198C25.4116 37.7 25.146 36.9696 25.146 36.1284C25.146 35.1102 25.5057 34.2939 26.2251 33.6797C26.95 33.0599 27.8687 32.75 28.981 32.75C29.7225 32.75 30.3838 32.9077 30.9648 33.2231C31.5459 33.533 31.9914 33.973 32.3013 34.543C32.6167 35.113 32.7744 35.7604 32.7744 36.4854H30.3423C30.3423 35.9209 30.2205 35.492 29.9771 35.1987C29.7391 34.8999 29.3932 34.7505 28.9395 34.7505C28.5133 34.7505 28.1813 34.8778 27.9434 35.1323C27.7054 35.3813 27.5864 35.7189 27.5864 36.145C27.5864 36.4771 27.7192 36.7786 27.9849 37.0498C28.2505 37.3154 28.7209 37.5921 29.396 37.8799C30.5747 38.306 31.4297 38.8289 31.9609 39.4487C32.4977 40.0685 32.7661 40.8571 32.7661 41.8145C32.7661 42.8659 32.4313 43.6877 31.7617 44.2798C31.0921 44.8719 30.1818 45.168 29.0308 45.168C28.2505 45.168 27.5394 45.0075 26.8975 44.6865C26.2555 44.3656 25.752 43.9062 25.3867 43.3086C25.027 42.7109 24.8472 42.0054 24.8472 41.1919H27.2959C27.2959 41.8892 27.4315 42.3955 27.7026 42.7109C27.9738 43.0264 28.4165 43.1841 29.0308 43.1841C29.883 43.1841 30.3091 42.7331 30.3091 41.8311Z" fill="#101010"/>
<path fill-rule="evenodd" clip-rule="evenodd" d="M39.7059 14.8843L25.5 0.00045415L4.21841 0.000227541C4.3869e-05 0 1.50004 0 4.29153e-05 0L0 51L40.0001 51.0002V15.6177C40.0001 15.3442 39.8945 15.0814 39.7059 14.8843ZM25.2632 2.8556L36.7108 14.8079H25.2632V2.8556ZM37.8947 48.8848V16.9232H23.1579V2H2V49L37.8947 48.8848Z" fill="#101010"/>
</svg>
