<svg width="40" height="51" viewBox="0 0 40 51" fill="none" xmlns="http://www.w3.org/2000/svg">
<path d="M8.95312 38.4648L10.293 35.0469H12.5967L10.2588 39.9824L12.6514 45H10.3203L8.95312 41.5205L7.59277 45H5.26172L7.6543 39.9824L5.30957 35.0469H7.61328L8.95312 38.4648Z" fill="#101010"/>
<path d="M15.6797 43.332H19.207V45H13.6699V35.0469H15.6797V43.332Z" fill="#101010"/>
<path d="M24.5732 42.3887C24.5732 41.9831 24.4684 41.6777 24.2588 41.4727C24.0537 41.263 23.6777 41.0465 23.1309 40.8232C22.1328 40.445 21.415 40.0029 20.9775 39.4971C20.54 38.9867 20.3213 38.3851 20.3213 37.6924C20.3213 36.8538 20.6175 36.1816 21.21 35.6758C21.807 35.1654 22.5635 34.9102 23.4795 34.9102C24.0902 34.9102 24.6348 35.04 25.1133 35.2998C25.5918 35.555 25.9587 35.9173 26.2139 36.3867C26.4736 36.8561 26.6035 37.3893 26.6035 37.9863H24.6006C24.6006 37.5215 24.5003 37.1683 24.2998 36.9268C24.1038 36.6807 23.819 36.5576 23.4453 36.5576C23.0944 36.5576 22.821 36.6624 22.625 36.8721C22.429 37.0771 22.3311 37.3551 22.3311 37.7061C22.3311 37.9795 22.4404 38.2279 22.6592 38.4512C22.8779 38.6699 23.2653 38.8978 23.8213 39.1348C24.792 39.4857 25.4961 39.9163 25.9336 40.4268C26.3757 40.9372 26.5967 41.5866 26.5967 42.375C26.5967 43.2409 26.321 43.9176 25.7695 44.4053C25.2181 44.8929 24.4684 45.1367 23.5205 45.1367C22.8779 45.1367 22.2923 45.0046 21.7637 44.7402C21.235 44.4759 20.8203 44.0977 20.5195 43.6055C20.2233 43.1133 20.0752 42.5322 20.0752 41.8623H22.0918C22.0918 42.4365 22.2035 42.8535 22.4268 43.1133C22.6501 43.373 23.0146 43.5029 23.5205 43.5029C24.2223 43.5029 24.5732 43.1315 24.5732 42.3887Z" fill="#101010"/>
<path d="M31.0469 38.4648L32.3867 35.0469H34.6904L32.3525 39.9824L34.7451 45H32.4141L31.0469 41.5205L29.6865 45H27.3555L29.748 39.9824L27.4033 35.0469H29.707L31.0469 38.4648Z" fill="#101010"/>
<path fill-rule="evenodd" clip-rule="evenodd" d="M39.7059 14.8843L25.5 0.00045415L4.21841 0.000227541C4.3869e-05 0 1.50004 0 4.29153e-05 0L0 51L40.0001 51.0002V15.6177C40.0001 15.3442 39.8945 15.0814 39.7059 14.8843ZM25.2632 2.8556L36.7108 14.8079H25.2632V2.8556ZM37.8947 48.8848V16.9232H23.1579V2H2V49L37.8947 48.8848Z" fill="#101010"/>
</svg>
