<svg width="40" height="51" viewBox="0 0 40 51" fill="none" xmlns="http://www.w3.org/2000/svg">
<path d="M11.8584 42.9746H16.8389V45H9.00293V43.5308L13.9336 34.9478H8.95312V32.9141H16.7476V34.3501L11.8584 42.9746Z" fill="#101010"/>
<path d="M20.8896 45H18.4492V32.9141H20.8896V45Z" fill="#101010"/>
<path d="M25.3804 40.75V45H22.9399V32.9141H27.0571C28.2524 32.9141 29.2043 33.2848 29.9126 34.0264C30.6265 34.7679 30.9834 35.7308 30.9834 36.915C30.9834 38.0993 30.632 39.0345 29.9292 39.7207C29.2264 40.4069 28.2524 40.75 27.0073 40.75H25.3804ZM25.3804 38.7163H27.0571C27.522 38.7163 27.8817 38.5641 28.1362 38.2598C28.3908 37.9554 28.5181 37.5127 28.5181 36.9316C28.5181 36.3285 28.388 35.8498 28.1279 35.4956C27.8678 35.1359 27.5192 34.9533 27.082 34.9478H25.3804V38.7163Z" fill="#101010"/>
<path fill-rule="evenodd" clip-rule="evenodd" d="M39.7059 14.8843L25.5 0.00045415L4.21841 0.000227541C4.3869e-05 0 1.50004 0 4.29153e-05 0L0 51L40.0001 51.0002V15.6177C40.0001 15.3442 39.8945 15.0814 39.7059 14.8843ZM25.2632 2.8556L36.7108 14.8079H25.2632V2.8556ZM37.8947 48.8848V16.9232H23.1579V2H2V49L37.8947 48.8848Z" fill="#101010"/>
</svg>
