<svg width="160" height="60" viewBox="0 0 160 60" fill="none" xmlns="http://www.w3.org/2000/svg">
<g clip-path="url(#clip0)">
<path d="M160.001 0.554688H144.57V6.64708H153.987V16.1865H160.001V0.554688Z" fill="#A51A43"/>
<path d="M153.986 22.1992V53.4628H109.911H107.774H0V59.5552H107.774H109.911H160V58.7536V53.4628V22.1992H153.986Z" fill="#7A442D"/>
<path d="M138.635 0.554688H6.01385H1.3452H0V47.3699H6.01385V6.64708H138.635V0.554688Z" fill="#7A442D"/>
<path d="M26.1122 30.1357C29.1191 30.1357 30.86 28.2919 30.86 25.8871C30.86 23.1615 28.9608 21.7186 26.0331 21.7186H21.3644V30.1357H26.1122ZM15.4297 16.3477H26.5078C32.9965 16.3477 36.8738 20.1955 36.8738 25.8871C36.8738 32.2199 31.9678 35.5066 25.8748 35.5066H21.3644V43.7634H15.4297V16.3477Z" fill="#A61744"/>
<path d="M58.7924 16.3477H65.2811L54.836 37.5107C52.4621 42.3205 49.7717 44.1642 45.9734 44.1642C43.9161 44.1642 41.8587 43.6031 40.1179 42.561L42.4126 38.152C43.3622 38.7132 44.47 39.0338 45.6569 39.0338C46.7647 39.0338 47.9517 38.5528 49.0595 36.8694L38.2188 16.3477H44.8656L52.2247 30.8572L58.7924 16.3477Z" fill="#A61744"/>
<path d="M65.043 30.0551C65.2012 22.0388 71.6899 15.7059 79.6028 15.8663C83.401 15.9464 87.041 17.5497 89.6523 20.3554L86.0914 24.5239C84.0341 22.6 82.2141 21.4777 79.128 21.4777C74.5385 21.4777 71.2942 25.3255 71.2942 30.1353C71.2942 34.9451 74.5385 38.7929 79.128 38.7929C82.2141 38.7929 84.1132 37.5103 86.2497 35.5864L90.0479 39.6747C87.2784 42.7209 84.1923 44.3241 78.9698 44.3241C71.3733 44.4043 65.2012 38.3119 65.043 30.6964C65.1221 30.3758 65.1221 30.2154 65.043 30.0551Z" fill="#A61744"/>
<path d="M117.902 43.7616H112.046V25.805L100.177 43.7616H94.5586V16.2656H100.493V34.3023L112.363 16.2656H117.902V43.7616Z" fill="#A61744"/>
<path d="M138.636 33.5025C136.42 34.705 133.967 35.4265 131.514 35.5066C126.133 35.5066 122.414 32.6208 122.414 26.2879V16.3477H128.349V24.6045C128.349 28.0515 129.694 29.9754 132.701 29.9754C134.837 29.9754 136.895 29.4142 138.636 28.2118V16.3477H144.57V43.8436H138.636V33.5025Z" fill="#A61744"/>
</g>
<defs>
<clipPath id="clip0">
<rect width="160" height="59" fill="white" transform="translate(0 0.554688)"/>
</clipPath>
</defs>
</svg>
