<svg width="145" height="151" viewBox="0 0 145 151" fill="none" xmlns="http://www.w3.org/2000/svg">
<path d="M52.9365 107.871V45.8552C52.9365 43.9282 56.1859 42.8771 58.4301 44.1034L106.678 74.7607C108.673 75.8118 108.673 78.0893 106.678 79.1404L58.4301 109.448C56.1859 110.849 52.9365 109.623 52.9365 107.871Z" fill="white"/>
<path fill-rule="evenodd" clip-rule="evenodd" d="M145 75.6293C145 116.934 112.541 150.419 72.5 150.419C32.4594 150.419 0 116.934 0 75.6293C0 34.3242 32.4594 0.839844 72.5 0.839844C112.541 0.839844 145 34.3242 145 75.6293ZM135.333 75.6293C135.333 111.427 107.202 140.447 72.5 140.447C37.7981 140.447 9.66667 111.427 9.66667 75.6293C9.66667 39.8315 37.7981 10.8118 72.5 10.8118C107.202 10.8118 135.333 39.8315 135.333 75.6293Z" fill="white"/>
</svg>
