<svg width="46" height="47" viewBox="0 0 46 47" fill="none" xmlns="http://www.w3.org/2000/svg">
<path d="M21.2393 11.5526L21.2412 11.5506L20.7513 10.8869C21.8366 12.3416 23.5546 13.2502 25.4393 13.251C24.1412 13.2504 22.9246 12.8203 21.9374 12.0778L21.2393 11.5526ZM8.82027 24.117L8.84186 24.0952L8.82217 24.1177L8.82158 24.1183L8.82155 24.1183L8.82086 24.119L8.79862 24.1389L8.82027 24.117ZM29.1424 9.01678C29.2014 9.04489 29.2613 9.07346 29.3222 9.10252L29.2746 9.0798C29.23 9.05853 29.1859 9.03753 29.1424 9.01678ZM31.5057 22.1991L29.8809 20.682L30.1689 20.9456C30.4346 21.1886 30.6876 21.4268 30.9271 21.6532L31.0679 21.7863L31.068 21.7864L31.0724 21.7906C31.2225 21.9326 31.367 22.0694 31.5057 22.1991Z" fill="#A61744" stroke="#A61744" stroke-width="2" stroke-linecap="round"/>
</svg>
