<svg width="46" height="47" viewBox="0 0 46 47" fill="none" xmlns="http://www.w3.org/2000/svg">
<mask id="path-1-inside-1" fill="white">
<path d="M23.0099 3.02263C24.6359 2.07341 26.6257 2.16612 28.1432 3.19127C28.4058 3.36866 28.6547 3.57427 28.8855 3.80785C29.0836 4.00809 29.2647 4.22528 29.4263 4.45635C29.5115 4.57817 29.5914 4.70394 29.6657 4.8333C29.9407 5.31224 30.5519 5.47756 31.0309 5.20254C31.5098 4.92753 31.6751 4.31633 31.4001 3.83738C31.2962 3.65647 31.1844 3.4805 31.0652 3.30997C30.839 2.98665 30.5858 2.68288 30.3081 2.4021C29.9843 2.0744 29.6338 1.78464 29.2628 1.53397C27.1186 0.0855184 24.302 -0.0475387 22.0016 1.2954C19.306 2.86902 17.9989 6.07094 18.7998 9.09927C19.03 9.9695 19.4182 10.7647 19.9286 11.4561L8.80779 22.7071L6.68694 20.6361C6.2918 20.2502 5.65868 20.2578 5.27282 20.6529C4.88697 21.048 4.89449 21.6812 5.28963 22.067L7.40181 24.1296L4.62804 26.9358L2.31711 24.8356C1.90841 24.4641 1.27596 24.4943 0.90451 24.903C0.533057 25.3117 0.563256 25.9442 0.971963 26.3156L3.99255 29.0609C4.3892 29.4214 4.99954 29.405 5.37634 29.0238L9.48879 24.8632C9.50526 24.8484 9.52135 24.833 9.53703 24.817C9.5498 24.8039 9.56215 24.7905 9.57406 24.7769L21.3363 12.8769C22.4911 13.7456 23.9172 14.2503 25.4388 14.251C25.9911 14.2513 26.439 13.8038 26.4393 13.2515C26.4395 12.6992 25.992 12.2513 25.4397 12.251C23.2416 12.25 21.3064 10.7547 20.7333 8.5879C20.1598 6.41911 21.0996 4.1378 23.0099 3.02263Z"/>
<path d="M28.844 9.98236V20.2968C28.2375 20.8062 27.6847 21.2929 27.2003 21.7336L14.4828 33.318C14.0746 33.69 14.0451 34.3224 14.417 34.7307C14.7889 35.139 15.4214 35.1685 15.8297 34.7966L28.5471 23.2121C28.6433 23.1246 28.7423 23.0352 28.844 22.9441V29.5981C28.844 30.1504 29.2917 30.5981 29.844 30.5981C30.3963 30.5981 30.844 30.1504 30.844 29.5981V22.9493C30.9417 23.0406 31.037 23.1287 31.1291 23.2125L43.8582 34.7969C44.2666 35.1686 44.8991 35.1388 45.2708 34.7304C45.6426 34.3219 45.6128 33.6895 45.2043 33.3177L42.5938 30.9419V23.6523C42.5938 23.1001 42.146 22.6523 41.5938 22.6523C41.0415 22.6523 40.5938 23.1001 40.5938 23.6523V29.1218L32.4751 21.7332C32.2568 21.5346 32.0192 21.3097 31.7552 21.0599L31.6141 20.9265C31.3737 20.6993 31.1159 20.4566 30.844 20.2078V8.72096L30.2749 8.44921C28.2826 7.49791 27.3169 7.03793 25.8378 6.39234C25.3316 6.17141 24.7422 6.40265 24.5212 6.90882C24.3003 7.41499 24.5316 8.00442 25.0377 8.22535C26.3372 8.79253 27.2265 9.21074 28.844 9.98236Z"/>
<path d="M22.043 33.8047C22.043 33.2524 21.5953 32.8047 21.043 32.8047C20.4907 32.8047 20.043 33.2524 20.043 33.8047V46.8047H39.6842V33.8047C39.6842 33.2524 39.2365 32.8047 38.6842 32.8047C38.1319 32.8047 37.6842 33.2524 37.6842 33.8047V44.8047H22.043V33.8047Z"/>
</mask>
<path d="M23.0099 3.02263C24.6359 2.07341 26.6257 2.16612 28.1432 3.19127C28.4058 3.36866 28.6547 3.57427 28.8855 3.80785C29.0836 4.00809 29.2647 4.22528 29.4263 4.45635C29.5115 4.57817 29.5914 4.70394 29.6657 4.8333C29.9407 5.31224 30.5519 5.47756 31.0309 5.20254C31.5098 4.92753 31.6751 4.31633 31.4001 3.83738C31.2962 3.65647 31.1844 3.4805 31.0652 3.30997C30.839 2.98665 30.5858 2.68288 30.3081 2.4021C29.9843 2.0744 29.6338 1.78464 29.2628 1.53397C27.1186 0.0855184 24.302 -0.0475387 22.0016 1.2954C19.306 2.86902 17.9989 6.07094 18.7998 9.09927C19.03 9.9695 19.4182 10.7647 19.9286 11.4561L8.80779 22.7071L6.68694 20.6361C6.2918 20.2502 5.65868 20.2578 5.27282 20.6529C4.88697 21.048 4.89449 21.6812 5.28963 22.067L7.40181 24.1296L4.62804 26.9358L2.31711 24.8356C1.90841 24.4641 1.27596 24.4943 0.90451 24.903C0.533057 25.3117 0.563256 25.9442 0.971963 26.3156L3.99255 29.0609C4.3892 29.4214 4.99954 29.405 5.37634 29.0238L9.48879 24.8632C9.50526 24.8484 9.52135 24.833 9.53703 24.817C9.5498 24.8039 9.56215 24.7905 9.57406 24.7769L21.3363 12.8769C22.4911 13.7456 23.9172 14.2503 25.4388 14.251C25.9911 14.2513 26.439 13.8038 26.4393 13.2515C26.4395 12.6992 25.992 12.2513 25.4397 12.251C23.2416 12.25 21.3064 10.7547 20.7333 8.5879C20.1598 6.41911 21.0996 4.1378 23.0099 3.02263Z" fill="#A61744"/>
<path d="M28.844 9.98236V20.2968C28.2375 20.8062 27.6847 21.2929 27.2003 21.7336L14.4828 33.318C14.0746 33.69 14.0451 34.3224 14.417 34.7307C14.7889 35.139 15.4214 35.1685 15.8297 34.7966L28.5471 23.2121C28.6433 23.1246 28.7423 23.0352 28.844 22.9441V29.5981C28.844 30.1504 29.2917 30.5981 29.844 30.5981C30.3963 30.5981 30.844 30.1504 30.844 29.5981V22.9493C30.9417 23.0406 31.037 23.1287 31.1291 23.2125L43.8582 34.7969C44.2666 35.1686 44.8991 35.1388 45.2708 34.7304C45.6426 34.3219 45.6128 33.6895 45.2043 33.3177L42.5938 30.9419V23.6523C42.5938 23.1001 42.146 22.6523 41.5938 22.6523C41.0415 22.6523 40.5938 23.1001 40.5938 23.6523V29.1218L32.4751 21.7332C32.2568 21.5346 32.0192 21.3097 31.7552 21.0599L31.6141 20.9265C31.3737 20.6993 31.1159 20.4566 30.844 20.2078V8.72096L30.2749 8.44921C28.2826 7.49791 27.3169 7.03793 25.8378 6.39234C25.3316 6.17141 24.7422 6.40265 24.5212 6.90882C24.3003 7.41499 24.5316 8.00442 25.0377 8.22535C26.3372 8.79253 27.2265 9.21074 28.844 9.98236Z" fill="#A61744"/>
<path d="M22.043 33.8047C22.043 33.2524 21.5953 32.8047 21.043 32.8047C20.4907 32.8047 20.043 33.2524 20.043 33.8047V46.8047H39.6842V33.8047C39.6842 33.2524 39.2365 32.8047 38.6842 32.8047C38.1319 32.8047 37.6842 33.2524 37.6842 33.8047V44.8047H22.043V33.8047Z" fill="#A61744"/>
<path d="M23.0099 3.02263C24.6359 2.07341 26.6257 2.16612 28.1432 3.19127C28.4058 3.36866 28.6547 3.57427 28.8855 3.80785C29.0836 4.00809 29.2647 4.22528 29.4263 4.45635C29.5115 4.57817 29.5914 4.70394 29.6657 4.8333C29.9407 5.31224 30.5519 5.47756 31.0309 5.20254C31.5098 4.92753 31.6751 4.31633 31.4001 3.83738C31.2962 3.65647 31.1844 3.4805 31.0652 3.30997C30.839 2.98665 30.5858 2.68288 30.3081 2.4021C29.9843 2.0744 29.6338 1.78464 29.2628 1.53397C27.1186 0.0855184 24.302 -0.0475387 22.0016 1.2954C19.306 2.86902 17.9989 6.07094 18.7998 9.09927C19.03 9.9695 19.4182 10.7647 19.9286 11.4561L8.80779 22.7071L6.68694 20.6361C6.2918 20.2502 5.65868 20.2578 5.27282 20.6529C4.88697 21.048 4.89449 21.6812 5.28963 22.067L7.40181 24.1296L4.62804 26.9358L2.31711 24.8356C1.90841 24.4641 1.27596 24.4943 0.90451 24.903C0.533057 25.3117 0.563256 25.9442 0.971963 26.3156L3.99255 29.0609C4.3892 29.4214 4.99954 29.405 5.37634 29.0238L9.48879 24.8632C9.50526 24.8484 9.52135 24.833 9.53703 24.817C9.5498 24.8039 9.56215 24.7905 9.57406 24.7769L21.3363 12.8769C22.4911 13.7456 23.9172 14.2503 25.4388 14.251C25.9911 14.2513 26.439 13.8038 26.4393 13.2515C26.4395 12.6992 25.992 12.2513 25.4397 12.251C23.2416 12.25 21.3064 10.7547 20.7333 8.5879C20.1598 6.41911 21.0996 4.1378 23.0099 3.02263Z" stroke="#A61744" stroke-width="4" stroke-linecap="round" mask="url(#path-1-inside-1)"/>
<path d="M28.844 9.98236V20.2968C28.2375 20.8062 27.6847 21.2929 27.2003 21.7336L14.4828 33.318C14.0746 33.69 14.0451 34.3224 14.417 34.7307C14.7889 35.139 15.4214 35.1685 15.8297 34.7966L28.5471 23.2121C28.6433 23.1246 28.7423 23.0352 28.844 22.9441V29.5981C28.844 30.1504 29.2917 30.5981 29.844 30.5981C30.3963 30.5981 30.844 30.1504 30.844 29.5981V22.9493C30.9417 23.0406 31.037 23.1287 31.1291 23.2125L43.8582 34.7969C44.2666 35.1686 44.8991 35.1388 45.2708 34.7304C45.6426 34.3219 45.6128 33.6895 45.2043 33.3177L42.5938 30.9419V23.6523C42.5938 23.1001 42.146 22.6523 41.5938 22.6523C41.0415 22.6523 40.5938 23.1001 40.5938 23.6523V29.1218L32.4751 21.7332C32.2568 21.5346 32.0192 21.3097 31.7552 21.0599L31.6141 20.9265C31.3737 20.6993 31.1159 20.4566 30.844 20.2078V8.72096L30.2749 8.44921C28.2826 7.49791 27.3169 7.03793 25.8378 6.39234C25.3316 6.17141 24.7422 6.40265 24.5212 6.90882C24.3003 7.41499 24.5316 8.00442 25.0377 8.22535C26.3372 8.79253 27.2265 9.21074 28.844 9.98236Z" stroke="#A61744" stroke-width="4" stroke-linecap="round" mask="url(#path-1-inside-1)"/>
<path d="M22.043 33.8047C22.043 33.2524 21.5953 32.8047 21.043 32.8047C20.4907 32.8047 20.043 33.2524 20.043 33.8047V46.8047H39.6842V33.8047C39.6842 33.2524 39.2365 32.8047 38.6842 32.8047C38.1319 32.8047 37.6842 33.2524 37.6842 33.8047V44.8047H22.043V33.8047Z" stroke="#A61744" stroke-width="4" stroke-linecap="round" mask="url(#path-1-inside-1)"/>
</svg>
