<svg width="49" height="51" viewBox="0 0 49 51" fill="none" xmlns="http://www.w3.org/2000/svg">
<path d="M24.7502 0.721607C24.3935 0.452173 23.9013 0.452173 23.5447 0.721607L0.397298 18.2073C-0.0433833 18.5402 -0.130762 19.1673 0.202132 19.608C0.535027 20.0487 1.16213 20.1361 1.60281 19.8032L24.1474 2.77278L46.692 19.8032C47.1327 20.1361 47.7598 20.0487 48.0927 19.608C48.4256 19.1673 48.3382 18.5402 47.8976 18.2073L24.7502 0.721607Z" fill="#A61744"/>
<path fill-rule="evenodd" clip-rule="evenodd" d="M11.8015 19.5938C7.81245 19.5938 4.62891 22.9164 4.62891 26.9522C4.62891 30.988 7.81245 34.3107 11.8015 34.3107C15.7906 34.3107 18.9742 30.988 18.9742 26.9522C18.9742 22.9164 15.7906 19.5938 11.8015 19.5938ZM6.62891 26.9522C6.62891 23.9646 8.97253 21.5938 11.8015 21.5938C14.6306 21.5938 16.9742 23.9646 16.9742 26.9522C16.9742 29.9398 14.6306 32.3107 11.8015 32.3107C8.97253 32.3107 6.62891 29.9398 6.62891 26.9522Z" fill="#A61744"/>
<path d="M5.86624 37.4351C8.58753 35.4523 12.0807 34.951 15.2304 36.0981C15.7494 36.2871 16.0169 36.861 15.8279 37.3799C15.6389 37.8989 15.065 38.1664 14.546 37.9774C12.0271 37.06 9.23141 37.4577 7.04401 39.0515C4.85406 40.6471 3.54215 43.248 3.54297 46.0324C3.54313 46.5847 3.09555 47.0326 2.54326 47.0327C1.99098 47.0329 1.54313 46.5853 1.54297 46.033C1.54197 42.6241 3.14749 39.416 5.86624 37.4351Z" fill="#A61744"/>
<path d="M42.4285 37.4351C39.7072 35.4523 36.2141 34.951 33.0643 36.0981C32.5454 36.2871 32.2779 36.861 32.4669 37.3799C32.6559 37.8989 33.2298 38.1664 33.7487 37.9774C36.2677 37.06 39.0634 37.4577 41.2508 39.0515C43.4407 40.6471 44.7526 43.248 44.7518 46.0324C44.7516 46.5847 45.1992 47.0326 45.7515 47.0327C46.3038 47.0329 46.7516 46.5853 46.7518 46.033C46.7528 42.6241 45.1473 39.416 42.4285 37.4351Z" fill="#A61744"/>
<path fill-rule="evenodd" clip-rule="evenodd" d="M29.3164 26.9522C29.3164 22.9164 32.5 19.5938 36.489 19.5938C40.4386 19.5938 43.5984 22.8508 43.6607 26.8323C43.6655 26.8716 43.6679 26.9117 43.668 26.9523L43.6617 26.9523C43.6616 30.9881 40.4781 34.3107 36.489 34.3107C32.5 34.3107 29.3164 30.988 29.3164 26.9522ZM36.489 21.5938C33.66 21.5938 31.3164 23.9646 31.3164 26.9522C31.3164 29.9398 33.66 32.3107 36.489 32.3107C39.3181 32.3107 41.6617 29.9398 41.6617 26.9522C41.6617 23.9646 39.3181 21.5938 36.489 21.5938Z" fill="#A61744"/>
<path fill-rule="evenodd" clip-rule="evenodd" d="M18.5195 38.0814C18.5195 34.9235 21.0122 32.3125 24.149 32.3125C27.2858 32.3125 29.7784 34.9235 29.7784 38.0814C29.7784 40.6437 28.1373 42.8459 25.8426 43.5855C28.8453 44.1008 31.4978 45.9696 33.0396 48.7189C33.3098 49.2006 33.1383 49.8101 32.6566 50.0802C32.1749 50.3504 31.5654 50.1789 31.2952 49.6972C29.8129 47.0541 27.0854 45.4414 24.1502 45.4414C21.215 45.4414 18.4875 47.0541 17.0052 49.6972C16.735 50.1789 16.1255 50.3504 15.6438 50.0802C15.1621 49.8101 14.9906 49.2006 15.2608 48.7189C16.8024 45.9701 19.4542 44.1015 22.4562 43.5857C20.161 42.8465 18.5195 40.644 18.5195 38.0814ZM24.149 34.3125C22.1723 34.3125 20.5195 35.9717 20.5195 38.0814C20.5195 40.191 22.1723 41.8502 24.149 41.8502C26.1257 41.8502 27.7784 40.191 27.7784 38.0814C27.7784 35.9717 26.1257 34.3125 24.149 34.3125Z" fill="#A61744"/>
</svg>
