<svg width="50" height="49" viewBox="0 0 50 49" fill="none" xmlns="http://www.w3.org/2000/svg">
<path d="M10.888 5.49683L11.5587 4.83906C11.5905 4.80298 11.6249 4.76922 11.6616 4.73806L16.0851 0.399366C16.4794 0.0126384 17.1125 0.0187651 17.4993 0.413051C17.886 0.807335 17.8799 1.44047 17.4856 1.8272L14.7503 4.51006L45.5396 4.62875L42.8243 1.92406C42.433 1.5343 42.4318 0.901139 42.8215 0.509847C43.2113 0.118556 43.8444 0.117311 44.2357 0.507066L48.6485 4.90249C48.6677 4.9202 48.6862 4.93866 48.704 4.95781L49.3933 5.64445L44.1963 10.7419C43.802 11.1286 43.1688 11.1225 42.7821 10.7282C42.3954 10.3339 42.4015 9.70081 42.7958 9.31408L45.5336 6.62874L14.7392 6.51003L17.4571 9.21722C17.8484 9.60698 17.8496 10.2401 17.4599 10.6314C17.0701 11.0227 16.4369 11.024 16.0457 10.6342L11.6184 6.22436C11.6079 6.21435 11.5977 6.20411 11.5876 6.19366L10.888 5.49683Z" fill="#A61744"/>
<path d="M6.5647 10.5383L5.875 9.84054L5.1853 10.5383C5.17073 10.5522 5.15658 10.5665 5.14287 10.5812L0.757539 15.0179C0.369295 15.4107 0.372981 16.0439 0.765772 16.4321C1.15856 16.8204 1.79172 16.8167 2.17996 16.4239L4.875 13.6973V44.4892L2.17996 41.7626C1.79172 41.3698 1.15856 41.3661 0.765772 41.7543C0.372981 42.1426 0.369295 42.7757 0.757539 43.1685L5.12889 47.5911C5.15151 47.6164 5.17541 47.6406 5.20047 47.6635L5.875 48.3459L6.54953 47.6635C6.57459 47.6406 6.59849 47.6164 6.62111 47.5911L10.9925 43.1685C11.3807 42.7757 11.377 42.1426 10.9842 41.7543C10.5914 41.3661 9.95828 41.3698 9.57004 41.7626L6.875 44.4892V13.6973L9.57004 16.4239C9.95828 16.8167 10.5914 16.8204 10.9842 16.4321C11.377 16.0439 11.3807 15.4107 10.9925 15.0179L6.60713 10.5812C6.59342 10.5665 6.57927 10.5522 6.5647 10.5383Z" fill="#A61744"/>
<path fill-rule="evenodd" clip-rule="evenodd" d="M37.0404 47.8722H46.8012V16.1609H15.0898V47.8722H24.6473C24.7482 47.9064 24.8563 47.925 24.9688 47.925C25.0812 47.925 25.1893 47.9064 25.2902 47.8722H36.3971C36.498 47.9064 36.6062 47.925 36.7188 47.925C36.8313 47.925 36.9395 47.9064 37.0404 47.8722ZM34.25 18.1609H30.375V34.5493H22.0312C21.479 34.5493 21.0312 34.1016 21.0312 33.5493C21.0312 32.997 21.479 32.5493 22.0312 32.5493H28.375V18.1609H17.0898V25.1218H23.5C24.0523 25.1218 24.5 25.5695 24.5 26.1218C24.5 26.6741 24.0523 27.1218 23.5 27.1218H17.0898V39.9812H25.9688V45.8722H35.7188V33.5515C35.7188 32.9992 36.1665 32.5515 36.7188 32.5515C37.271 32.5515 37.7188 32.9992 37.7188 33.5515V37.0046H44.8012V25.6336H34.25V18.1609ZM37.7188 39.0046V45.8722H44.8012V39.0046H37.7188ZM36.25 18.1609V23.6336H44.8012V18.1609H36.25ZM23.9688 45.8722V41.9812H17.0898V45.8722H23.9688Z" fill="#A61744"/>
</svg>
