<svg width="45" height="45" viewBox="0 0 45 45" fill="none" xmlns="http://www.w3.org/2000/svg">
<path fill-rule="evenodd" clip-rule="evenodd" d="M41.6569 1.01957L41.4542 0.285156L40.2108 0.285557C40.0204 0.285514 39.8356 0.285473 39.652 0.285653H5.3475C5.19967 0.285628 5.05111 0.285757 4.89841 0.285889C4.68467 0.286074 4.46259 0.286267 4.22327 0.286055L3.41154 0.285337L3.24394 1.07958C3.19168 1.3272 3.13711 1.56565 3.08552 1.79104C3.05446 1.92672 3.02446 2.05783 2.99672 2.1832L0.40625 13.9816V14.0901C0.40625 16.9886 2.73182 19.3583 5.625 19.3583C7.36321 19.3583 8.89654 18.5029 9.84375 17.1915C10.791 18.5029 12.3243 19.3583 14.0625 19.3583C15.8007 19.3583 17.334 18.5029 18.2812 17.1915C19.2285 18.5029 20.7618 19.3583 22.5 19.3583C24.2382 19.3583 25.7715 18.5029 26.7188 17.1915C27.666 18.5029 29.1993 19.3583 30.9375 19.3583C32.6757 19.3583 34.209 18.5029 35.1562 17.1915C36.1035 18.5029 37.6368 19.3583 39.375 19.3583C42.2682 19.3583 44.5938 16.9886 44.5938 14.0901V13.9816L42.0019 2.18527C41.9554 1.97335 41.8806 1.73366 41.8189 1.54008L41.7771 1.40947C41.7275 1.25473 41.6866 1.12748 41.6569 1.01957ZM10.8438 14.0901H8.84375C8.84375 15.9061 7.39172 17.3583 5.625 17.3583C3.89134 17.3583 2.46071 15.9599 2.40777 14.1917L4.94969 2.61441C4.9703 2.52123 4.99594 2.40894 5.02408 2.28579L39.9568 2.28552C39.999 2.42188 40.0303 2.53179 40.0483 2.61377L42.5922 14.1918C42.5392 15.96 41.1086 17.3583 39.375 17.3583C37.6083 17.3583 36.1562 15.9061 36.1562 14.0901H34.1562C34.1562 15.9061 32.7042 17.3583 30.9375 17.3583C29.1708 17.3583 27.7188 15.9061 27.7188 14.0901H25.7188C25.7188 15.9061 24.2667 17.3583 22.5 17.3583C20.7333 17.3583 19.2812 15.9061 19.2812 14.0901H17.2812C17.2812 15.9061 15.8292 17.3583 14.0625 17.3583C12.2958 17.3583 10.8438 15.9061 10.8438 14.0901Z" fill="#A61744"/>
<path d="M4.69922 20.4492C4.14693 20.4492 3.69922 20.8969 3.69922 21.4492V43.2436C3.69922 43.7959 4.14693 44.2436 4.69922 44.2436H11.7305C12.2828 44.2436 12.7305 43.7959 12.7305 43.2436C12.7305 42.6913 12.2828 42.2436 11.7305 42.2436H5.69922V21.4492C5.69922 20.8969 5.2515 20.4492 4.69922 20.4492Z" fill="#A61744"/>
<path d="M41.7812 21.4492C41.7812 20.8969 41.3335 20.4492 40.7812 20.4492C40.229 20.4492 39.7812 20.8969 39.7812 21.4492V42.2436H33.75C33.1977 42.2436 32.75 42.6913 32.75 43.2436C32.75 43.7959 33.1977 44.2436 33.75 44.2436H40.7812C41.3335 44.2436 41.7812 43.7959 41.7812 43.2436V21.4492Z" fill="#A61744"/>
<path fill-rule="evenodd" clip-rule="evenodd" d="M21.6761 23.7462C22.0045 23.7421 22.314 23.8996 22.5041 24.1675C23.6242 25.7464 24.766 27.6068 25.2809 28.6442C26.448 28.823 29.2966 29.5441 30.4023 29.918C30.6959 30.0174 30.9269 30.2473 31.0276 30.5404C31.1283 30.8336 31.0874 31.1569 30.9168 31.4157C30.6165 31.8712 29.9416 32.7158 29.2774 33.5074C28.6269 34.2828 27.9224 35.0837 27.4965 35.5074C27.6696 36.561 27.7514 38.2948 27.8449 40.2753L27.867 40.7427C27.8833 41.0844 27.7237 41.4107 27.4441 41.6077C27.1644 41.8047 26.8034 41.8451 26.4871 41.7148C26.1214 41.5641 25.6198 41.3698 25.0629 41.154C24.7353 41.0271 24.3886 40.8928 24.0392 40.7557C23.1559 40.4089 22.2306 40.0342 21.6894 39.7537C20.6417 40.2988 18.0847 41.3016 16.8391 41.7347C16.5333 41.841 16.195 41.7928 15.9312 41.6052C15.6673 41.4176 15.5106 41.1139 15.5106 40.7902C15.5106 39.4913 15.692 36.6631 15.8807 35.5059C15.0466 34.6761 13.2873 32.5552 12.4874 31.4525C12.3028 31.198 12.2486 30.8714 12.3412 30.5709C12.4338 30.2703 12.6624 30.0309 12.9582 29.9244C14.5937 29.3358 16.9661 28.8138 18.098 28.6439C18.616 27.602 19.7742 25.7997 20.8588 24.1878C21.0422 23.9153 21.3476 23.7502 21.6761 23.7462ZM19.8756 29.6049L19.8723 29.6117C19.5931 30.1709 19.0587 30.5626 18.4359 30.6534C17.6939 30.7618 16.267 31.0605 14.9648 31.4262C15.7903 32.4576 16.8134 33.6535 17.321 34.1516L17.322 34.1525C17.7672 34.5904 17.9676 35.2186 17.8635 35.8315C17.7473 36.5148 17.6227 38.0731 17.5582 39.3761C18.7751 38.9083 20.1838 38.327 20.7991 38.0012L20.8013 38.0001C21.3596 37.7063 22.0256 37.7063 22.5838 38.0001L22.5861 38.0012C23.0001 38.2204 23.8356 38.5632 24.7733 38.9314C25.0976 39.0587 25.432 39.1882 25.755 39.3134L25.7984 39.3302C25.7217 37.7842 25.6465 36.5744 25.5199 35.8321L25.5194 35.8287C25.4171 35.2158 25.6187 34.5886 26.0642 34.1515C26.4097 33.8126 27.0805 33.0554 27.7485 32.2593C27.9825 31.9803 28.2081 31.7062 28.4122 31.453C27.9048 31.316 27.3435 31.1731 26.8108 31.0454C26.2616 30.9137 24.872 30.5963 24.4743 30.5202C24.2758 30.4353 24.0937 30.3175 23.9354 30.1726C23.7628 30.0146 23.6184 29.8244 23.5118 29.6095L23.5097 29.6053C23.3733 29.3271 23.1739 28.9623 22.9309 28.5451C22.8483 28.4033 22.7607 28.2555 22.6688 28.103C22.4811 27.7915 22.2755 27.4603 22.0585 27.1208C21.9432 26.9404 21.8246 26.7576 21.7038 26.5742C21.6526 26.6525 21.6019 26.7304 21.5517 26.8079C20.8153 27.9435 20.1824 28.9788 19.8756 29.6049Z" fill="#A61744"/>
</svg>
