<svg width="49" height="48" viewBox="0 0 49 48" fill="none" xmlns="http://www.w3.org/2000/svg">
<path fill-rule="evenodd" clip-rule="evenodd" d="M31.3555 6.09766C30.8032 6.09766 30.3555 6.54537 30.3555 7.09766V20.9665C30.3555 21.5188 30.8032 21.9665 31.3555 21.9665C31.9078 21.9665 32.3555 21.5188 32.3555 20.9665V16.0227H35.2721C37.9985 16.0227 40.1888 13.7899 40.1888 11.0602C40.1888 8.33046 37.9985 6.09766 35.2721 6.09766H31.3555ZM35.2721 14.0227H32.3555V8.09766H35.2721C36.872 8.09766 38.1888 9.41302 38.1888 11.0602C38.1888 12.7074 36.872 14.0227 35.2721 14.0227Z" fill="#A61744"/>
<path fill-rule="evenodd" clip-rule="evenodd" d="M20.5625 14.0306C20.5625 6.37684 26.6983 0.152344 34.2917 0.152344C41.885 0.152344 48.0208 6.37684 48.0208 14.0306C48.0208 21.6843 41.885 27.9088 34.2917 27.9088C26.6983 27.9088 20.5625 21.6843 20.5625 14.0306ZM34.2917 2.15234C27.8248 2.15234 22.5625 7.4594 22.5625 14.0306C22.5625 20.6017 27.8248 25.9088 34.2917 25.9088C40.7586 25.9088 46.0208 20.6017 46.0208 14.0306C46.0208 7.4594 40.7586 2.15234 34.2917 2.15234Z" fill="#A61744"/>
<path fill-rule="evenodd" clip-rule="evenodd" d="M10.48 19.9648C9.66334 19.9638 8.93711 20.4659 8.63891 21.2187L5.04494 30.3108L1.55429 33.8423C1.18562 34.2162 0.980579 34.7205 0.980469 35.2437V41.7681C0.980469 42.8492 1.84395 43.7466 2.9375 43.7586V45.7297C2.9375 46.8181 3.81266 47.7203 4.91667 47.7203H8.83333C9.93734 47.7203 10.8125 46.8181 10.8125 45.7297V43.7587H30.3555V45.7297C30.3555 46.8181 31.2306 47.7203 32.3346 47.7203H36.2513C37.3553 47.7203 38.2305 46.8181 38.2305 45.7297V43.7586C39.3246 43.7473 40.1888 42.8496 40.1888 41.7681V35.2435C40.1887 34.7203 39.9837 34.2162 39.615 33.8423L35.6898 29.8711H7.36931L10.4945 21.9648H18.5319C19.0842 21.9648 19.5319 21.5171 19.5319 20.9648C19.5319 20.4126 19.0842 19.9648 18.5319 19.9648L10.481 19.9648L10.4792 20.9648L10.48 19.9648ZM10.4945 21.9648L10.4775 21.9648L10.4792 21.9648C10.4817 21.9646 10.4844 21.9642 10.4869 21.9634C10.4899 21.9624 10.4921 21.9613 10.4937 21.9602C10.4952 21.9591 10.4963 21.958 10.4972 21.957L10.4983 21.9552L10.4945 21.9648ZM10.793 39.7969H2.98047V41.7587H3.89541C3.90937 41.7581 3.9234 41.7578 3.9375 41.7578C3.9516 41.7578 3.96563 41.7581 3.97959 41.7587H9.77041C9.78437 41.7581 9.7984 41.7578 9.8125 41.7578L9.83318 41.758L9.85459 41.7587H31.3134C31.3273 41.7581 31.3414 41.7578 31.3555 41.7578C31.3696 41.7578 31.3836 41.7581 31.3976 41.7587H37.1884C37.2023 41.7581 37.2164 41.7578 37.2305 41.7578C37.2446 41.7578 37.2586 41.7581 37.2726 41.7587H38.1888V39.7969H30.375C29.8227 39.7969 29.375 39.3492 29.375 38.7969C29.375 38.2446 29.8227 37.7969 30.375 37.7969H38.1888V35.2444L34.8545 31.8711H6.31476L2.98047 35.2444V37.7969H10.793C11.3453 37.7969 11.793 38.2446 11.793 38.7969C11.793 39.3492 11.3453 39.7969 10.793 39.7969ZM4.9375 45.7203V43.7587H8.8125V45.7203H4.9375ZM36.2305 43.7587H32.3555V45.7203H36.2305V43.7587Z" fill="#A61744"/>
</svg>
