<svg width="24" height="24" viewBox="0 0 24 24" fill="none" xmlns="http://www.w3.org/2000/svg">
<path fill-rule="evenodd" clip-rule="evenodd" d="M1.33203 11.9987C1.33203 6.10767 6.10766 1.33203 11.9987 1.33203C14.8277 1.33203 17.5408 2.45585 19.5412 4.45622C21.5416 6.45662 22.6654 9.16972 22.6654 11.9987C22.6654 17.8897 17.8897 22.6654 11.9987 22.6654C6.10766 22.6654 1.33203 17.8897 1.33203 11.9987ZM10.2054 17.172L18.9654 8.4187L18.9787 8.43201C19.3469 8.06384 19.3469 7.46688 18.9787 7.09867C18.6105 6.73051 18.0136 6.73051 17.6454 7.09867L10.2187 14.5187L6.36537 10.6654C5.99718 10.2972 5.40022 10.2972 5.03203 10.6654C4.66384 11.0336 4.66384 11.6305 5.03203 11.9987L10.2054 17.172Z" fill="#28A745"/>
</svg>
