<svg width="24" height="25" viewBox="0 0 24 25" fill="none" xmlns="http://www.w3.org/2000/svg">
<path fill-rule="evenodd" clip-rule="evenodd" d="M23.1451 19.5025L13.8851 2.46248C13.5096 1.77067 12.7856 1.33984 11.9984 1.33984C11.2113 1.33984 10.4872 1.77067 10.1117 2.46248L0.858413 19.5025C0.486043 20.1692 0.495941 20.9836 0.884404 21.6411C1.27287 22.2986 1.9814 22.7002 2.74508 22.6958H21.2584C22.0141 22.695 22.7136 22.297 23.1004 21.6479C23.4872 20.9987 23.5041 20.194 23.1451 19.5291V19.5025ZM11.1451 6.6958C11.1451 6.18034 11.5629 5.76245 12.0784 5.76245C12.5939 5.76245 13.0117 6.18034 13.0117 6.6958V14.6958C13.0117 15.2113 12.5939 15.6291 12.0784 15.6291C11.5629 15.6291 11.1451 15.2113 11.1451 14.6958V6.6958ZM10.8784 18.7291C10.8784 19.3919 11.4157 19.9291 12.0784 19.9291C12.3967 19.9291 12.7019 19.8027 12.9269 19.5777C13.152 19.3526 13.2784 19.0474 13.2784 18.7291C13.2784 18.0664 12.7412 17.5291 12.0784 17.5291C11.4157 17.5291 10.8784 18.0664 10.8784 18.7291Z" fill="#DC3545"/>
</svg>
