<svg width="24" height="24" viewBox="0 0 24 24" fill="none" xmlns="http://www.w3.org/2000/svg">
<path fill-rule="evenodd" clip-rule="evenodd" d="M11.9987 1.39844C6.10742 1.39844 1.33203 6.17407 1.33203 12.0651C1.33203 17.9561 6.10742 22.7318 11.9987 22.7318C17.89 22.7318 22.6654 17.9561 22.6654 12.0651C22.6654 9.23613 21.5417 6.52302 19.541 4.52263C17.541 2.52224 14.8275 1.39844 11.9987 1.39844ZM11.9323 4.91844C12.6686 4.91844 13.2656 5.51539 13.2656 6.25177C13.2656 6.98815 12.6686 7.5851 11.9323 7.5851C11.196 7.5851 10.599 6.98815 10.599 6.25177C10.599 5.51539 11.196 4.91844 11.9323 4.91844ZM8.73177 18.1518C8.73177 18.6672 9.14974 19.0851 9.66536 19.0851H14.332C14.847 19.0851 15.265 18.6672 15.265 18.1518C15.265 17.6363 14.847 17.2184 14.332 17.2184H12.9316V9.21844H9.9987C9.48307 9.21844 9.0651 9.63631 9.0651 10.1518C9.0651 10.6672 9.48307 11.0851 9.9987 11.0851H11.0651V17.2184H9.66536C9.14974 17.2184 8.73177 17.6363 8.73177 18.1518Z" fill="#6ECFFE"/>
</svg>
