<svg width="60" height="60" viewBox="0 0 60 60" fill="none" xmlns="http://www.w3.org/2000/svg">
<path d="M39.5694 42.8121L53.5899 56.8699C53.5902 56.8702 53.5905 56.8705 53.5907 56.8708C54.2621 57.5463 55.2429 57.8129 56.1642 57.5695C57.0857 57.3261 57.8072 56.6094 58.0571 55.6898C58.307 54.7702 58.0472 53.7871 57.3758 53.1108L57.3742 53.1093L43.3394 39.0369C46.3801 35.1791 48.2161 30.2919 48.2161 24.9987C48.2161 12.4803 38.0679 2.33203 25.5495 2.33203C13.031 2.33203 2.88281 12.4803 2.88281 24.9987C2.88281 37.5171 13.031 47.6654 25.5495 47.6654C30.8509 47.6654 35.7099 45.8619 39.5694 42.8121ZM18.9685 40.9371L18.586 41.8611L18.9685 40.9371C12.5214 38.2684 8.31704 31.9785 8.31615 25.0009C8.36045 15.4974 16.0491 7.80172 25.5527 7.74878C32.5302 7.74335 38.8239 11.9419 41.4985 18.3866C44.1735 24.832 42.7015 32.2541 37.7693 37.1909C32.8371 42.1275 25.4163 43.6063 18.9685 40.9371Z" fill="#A61744" stroke="white" stroke-width="2"/>
</svg>
